<?xml version="1.0" encoding="utf-8"?>
<!-- Generator: Adobe Illustrator 21.0.0, SVG Export Plug-In . SVG Version: 6.00 Build 0)  -->
<svg version="1.1"
	 id="svg2" inkscape:version="0.48.0 r9654" sodipodi:docname="namesvg.svg" xmlns:cc="http://creativecommons.org/ns#" xmlns:dc="http://purl.org/dc/elements/1.1/" xmlns:inkscape="http://www.inkscape.org/namespaces/inkscape" xmlns:rdf="http://www.w3.org/1999/02/22-rdf-syntax-ns#" xmlns:sodipodi="http://sodipodi.sourceforge.net/DTD/sodipodi-0.dtd" xmlns:svg="http://www.w3.org/2000/svg"
	 xmlns="http://www.w3.org/2000/svg" xmlns:xlink="http://www.w3.org/1999/xlink" x="0px" y="0px" viewBox="0 0 229.7 49.4"
	 style="enable-background:new 0 0 229.7 49.4;" xml:space="preserve">
<style type="text/css">
	.st0{fill:#15365D;}
	.st1{fill:#FF3900;}
</style>
<script  type="text/ecmascript" xlink:href="smil.user.js"></script>
<g>
	<path class="st0" d="M74.4,29.2c0,1.3-0.2,2.6-0.7,3.7c-0.4,1.1-1,2.1-1.8,2.9c-0.8,0.8-1.7,1.4-2.8,1.9c-1.1,0.4-2.3,0.7-3.7,0.7
		c-1.3,0-2.6-0.2-3.7-0.7c-1.1-0.4-2.1-1.1-2.8-1.9c-0.8-0.8-1.4-1.7-1.8-2.9c-0.4-1.1-0.7-2.3-0.7-3.7v-6.3c0-1.3,0.2-2.6,0.7-3.7
		c0.4-1.1,1-2.1,1.8-2.9c0.8-0.8,1.7-1.4,2.8-1.9c1.1-0.4,2.3-0.7,3.7-0.7c1.3,0,2.6,0.2,3.7,0.7c1.1,0.4,2.1,1.1,2.8,1.9
		c0.8,0.8,1.4,1.8,1.8,2.9c0.4,1.1,0.7,2.3,0.7,3.7V29.2z M71.3,22.6c0-1.8-0.5-3.3-1.5-4.3s-2.4-1.5-4.3-1.5
		c-1.8,0-3.3,0.5-4.3,1.5s-1.5,2.5-1.5,4.3v6.8c0,1.8,0.5,3.3,1.5,4.3s2.4,1.5,4.3,1.5c1.8,0,3.3-0.5,4.3-1.5s1.5-2.5,1.5-4.3V22.6z
		"/>
	<path class="st0" d="M95.9,22.1c0-1.7-0.5-3-1.4-4s-2.3-1.4-3.9-1.4c-1.8,0-3.6,0.3-5.4,0.8v19.1c0,0.4-0.2,0.8-0.5,1.1
		c-0.3,0.3-0.7,0.5-1.1,0.5c-0.4,0-0.8-0.2-1.1-0.5C82.2,37.4,82,37,82,36.6V17c0-0.5,0.1-0.9,0.4-1.3c0.3-0.4,0.6-0.6,1.1-0.8
		c2.2-0.8,4.5-1.2,7.1-1.2c1.3,0,2.4,0.2,3.5,0.6c1,0.4,1.9,1,2.7,1.8c0.8,0.7,1.3,1.6,1.7,2.7c0.4,1,0.6,2.2,0.6,3.5v14.3
		c0,0.4-0.2,0.8-0.5,1.1c-0.3,0.3-0.7,0.5-1.1,0.5c-0.4,0-0.8-0.2-1.1-0.5c-0.3-0.3-0.5-0.7-0.5-1.1V22.1z"/>
	<path class="st0" d="M107.5,10c0-0.4,0.2-0.8,0.5-1.1s0.7-0.5,1.1-0.5s0.8,0.2,1.1,0.5c0.3,0.3,0.5,0.7,0.5,1.1v4.2h5.4
		c0.4,0,0.8,0.1,1.1,0.4c0.3,0.3,0.4,0.7,0.4,1.1c0,0.4-0.1,0.8-0.4,1.1s-0.7,0.4-1.1,0.4h-5.4v14.6c0,1,0.3,1.8,0.9,2.4
		c0.6,0.6,1.3,0.9,2.1,0.9c0.3,0,0.8,0,1.3-0.1c0.5-0.1,0.9-0.1,1.2-0.1c0.3,0,0.7,0.1,1,0.4s0.5,0.6,0.5,1.1c0,0.4-0.1,0.7-0.4,1
		c-0.2,0.3-0.6,0.5-1,0.5c-0.4,0.1-0.9,0.1-1.3,0.2c-0.5,0.1-0.9,0.1-1.4,0.1c-0.8,0-1.6-0.2-2.4-0.5s-1.4-0.8-1.9-1.3
		c-0.5-0.6-1-1.2-1.3-2s-0.5-1.7-0.5-2.6C107.5,31.8,107.5,10,107.5,10z"/>
	<path class="st0" d="M140.3,29.2c0,1.3-0.2,2.6-0.7,3.7c-0.4,1.1-1,2.1-1.8,2.9s-1.7,1.4-2.8,1.9c-1.1,0.3-2.4,0.5-3.7,0.5
		s-2.6-0.2-3.7-0.7c-1.1-0.4-2.1-1.1-2.8-1.9c-0.8-0.8-1.4-1.7-1.8-2.9c-0.4-1.1-0.7-2.3-0.7-3.7v-6.3c0-1.3,0.2-2.6,0.7-3.7
		c0.4-1.1,1-2.1,1.8-2.9c0.8-0.8,1.7-1.4,2.8-1.9c1.1-0.4,2.3-0.7,3.7-0.7c1.3,0,2.6,0.2,3.7,0.7c1.1,0.4,2.1,1.1,2.8,1.9
		c0.8,0.8,1.4,1.8,1.8,2.9c0.4,1.1,0.7,2.3,0.7,3.7V29.2z M137.1,22.6c0-1.8-0.5-3.3-1.5-4.3s-2.4-1.5-4.3-1.5
		c-1.8,0-3.3,0.5-4.3,1.5s-1.5,2.5-1.5,4.3v6.8c0,1.8,0.5,3.3,1.5,4.3s2.4,1.5,4.3,1.5c1.8,0,3.3-0.5,4.3-1.5s1.5-2.5,1.5-4.3V22.6z
		"/>
	<path class="st0" d="M147.8,10c0-0.4,0.2-0.8,0.5-1.1s0.7-0.5,1.1-0.5c0.4,0,0.8,0.2,1.1,0.5c0.3,0.3,0.5,0.7,0.5,1.1v4.2h5.4
		c0.4,0,0.8,0.1,1.1,0.4c0.3,0.3,0.4,0.7,0.4,1.1c0,0.4-0.1,0.8-0.4,1.1s-0.7,0.4-1.1,0.4H151v14.6c0,1,0.3,1.8,0.9,2.4
		c0.6,0.6,1.3,0.9,2.1,0.9c0.3,0,0.8,0,1.3-0.1c0.5-0.1,0.9-0.1,1.2-0.1c0.3,0,0.7,0.1,1,0.4s0.5,0.6,0.5,1.1c0,0.4-0.1,0.7-0.4,1
		c-0.2,0.3-0.6,0.5-1,0.5c-0.4,0.1-0.9,0.1-1.3,0.2c-0.5,0-0.9,0.1-1.3,0.1c-0.8,0-1.6-0.2-2.4-0.5s-1.4-0.8-1.9-1.3
		c-0.5-0.6-1-1.2-1.3-2s-0.5-1.7-0.5-2.6L147.8,10L147.8,10z"/>
	<path class="st0" d="M166.7,27v2.6c0,1.7,0.5,3,1.4,4.1c1,1,2.3,1.5,4,1.5c0.9,0,1.9-0.1,2.7-0.4c0.9-0.2,1.8-0.6,2.6-0.9
		c0.2-0.1,0.4-0.1,0.7-0.1c0.4,0,0.8,0.1,1.1,0.4s0.5,0.6,0.5,1.1c0,0.7-0.3,1.1-0.9,1.4c-1.1,0.5-2.1,0.9-3.3,1.1
		c-1.1,0.2-2.3,0.4-3.4,0.4c-1.3,0-2.5-0.2-3.5-0.6c-1.1-0.4-2-1-2.7-1.8c-0.8-0.8-1.3-1.6-1.7-2.7c-0.4-1-0.6-2.2-0.6-3.5v-7.3
		c0-1.3,0.2-2.4,0.6-3.5c0.4-1,1-1.9,1.7-2.7s1.7-1.3,2.7-1.8c1.1-0.4,2.2-0.6,3.5-0.6s2.4,0.2,3.5,0.6c1,0.4,1.9,1,2.7,1.8
		c0.8,0.7,1.3,1.6,1.7,2.7c0.4,1,0.6,2.2,0.6,3.5v2.4c0,0.6-0.2,1.1-0.6,1.6c-0.4,0.4-0.9,0.6-1.6,0.6h-11.7V27z M177.5,22.1
		c0-1.7-0.5-3-1.4-4s-2.3-1.4-3.9-1.4c-1.7,0-3,0.5-4,1.4c-1,1-1.4,2.3-1.4,4V24h10.7L177.5,22.1L177.5,22.1z"/>
	<path class="st0" d="M193.9,28.7l-5.7,8.8c-0.3,0.5-0.8,0.8-1.3,0.8c-0.4,0-0.8-0.1-1.1-0.4c-0.3-0.3-0.5-0.7-0.5-1.2
		c0-0.3,0.1-0.6,0.2-0.8l6.5-9.8l-6.3-9.6c-0.2-0.3-0.3-0.6-0.3-0.9c0-0.4,0.2-0.8,0.5-1.1s0.7-0.5,1.1-0.5c0.6,0,1,0.3,1.4,0.7
		l5.5,8.5l5.5-8.5c0.3-0.5,0.8-0.7,1.3-0.7c0.4,0,0.8,0.1,1.1,0.4c0.3,0.3,0.5,0.7,0.5,1.1c0,0.3-0.1,0.6-0.3,0.9l-6.3,9.6l6.5,9.8
		c0.2,0.3,0.2,0.5,0.2,0.8c0,0.4-0.1,0.8-0.4,1.1c-0.3,0.3-0.7,0.5-1.2,0.5c-0.6,0-1-0.3-1.3-0.8L193.9,28.7z"/>
	<path class="st0" d="M209,10c0-0.4,0.2-0.8,0.5-1.1s0.7-0.5,1.1-0.5s0.8,0.2,1.1,0.5s0.5,0.7,0.5,1.1v4.2h5.4
		c0.4,0,0.8,0.1,1.1,0.4c0.3,0.3,0.4,0.7,0.4,1.1c0,0.4-0.1,0.8-0.4,1.1c-0.3,0.3-0.7,0.4-1.1,0.4h-5.4v14.6c0,1,0.3,1.8,0.9,2.4
		c0.6,0.6,1.3,0.9,2.1,0.9c0.3,0,0.8,0,1.3-0.1c0.5-0.1,0.9-0.1,1.2-0.1s0.7,0.1,1,0.4s0.5,0.6,0.5,1.1c0,0.4-0.1,0.7-0.4,1
		c-0.2,0.3-0.6,0.5-1,0.5c-0.4,0.1-0.9,0.1-1.3,0.2c-0.5,0-0.9,0.1-1.3,0.1c-0.8,0-1.6-0.2-2.4-0.5c-0.8-0.3-1.4-0.8-1.9-1.3
		c-0.5-0.6-1-1.2-1.3-2s-0.5-1.7-0.5-2.6V10H209z"/>
</g>
<circle class="st1" cx="22.8" cy="6.4" r="1.5"/>
<circle class="st1" cx="32.4" cy="8.9" r="4.1"/>
<circle class="st1" cx="38.6" cy="14" r="2"/>
<circle class="st1" cx="42.1" cy="22.7" r="4.6"/>
<circle class="st1" cx="40.6" cy="32.3" r="3.1"/>
<circle class="st1" cx="36" cy="37.9" r="1.5"/>
<circle class="st1" cx="30.4" cy="41.5" r="2"/>
<circle class="st1" cx="22.8" cy="42" r="2.5"/>
<circle class="st1" cx="13.1" cy="38.4" r="4.1"/>
<circle class="st1" cx="8" cy="31.3" r="2"/>
<circle class="st1" cx="6.5" cy="24.7" r="2.5"/>
<circle class="st1" cx="9" cy="15" r="4.1"/>
<circle class="st1" cx="15.1" cy="8.9" r="3.1"/>
</svg>
