<?xml version="1.0" encoding="UTF-8" standalone="no"?><!DOCTYPE svg PUBLIC "-//W3C//DTD SVG 1.1//EN" "http://www.w3.org/Graphics/SVG/1.1/DTD/svg11.dtd"><svg width="100%" height="100%" viewBox="0 0 230 50" version="1.1" xmlns="http://www.w3.org/2000/svg" xmlns:xlink="http://www.w3.org/1999/xlink" xml:space="preserve" xmlns:serif="http://www.serif.com/" style="fill-rule:evenodd;clip-rule:evenodd;stroke-linejoin:round;stroke-miterlimit:1.41421;"><g><path d="M74.4,29.2c0,1.3 -0.2,2.6 -0.7,3.7c-0.4,1.1 -1,2.1 -1.8,2.9c-0.8,0.8 -1.7,1.4 -2.8,1.9c-1.1,0.4 -2.3,0.7 -3.7,0.7c-1.3,0 -2.6,-0.2 -3.7,-0.7c-1.1,-0.4 -2.1,-1.1 -2.8,-1.9c-0.8,-0.8 -1.4,-1.7 -1.8,-2.9c-0.4,-1.1 -0.7,-2.3 -0.7,-3.7l0,-6.3c0,-1.3 0.2,-2.6 0.7,-3.7c0.4,-1.1 1,-2.1 1.8,-2.9c0.8,-0.8 1.7,-1.4 2.8,-1.9c1.1,-0.4 2.3,-0.7 3.7,-0.7c1.3,0 2.6,0.2 3.7,0.7c1.1,0.4 2.1,1.1 2.8,1.9c0.8,0.8 1.4,1.8 1.8,2.9c0.4,1.1 0.7,2.3 0.7,3.7l0,6.3Zm-3.1,-6.6c0,-1.8 -0.5,-3.3 -1.5,-4.3c-1,-1 -2.4,-1.5 -4.3,-1.5c-1.8,0 -3.3,0.5 -4.3,1.5c-1,1 -1.5,2.5 -1.5,4.3l0,6.8c0,1.8 0.5,3.3 1.5,4.3c1,1 2.4,1.5 4.3,1.5c1.8,0 3.3,-0.5 4.3,-1.5c1,-1 1.5,-2.5 1.5,-4.3l0,-6.8Z" style="fill:#fff;fill-rule:nonzero;"/><path d="M95.9,22.1c0,-1.7 -0.5,-3 -1.4,-4c-0.9,-1 -2.3,-1.4 -3.9,-1.4c-1.8,0 -3.6,0.3 -5.4,0.8l0,19.1c0,0.4 -0.2,0.8 -0.5,1.1c-0.3,0.3 -0.7,0.5 -1.1,0.5c-0.4,0 -0.8,-0.2 -1.1,-0.5c-0.3,-0.3 -0.5,-0.7 -0.5,-1.1l0,-19.6c0,-0.5 0.1,-0.9 0.4,-1.3c0.3,-0.4 0.6,-0.6 1.1,-0.8c2.2,-0.8 4.5,-1.2 7.1,-1.2c1.3,0 2.4,0.2 3.5,0.6c1,0.4 1.9,1 2.7,1.8c0.8,0.7 1.3,1.6 1.7,2.7c0.4,1 0.6,2.2 0.6,3.5l0,14.3c0,0.4 -0.2,0.8 -0.5,1.1c-0.3,0.3 -0.7,0.5 -1.1,0.5c-0.4,0 -0.8,-0.2 -1.1,-0.5c-0.3,-0.3 -0.5,-0.7 -0.5,-1.1l0,-14.5Z" style="fill:#fff;fill-rule:nonzero;"/><path d="M107.5,10c0,-0.4 0.2,-0.8 0.5,-1.1c0.3,-0.3 0.7,-0.5 1.1,-0.5c0.4,0 0.8,0.2 1.1,0.5c0.3,0.3 0.5,0.7 0.5,1.1l0,4.2l5.4,0c0.4,0 0.8,0.1 1.1,0.4c0.3,0.3 0.4,0.7 0.4,1.1c0,0.4 -0.1,0.8 -0.4,1.1c-0.3,0.3 -0.7,0.4 -1.1,0.4l-5.4,0l0,14.6c0,1 0.3,1.8 0.9,2.4c0.6,0.6 1.3,0.9 2.1,0.9c0.3,0 0.8,0 1.3,-0.1c0.5,-0.1 0.9,-0.1 1.2,-0.1c0.3,0 0.7,0.1 1,0.4c0.3,0.3 0.5,0.6 0.5,1.1c0,0.4 -0.1,0.7 -0.4,1c-0.2,0.3 -0.6,0.5 -1,0.5c-0.4,0.1 -0.9,0.1 -1.3,0.2c-0.5,0.1 -0.9,0.1 -1.4,0.1c-0.8,0 -1.6,-0.2 -2.4,-0.5c-0.8,-0.3 -1.4,-0.8 -1.9,-1.3c-0.5,-0.6 -1,-1.2 -1.3,-2c-0.3,-0.8 -0.5,-1.7 -0.5,-2.6l0,-21.8Z" style="fill:#fff;fill-rule:nonzero;"/><path d="M140.3,29.2c0,1.3 -0.2,2.6 -0.7,3.7c-0.4,1.1 -1,2.1 -1.8,2.9c-0.8,0.8 -1.7,1.4 -2.8,1.9c-1.1,0.3 -2.4,0.5 -3.7,0.5c-1.3,0 -2.6,-0.2 -3.7,-0.7c-1.1,-0.4 -2.1,-1.1 -2.8,-1.9c-0.8,-0.8 -1.4,-1.7 -1.8,-2.9c-0.4,-1.1 -0.7,-2.3 -0.7,-3.7l0,-6.3c0,-1.3 0.2,-2.6 0.7,-3.7c0.4,-1.1 1,-2.1 1.8,-2.9c0.8,-0.8 1.7,-1.4 2.8,-1.9c1.1,-0.4 2.3,-0.7 3.7,-0.7c1.3,0 2.6,0.2 3.7,0.7c1.1,0.4 2.1,1.1 2.8,1.9c0.8,0.8 1.4,1.8 1.8,2.9c0.4,1.1 0.7,2.3 0.7,3.7l0,6.5Zm-3.2,-6.6c0,-1.8 -0.5,-3.3 -1.5,-4.3c-1,-1 -2.4,-1.5 -4.3,-1.5c-1.8,0 -3.3,0.5 -4.3,1.5c-1,1 -1.5,2.5 -1.5,4.3l0,6.8c0,1.8 0.5,3.3 1.5,4.3c1,1 2.4,1.5 4.3,1.5c1.8,0 3.3,-0.5 4.3,-1.5c1,-1 1.5,-2.5 1.5,-4.3l0,-6.8Z" style="fill:#fff;fill-rule:nonzero;"/><path d="M147.8,10c0,-0.4 0.2,-0.8 0.5,-1.1c0.3,-0.3 0.7,-0.5 1.1,-0.5c0.4,0 0.8,0.2 1.1,0.5c0.3,0.3 0.5,0.7 0.5,1.1l0,4.2l5.4,0c0.4,0 0.8,0.1 1.1,0.4c0.3,0.3 0.4,0.7 0.4,1.1c0,0.4 -0.1,0.8 -0.4,1.1c-0.3,0.3 -0.7,0.4 -1.1,0.4l-5.4,0l0,14.6c0,1 0.3,1.8 0.9,2.4c0.6,0.6 1.3,0.9 2.1,0.9c0.3,0 0.8,0 1.3,-0.1c0.5,-0.1 0.9,-0.1 1.2,-0.1c0.3,0 0.7,0.1 1,0.4c0.3,0.3 0.5,0.6 0.5,1.1c0,0.4 -0.1,0.7 -0.4,1c-0.2,0.3 -0.6,0.5 -1,0.5c-0.4,0.1 -0.9,0.1 -1.3,0.2c-0.5,0 -0.9,0.1 -1.3,0.1c-0.8,0 -1.6,-0.2 -2.4,-0.5c-0.8,-0.3 -1.4,-0.8 -1.9,-1.3c-0.5,-0.6 -1,-1.2 -1.3,-2c-0.3,-0.8 -0.5,-1.7 -0.5,-2.6l-0.1,-21.8Z" style="fill:#fff;fill-rule:nonzero;"/><path d="M166.7,27l0,2.6c0,1.7 0.5,3 1.4,4.1c1,1 2.3,1.5 4,1.5c0.9,0 1.9,-0.1 2.7,-0.4c0.9,-0.2 1.8,-0.6 2.6,-0.9c0.2,-0.1 0.4,-0.1 0.7,-0.1c0.4,0 0.8,0.1 1.1,0.4c0.3,0.3 0.5,0.6 0.5,1.1c0,0.7 -0.3,1.1 -0.9,1.4c-1.1,0.5 -2.1,0.9 -3.3,1.1c-1.1,0.2 -2.3,0.4 -3.4,0.4c-1.3,0 -2.5,-0.2 -3.5,-0.6c-1.1,-0.4 -2,-1 -2.7,-1.8c-0.8,-0.8 -1.3,-1.6 -1.7,-2.7c-0.4,-1 -0.6,-2.2 -0.6,-3.5l0,-7.3c0,-1.3 0.2,-2.4 0.6,-3.5c0.4,-1 1,-1.9 1.7,-2.7c0.7,-0.8 1.7,-1.3 2.7,-1.8c1.1,-0.4 2.2,-0.6 3.5,-0.6c1.3,0 2.4,0.2 3.5,0.6c1,0.4 1.9,1 2.7,1.8c0.8,0.7 1.3,1.6 1.7,2.7c0.4,1 0.6,2.2 0.6,3.5l0,2.4c0,0.6 -0.2,1.1 -0.6,1.6c-0.4,0.4 -0.9,0.6 -1.6,0.6l-11.7,0l0,0.1Zm10.8,-4.9c0,-1.7 -0.5,-3 -1.4,-4c-0.9,-1 -2.3,-1.4 -3.9,-1.4c-1.7,0 -3,0.5 -4,1.4c-1,1 -1.4,2.3 -1.4,4l0,1.9l10.7,0l0,-1.9Z" style="fill:#fff;fill-rule:nonzero;"/><path d="M193.9,28.7l-5.7,8.8c-0.3,0.5 -0.8,0.8 -1.3,0.8c-0.4,0 -0.8,-0.1 -1.1,-0.4c-0.3,-0.3 -0.5,-0.7 -0.5,-1.2c0,-0.3 0.1,-0.6 0.2,-0.8l6.5,-9.8l-6.3,-9.6c-0.2,-0.3 -0.3,-0.6 -0.3,-0.9c0,-0.4 0.2,-0.8 0.5,-1.1c0.3,-0.3 0.7,-0.5 1.1,-0.5c0.6,0 1,0.3 1.4,0.7l5.5,8.5l5.5,-8.5c0.3,-0.5 0.8,-0.7 1.3,-0.7c0.4,0 0.8,0.1 1.1,0.4c0.3,0.3 0.5,0.7 0.5,1.1c0,0.3 -0.1,0.6 -0.3,0.9l-6.3,9.6l6.5,9.8c0.2,0.3 0.2,0.5 0.2,0.8c0,0.4 -0.1,0.8 -0.4,1.1c-0.3,0.3 -0.7,0.5 -1.2,0.5c-0.6,0 -1,-0.3 -1.3,-0.8l-5.6,-8.7Z" style="fill:#fff;fill-rule:nonzero;"/><path d="M209,10c0,-0.4 0.2,-0.8 0.5,-1.1c0.3,-0.3 0.7,-0.5 1.1,-0.5c0.4,0 0.8,0.2 1.1,0.5c0.3,0.3 0.5,0.7 0.5,1.1l0,4.2l5.4,0c0.4,0 0.8,0.1 1.1,0.4c0.3,0.3 0.4,0.7 0.4,1.1c0,0.4 -0.1,0.8 -0.4,1.1c-0.3,0.3 -0.7,0.4 -1.1,0.4l-5.4,0l0,14.6c0,1 0.3,1.8 0.9,2.4c0.6,0.6 1.3,0.9 2.1,0.9c0.3,0 0.8,0 1.3,-0.1c0.5,-0.1 0.9,-0.1 1.2,-0.1c0.3,0 0.7,0.1 1,0.4c0.3,0.3 0.5,0.6 0.5,1.1c0,0.4 -0.1,0.7 -0.4,1c-0.2,0.3 -0.6,0.5 -1,0.5c-0.4,0.1 -0.9,0.1 -1.3,0.2c-0.5,0 -0.9,0.1 -1.3,0.1c-0.8,0 -1.6,-0.2 -2.4,-0.5c-0.8,-0.3 -1.4,-0.8 -1.9,-1.3c-0.5,-0.6 -1,-1.2 -1.3,-2c-0.3,-0.8 -0.5,-1.7 -0.5,-2.6l0,-21.8l-0.1,0Z" style="fill:#fff;fill-rule:nonzero;"/></g><circle cx="22.8" cy="6.4" r="1.5" style="fill:#ff3900;"/><circle cx="32.4" cy="8.9" r="4.1" style="fill:#ff3900;"/><circle cx="38.6" cy="14" r="2" style="fill:#ff3900;"/><circle cx="42.1" cy="22.7" r="4.6" style="fill:#ff3900;"/><circle cx="40.6" cy="32.3" r="3.1" style="fill:#ff3900;"/><circle cx="36" cy="37.9" r="1.5" style="fill:#ff3900;"/><circle cx="30.4" cy="41.5" r="2" style="fill:#ff3900;"/><circle cx="22.8" cy="42" r="2.5" style="fill:#ff3900;"/><circle cx="13.1" cy="38.4" r="4.1" style="fill:#ff3900;"/><circle cx="8" cy="31.3" r="2" style="fill:#ff3900;"/><circle cx="6.5" cy="24.7" r="2.5" style="fill:#ff3900;"/><circle cx="9" cy="15" r="4.1" style="fill:#ff3900;"/><circle cx="15.1" cy="8.9" r="3.1" style="fill:#ff3900;"/></svg>