<?xml version="1.0" encoding="UTF-8" standalone="no"?><!DOCTYPE svg PUBLIC "-//W3C//DTD SVG 1.1//EN" "http://www.w3.org/Graphics/SVG/1.1/DTD/svg11.dtd"><svg width="100%" height="100%" viewBox="0 0 2463 1637" version="1.1" xmlns="http://www.w3.org/2000/svg" xmlns:xlink="http://www.w3.org/1999/xlink" xml:space="preserve" xmlns:serif="http://www.serif.com/" style="fill-rule:evenodd;clip-rule:evenodd;stroke-linejoin:round;stroke-miterlimit:1.41421;"><path d="M2062.22,54.35c-2.189,-3.705 -3.446,-8.026 -3.446,-12.638c0,-13.741 11.155,-24.896 24.896,-24.896c13.74,0 24.896,11.155 24.896,24.896c0,5.702 -1.921,10.959 -5.151,15.158c11.914,20.369 39.07,66.8 101.006,172.693c2.691,-0.908 6.106,-0.866 8.992,-0.037c0,0 0.01,-0.036 97.742,-168.505c-1.166,-2.172 -1.827,-4.654 -1.827,-7.289c0,-8.525 6.921,-15.446 15.446,-15.446c8.525,0 15.446,6.921 15.446,15.446c0,4.644 -2.054,8.812 -5.303,11.644c8.19,19.773 26.035,62.84 64.877,156.596c2.623,-0.446 5.346,-0.499 8.095,-0.116c14.695,2.041 25.176,15.902 23.136,30.596c-2.036,14.695 -15.902,25.182 -30.596,23.136c-5.829,-0.803 -10.97,-3.494 -14.957,-7.334c-23.083,14.736 -75.786,48.401 -196.103,125.237c0.908,2.686 1.343,5.744 0.934,8.687c-0.178,1.265 -0.294,2.099 -0.467,3.358c-3.321,8.52 -12.475,12.822 -21.058,9.915c-4.449,-1.899 -7.817,-5.367 -9.391,-9.432c0,0 -0.021,0.005 -91.021,14.972l-10.807,74.974c3.016,1.112 5.702,3.163 7.628,6.096c5.419,7.171 3.546,17.606 -3.987,22.553c-3.893,2.948 -8.751,3.72 -13.163,2.623l-105.963,220.288c0.682,0.635 1.317,1.343 1.873,2.156c3.867,5.11 2.576,12.339 -2.723,16.331l103.943,278.468c6.018,-1.007 12.245,1.453 16.085,6.894c5.005,7.114 3.19,17.123 -3.982,22.553c-4.281,2.807 -9.354,3.431 -13.944,2.13l-87.769,168.308c2.948,1.123 5.582,3.164 7.465,6.033c4.984,6.59 3.835,15.576 -2.276,21.158l164.567,181.713c5.624,-2.838 12.13,-4.082 18.797,-3.159c17.213,2.388 29.148,18.168 26.756,35.381c-2.445,17.637 -18.22,29.573 -35.433,27.175c-0.493,-0.073 -0.981,-0.184 -1.469,-0.288l-23.141,55.093c2.639,1.934 4.353,5.056 4.353,8.575c0,5.865 -4.761,10.626 -10.626,10.626c-5.864,0 -10.626,-4.761 -10.626,-10.626c0,-5.844 4.729,-10.593 10.566,-10.625l22.964,-54.979c-6.71,-2.833 -12.161,-7.833 -15.576,-14.092l-95.743,21.069l-3.492,0c0.139,1.302 0.21,2.624 0.21,3.963c0,20.465 -16.616,37.081 -37.081,37.081c-20.466,0 -37.081,-16.616 -37.081,-37.081c0,-9.507 3.585,-18.182 9.475,-24.748l-63.422,-79.664c-0.588,0.084 -1.159,0.116 -1.742,0.063l-74.617,133.56c4.198,2.864 6.957,7.685 6.957,13.146c0,8.777 -7.126,15.902 -15.903,15.902c-8.776,0 -15.902,-7.125 -15.902,-15.902c0,-3.857 1.376,-7.396 3.665,-10.151l-47.51,-58.612l-7.602,14.433c3.333,2.916 5.44,7.2 5.44,11.973c0,8.776 -7.126,15.902 -15.902,15.902c-8.777,0 -15.903,-7.126 -15.903,-15.902c0,-8.777 7.126,-15.903 15.903,-15.903c1.568,0 3.084,0.228 4.516,0.652l8.837,-16.795l-252.541,-287.916c-3.342,1.138 -6.983,-0.121 -8.982,-3.174c-2.701,-3.567 -1.873,-8.126 1.312,-10.718l-39.32,-133.673c-4.024,1.128 -8.316,1.464 -12.67,0.861c-17.218,-2.388 -29.085,-18.588 -26.698,-35.801c0.315,-2.271 0.882,-4.454 1.642,-6.526c-18.214,-9.569 -49.587,-26.058 -103.57,-54.419c-4.832,6.343 -12.822,9.932 -21.336,8.751c-12.596,-1.752 -21.268,-13.22 -19.521,-25.811c1.668,-12.04 12.218,-20.46 24.137,-19.673c8.137,-18.609 25.04,-57.278 60.174,-137.645c-1.154,-1.017 -1.873,-1.977 -2.172,-2.869c0,0 -0.005,-0.006 -155.89,16.357c0,0.027 -0.006,0.058 -0.006,0.084c-0.876,6.301 -6.61,10.639 -12.91,9.763c-6.296,-0.87 -10.634,-6.61 -9.758,-12.905c0.823,-5.934 6.017,-10.493 11.882,-10.272l20.927,-75.031l-26.141,3.693c-3.038,8.835 -11.957,14.558 -21.562,13.22c-10.912,-1.511 -18.929,-11.604 -17.412,-22.527c1.573,-11.337 12.034,-18.87 22.946,-17.354c9.858,1.374 16.982,9.695 17.119,19.642l27.306,-3.631l0.058,-0.419l0.357,0.472l3.058,-0.431c0.446,-0.152 0.677,-0.225 0.787,-0.267l-0.787,0.267l61.171,-36.87c-0.184,-1.736 -0.735,-3.95 -0.499,-5.629c0.111,-0.839 0.656,-1.621 0.766,-2.46c2.078,-5.703 7.639,-8.782 13.457,-7.544c0,0 0.016,-0.021 63.421,-125.426c-5.141,-4.197 -8.126,-10.902 -7.166,-17.816c1.458,-10.498 11.494,-18.089 21.992,-16.631c10.492,1.453 18.083,11.495 16.625,21.987c-1.217,8.803 -8.478,15.539 -16.982,16.63c-0.031,5.01 -0.084,11.364 -0.142,19.432l47.431,0.063c0.567,-1.401 1.506,-2.686 2.854,-3.709c1.831,-1.191 4.029,-1.521 6.101,-1.128l107.044,-173.859c-0.656,-1.589 -0.955,-3.336 -0.709,-5.12c0.756,-5.414 5.934,-9.333 11.348,-8.583c2.492,0.347 4.632,1.653 6.18,3.458c14.91,-27.344 31.881,-58.459 51.182,-93.849c-3.914,-2.256 -6.248,-6.705 -5.587,-11.479c0.871,-6.296 6.61,-10.639 12.911,-9.763c6.295,0.876 10.634,6.61 9.757,12.905c-0.183,1.312 -0.587,2.534 -1.148,3.646c3.834,9.365 13.807,33.718 39.792,97.144c0,0 0.005,-0.01 55.2,-78.84c-2.298,-2.429 -3.504,-5.833 -3.006,-9.432c0.871,-6.296 6.61,-10.64 12.906,-9.763c3.058,0.425 5.655,2.004 7.413,4.233c13.32,-5.624 43.569,-18.409 112.258,-47.441l13.897,-17.339c-3.851,-4.223 -5.829,-10.004 -4.989,-16.064c1.521,-10.912 11.615,-18.923 22.952,-17.354c9.086,1.264 15.817,8.74 16.94,17.501l28.607,0.541c9.779,-4.134 20.025,-8.462 30.774,-13.006c0.032,-0.005 0.053,-0.021 0.084,-0.031c-0.036,0.01 -0.057,0.026 -0.084,0.031c0,0 0.019,-0.08 18.569,-99.341c-4.9,-3.936 -8.039,-9.978 -8.039,-16.746c0,-11.85 9.62,-21.47 21.469,-21.47c11.85,0 21.47,9.62 21.47,21.47c0,1.118 -0.086,2.216 -0.251,3.289c14.871,13.528 34.567,31.458 46.659,42.499c2.69,-3.554 10.702,-14.135 34.182,-45.17Zm-260.179,1493.7l74.981,-134.226c-0.126,-0.142 -0.263,-0.278 -0.383,-0.431c-0.326,-0.493 -0.588,-1.002 -0.808,-1.537l-119.482,-5.141c-0.792,2.335 -2.309,4.475 -4.57,6.033c-1.243,0.85 -2.623,1.422 -4.05,1.752l-5.178,73.253l49.647,61.828c2.172,-1.115 4.634,-1.743 7.241,-1.743c0.886,0 1.755,0.072 2.602,0.212Zm150.774,-55.781c6.316,-4.989 14.291,-7.967 22.957,-7.967c17.039,0 31.41,11.518 35.744,27.187l97.734,-21.496c-1.186,-4.129 -1.574,-8.588 -0.94,-13.178c0.231,-1.648 0.625,-3.237 1.097,-4.774l-218.347,-57.751l61.755,77.979Zm-216.554,-11.724l-245.558,-279.953l162.747,52.053c-0.21,2.686 0.483,5.419 2.23,7.727c2.544,4.087 7.25,5.75 11.782,5l69.14,128.951c-4.176,4.14 -4.68,10.645 -1.511,15.277c1.527,2.214 3.594,3.709 5.855,4.517l-4.685,66.428Zm383.292,-23.53c-2.975,2.419 -5.514,5.352 -7.439,8.73l-220.251,-58.259c-0.21,-1.191 -0.698,-2.324 -1.548,-3.3c-0.215,-0.33 -0.477,-0.603 -0.739,-0.902l52.315,-129.639c3.955,2.183 8.619,2.744 12.874,1.417l164.788,181.953Zm-369.164,-46.57c-0.776,0.582 -1.616,1.034 -2.476,1.333l0.105,-1.475c0.561,-0.215 1.117,-0.472 1.642,-0.818c1.028,-0.776 1.82,-1.805 2.387,-2.933l1.589,0.063c-0.687,1.506 -1.783,2.838 -3.247,3.83Zm-9.244,0.976c-1.463,-0.698 -2.759,-1.784 -3.714,-3.206c-2.392,-3.588 -2.177,-8.32 0.504,-11.415l0.692,1.301c-1.873,2.686 -2.198,6.416 -0.236,9.385c0.766,1.013 1.757,1.794 2.864,2.345l-0.11,1.59Zm15.508,-11.458c-0.299,-1.227 -0.787,-2.397 -1.474,-3.483l40.71,-46.057l76.511,54.535l-115.747,-4.995Zm-4.202,-0.183c-0.016,-0.053 -0.032,-0.111 -0.053,-0.153l0.918,-1.044c0.231,0.42 0.431,0.829 0.583,1.249l-1.448,-0.052Zm47.95,-54.461l40.233,-45.516l36.162,99.956l-76.395,-54.44Zm83.462,54.03l-38.109,-105.333l36.262,-41.025l51.712,7.408c0.126,2.953 1.007,5.902 2.743,8.556l-52.608,130.394Zm-133.773,-7.355c-0.247,-0.11 -0.498,-0.225 -0.761,-0.33l5.005,-70.855l36,25.659l-40.244,45.526Zm-7.518,-0.892l-68.268,-127.325l73.562,52.42l-5.294,74.905Zm16.998,-144.422c3.032,-0.084 6.075,-0.976 8.798,-2.765c2.324,-1.752 4.071,-3.987 5.22,-6.463l46.916,6.72l17.502,48.375l-43.155,48.816l-39.961,-28.476l4.68,-66.207Zm-84.459,0.121c-2.282,-3.311 -5.791,-5.032 -9.359,-5.205l-20.14,-102.054l98.13,84.931c-1.883,4.947 -1.453,10.655 1.653,15.392c1.988,2.634 4.585,4.538 7.46,5.656l-4.428,62.749l-71.626,-51.04c1.096,-3.473 0.65,-7.334 -1.69,-10.429Zm153,-1.538l45.868,6.579l-30.858,34.908l-15.01,-41.487Zm122.321,25.004l1.71,1.894c-3.032,0.461 -6.201,-0.194 -8.903,-1.847l0.729,-1.805c1.878,1.265 4.145,1.878 6.464,1.758Zm9.773,-18.115c3.956,5.687 2.991,12.512 -1.7,16.94l-1.353,-1.496c3.977,-3.389 4.937,-9.511 1.616,-14.353c-1.506,-1.999 -3.531,-3.373 -5.729,-4.066l0.845,-1.621c2.491,0.771 4.742,2.298 6.321,4.596Zm-22.983,8.756l2.051,0.299c0.031,0.183 0.063,0.377 0.1,0.561l-1.181,2.933c-0.53,-1.218 -0.855,-2.498 -0.97,-3.793Zm-278.248,-2.65c1.579,2.088 3.961,3.3 6.442,3.29l0.651,1.217c-3.253,0.32 -6.553,-0.976 -8.462,-3.84c-1.118,-1.669 -1.658,-3.599 -1.653,-5.483l1.422,0.451c0.068,1.485 0.567,3.001 1.6,4.365Zm15.434,-2.738l-1.211,-0.861c0.225,-1.935 -0.21,-3.976 -1.37,-5.739c-1.296,-1.721 -3.231,-2.838 -5.256,-3.195l-0.268,-1.364c2.555,0.268 4.958,1.548 6.484,3.83c1.695,2.245 2.151,4.9 1.621,7.329Zm239.678,-38.812l21.814,34.725c-0.431,0.729 -0.803,1.485 -1.102,2.277l-47.405,-6.794l26.693,-30.208Zm30.926,33.188c-0.44,0.236 -0.876,0.503 -1.301,0.818c-0.058,0.042 -0.11,0.095 -0.168,0.142l-0.965,-1.537c0.016,-0.021 0.031,-0.032 0.047,-0.042c1.128,-0.777 2.351,-1.354 3.604,-1.742l-1.217,2.361Zm-286.568,-2.775c0.378,-0.389 0.803,-0.751 1.275,-1.065l0.31,1.579l-1.585,-0.514Zm-33.901,-114.918c1.579,1.406 3.547,2.376 5.771,2.696c2.576,0.357 5.063,-0.246 7.172,-1.495l21.667,109.792c-0.242,0.142 -0.483,0.278 -0.719,0.441c-1.013,0.761 -1.878,1.658 -2.602,2.644l-166.289,-53.18l135,-60.898Zm323.848,111.214c-2.655,0.267 -5.304,1.201 -7.723,2.859l-21.908,-34.866l112.956,-127.782l-83.325,159.789Zm-69.035,2.35l-53.862,-7.728l-22.344,-61.752l46.618,-61.942l60.551,96.378l-30.963,35.044Zm-109.504,-8.855c-0.897,1.558 -2.124,2.969 -3.656,4.139c-1.941,1.332 -4.15,2.03 -6.38,2.14l0.142,-2.051c1.779,-0.194 3.573,-0.829 5.215,-1.946c1.039,-0.709 1.909,-1.6 2.607,-2.592l2.072,0.31Zm-21.593,0.792c-2.23,-3.227 -2.691,-7.193 -1.631,-10.718l1.647,1.421c-0.535,2.818 0,5.829 1.841,8.268c0.84,1.239 1.92,2.246 3.148,2.98l-0.147,2.099c-1.841,-0.918 -3.52,-2.288 -4.858,-4.05Zm22.606,-18.519l27.422,-36.425l19.605,54.183l-42.725,-6.128c0.12,-3.383 -0.756,-6.835 -2.754,-9.878c-0.478,-0.624 -1.002,-1.196 -1.548,-1.752Zm-1.186,10.854c-0.089,-2.009 -0.724,-4.04 -1.993,-5.902c-0.079,-0.121 -0.179,-0.236 -0.273,-0.357l1.117,-1.484c0.205,0.246 0.41,0.493 0.588,0.76c1.668,2.214 2.471,4.732 2.497,7.266l-1.936,-0.283Zm-6.694,-11.652l-1.201,1.6c-2.099,-0.582 -4.37,-0.545 -6.458,0.194l-0.813,-1.647c2.77,-1.091 5.77,-1.091 8.472,-0.147Zm-119.707,-93.671c0.052,-0.335 0.073,-0.666 0.089,-0.991l35.029,-15.802c3.231,2.786 7.266,4.701 11.83,5.341c1.579,0.215 3.142,0.278 4.674,0.184l51.822,104.645l-103.245,-89.358l-0.509,-2.56c0.131,-0.488 0.247,-0.971 0.31,-1.459Zm109.571,90.476l-51.134,-103.266c7.465,-2.901 13.136,-9.642 14.327,-18.199c0.137,-0.965 0.189,-1.925 0.2,-2.88l41.943,-18.923l37.342,103.224l-30.312,40.259c-3.898,-1.6 -8.31,-1.731 -12.366,-0.215Zm162.16,-9.768l-60.871,-96.882l86.509,-114.954c2.172,0.378 4.512,-0.042 6.422,-1.291c0.063,-0.042 0.115,-0.084 0.178,-0.131l85.581,61.952c-2.088,4.927 -1.747,10.86 1.459,15.76c0.084,0.11 0.183,0.205 0.267,0.32l-119.545,135.226Zm-433.781,-19.957l-39.457,-134.113c8.814,-4.633 15.414,-13.247 16.867,-23.718c1.631,-11.741 -3.604,-22.832 -12.554,-29.458c2.046,-9.076 4.024,-17.826 5.912,-26.22l169.442,146.668c-0.394,0.923 -0.682,1.904 -0.829,2.943c-0.231,1.658 -0.095,3.3 0.33,4.837l-135.493,61.107c-1.191,-1.128 -2.66,-1.831 -4.218,-2.046Zm283.158,-116.329l44.398,-20.03l37.122,59.093l-45.51,60.473l-36.01,-99.536Zm-159.993,-138.473l71.726,144.853c-2.828,3.237 -4.774,7.308 -5.42,11.924c-0.76,5.483 0.462,10.75 3.117,15.094l-32.165,14.511c-0.204,-0.331 -0.425,-0.646 -0.661,-0.945l-36.597,-185.437Zm-140.819,-10.052l121.329,-10.812c0.373,1.191 0.939,2.314 1.731,3.363c1.91,3.085 5.042,4.774 8.405,5.125l38.182,193.496c-2.697,-0.31 -5.273,0.33 -7.392,1.657l-172.138,-148.991c3.567,-15.823 6.856,-30.381 9.883,-43.838Zm351.453,125.683l117.274,-52.881l-82.03,108.979l-35.244,-56.098Zm-208.216,-134.045l101.955,23.083l47.105,130.2l-40.616,18.32c-2.513,-8.247 -9.579,-14.674 -18.734,-15.943c-5.466,-0.761 -10.723,0.451 -15.067,3.095l-77.056,-155.613c0.981,-0.928 1.789,-1.993 2.413,-3.142Zm439.112,158.802c2.67,0.441 5.582,-0.11 8.142,-1.857c4.727,-3.195 6.075,-9.858 2.518,-15.062c-2.088,-3.085 -5.829,-4.732 -9.506,-4.517l-0.682,-1.846c4.422,-0.525 8.95,1.416 11.62,5.288c4.339,5.729 2.812,13.65 -2.927,17.994c-3.027,2.088 -6.679,2.613 -10.104,1.794l0.939,-1.794Zm-8.935,-3.614c-2.224,-3.421 -2.539,-7.571 -1.211,-11.191l1.657,1.202c-0.844,2.754 -0.582,5.771 0.987,8.362l-1.433,1.627Zm-274.916,-4.696l-45.453,-125.63l25.413,5.749l63.112,100.455l-43.072,19.426Zm278.069,-12.328l0.315,0.839l-0.724,-0.525c0.131,-0.099 0.273,-0.199 0.409,-0.314Zm-1.29,-3.463c-0.194,0.121 -0.388,0.236 -0.572,0.367c-0.546,0.389 -1.054,0.808 -1.542,1.249l-86.211,-62.403c0.147,-1.915 -0.315,-3.914 -1.406,-5.577c-0.85,-1.128 -1.894,-1.947 -3.032,-2.529l-7.849,-200.656l100.612,269.549Zm-227.465,-6.442l-60.011,-95.528l180.968,40.978l-120.957,54.55Zm-410.923,-33.744c-54.923,-28.759 -85.87,-44.97 -103.292,-54.093c0.692,-1.721 1.206,-3.536 1.474,-5.461c1.568,-11.311 -5.299,-21.714 -15.854,-24.972c59.255,-136.711 59.266,-136.732 59.266,-136.732c0.845,0.121 2.098,0.289 3.001,-0.01c0.477,-0.362 0.897,-0.305 1.374,-0.667c1.857,-1.028 3.347,-2.528 4.481,-4.511c0.062,-0.42 0.12,-0.834 0.173,-1.259l135.761,-31.645c0.257,4.312 2.67,8.504 6.515,11.599c-2.854,12.612 -5.576,24.578 -8.163,35.978l-78.845,113.397c-4.727,-1.968 -10.288,-1.537 -14.836,1.658c-7.114,4.999 -8.871,14.6 -3.866,21.714c3.294,4.684 8.582,7.029 13.844,6.662l16.164,54.954c-7.14,2.251 -13.263,7.004 -17.197,13.388Zm31.005,-14.579c-2.424,-0.336 -4.811,-0.357 -7.14,-0.152l-16.337,-55.536c0.467,-0.268 0.923,-0.551 1.369,-0.861c0.126,-0.094 0.236,-0.194 0.357,-0.278l36.451,31.551c-2.686,11.846 -4.732,20.854 -6.28,27.684c-2.634,-1.159 -5.451,-1.999 -8.42,-2.408Zm255.647,-149.474c0.844,-0.766 1.605,-1.59 2.298,-2.461l232.946,136.496l-176.083,-39.871l-59.161,-94.164Zm5.666,-8.347c2.245,-5.949 1.862,-12.764 -1.396,-18.43l97.039,-80.791c4.832,6.61 12.229,11.332 21.011,12.549c6.684,0.928 13.199,-0.31 18.823,-3.159l107.106,231.971l-242.583,-142.14Zm231.745,-71.128c1.584,2.319 3.955,3.888 6.558,4.611l7.832,200.164l-104.913,-227.229c5.907,-4.805 10.109,-11.693 11.232,-19.793c1.364,-9.821 -2.067,-19.322 -8.452,-26.121l6.406,-5.33l79.868,62.592c-1.38,3.636 -1.028,7.806 1.469,11.106Zm-508.592,161.63l40.6,-3.615c-3.394,14.963 -6.253,27.543 -8.661,38.166l-33.697,-29.174c0.918,-1.689 1.506,-3.504 1.758,-5.377Zm-24.038,4.055c1.873,2.776 4.942,4.376 8.121,4.496l0.509,1.732c-3.877,0.083 -7.66,-1.648 -10.062,-5.142c-3.925,-5.676 -2.87,-13.225 2.806,-17.155c3.405,-2.345 7.46,-2.744 11.012,-1.474l-1.128,1.611c-2.906,-0.85 -6.154,-0.483 -8.803,1.301c-4.722,3.2 -5.65,9.92 -2.455,14.631Zm295.13,-73.609l49.917,79.443l-23.057,-5.215l-26.86,-74.228Zm-279.89,77.801c-0.037,0.032 -0.073,0.063 -0.115,0.073l-0.063,-0.225l0.178,0.152Zm5.272,-7.943c-0.173,0.966 -0.467,1.905 -0.86,2.797l-1.39,-1.207c0.178,-0.462 0.32,-0.934 0.43,-1.422l1.82,-0.168Zm181.561,-142.36l59.565,36.072c-2.571,6.38 -2.03,13.976 2.041,19.994c4.973,7.313 13.54,10.455 21.509,8.892l28.943,79.999l-97.736,-22.134c-0.137,-2.119 -0.85,-4.212 -2.219,-6.022c-3.5,-5.614 -11.059,-6.668 -16.678,-3.174c-2.245,1.7 -3.788,4.039 -4.528,6.568l-119.712,10.666c3.494,-15.482 6.631,-29.39 9.448,-41.865l119.367,-88.996Zm-127.604,95.118c-3.037,13.373 -5.776,25.465 -8.257,36.377l-42.778,3.804c-0.183,-0.551 -0.409,-1.107 -0.655,-1.647l51.69,-38.534Zm128.149,37.715c-2.25,-0.451 -4.37,-1.804 -5.965,-3.924c-0.451,-0.677 -0.802,-1.406 -1.07,-2.14l1.621,-0.142c0.22,0.551 0.488,1.107 0.829,1.621c1.081,1.432 2.613,2.419 4.265,2.933l0.32,1.652Zm7.932,-4.197l0.593,1.202c0.326,-0.326 0.614,-0.688 0.876,-1.055l-1.337,-0.309l-0.132,0.162Zm-133.772,-43.695l-53.559,39.918l66.071,-95.035c-4.617,20.334 -8.772,38.633 -12.512,55.117Zm134.098,33.969c-2.524,-3.352 -7.508,-4.47 -10.855,-1.936c-1.122,0.74 -1.941,1.721 -2.513,2.817l-1.846,0.163c0.635,-1.579 1.705,-2.98 3.216,-3.998c4.249,-2.827 10.125,-2.02 13.377,2.288c0.819,1.227 1.291,2.591 1.448,3.976l-1.584,-0.357c-0.226,-1.028 -0.635,-2.035 -1.243,-2.953Zm-74.801,-156.373c1.422,0.425 2.917,0.487 4.371,0.146l55.368,33.529l-110.826,82.606c6.432,-28.492 11.022,-48.842 14.296,-63.363l36.791,-52.918Zm133.7,89.662c2.927,4.208 7.937,6.301 12.921,5.865l0.902,2.503c-6.054,0.876 -12.37,-1.621 -16.158,-6.978c-3.006,-4.585 -3.473,-10.235 -1.794,-15.088l2.077,1.26c-1.211,3.992 -0.655,8.577 2.052,12.438Zm21.672,1.695c0,-0.005 0.005,-0.005 0.01,-0.011l2.078,1.217c-0.247,0.299 -0.514,0.583 -0.787,0.861l-1.301,-2.067Zm5.377,-4.722l-2.083,-1.227c0.913,-3.3 0.619,-6.862 -1.038,-10.005l2.093,-1.747c2.151,3.966 2.408,8.698 1.028,12.979Zm-27.7,-16.499c0.708,-0.756 1.495,-1.443 2.366,-2.057c2.964,-2.098 6.369,-3.074 9.732,-3.048l-0.493,2.33c-2.671,0.084 -5.372,0.934 -7.796,2.628c-0.619,0.425 -1.175,0.908 -1.695,1.422l-2.114,-1.275Zm18.729,-3.683c1.238,0.546 2.424,1.222 3.52,2.067l-1.967,1.637c-0.656,-0.498 -1.338,-0.944 -2.067,-1.317l0.514,-2.387Zm-5.645,-6.033c-4.564,-0.194 -9.217,1.044 -13.189,3.893c-1.458,0.986 -2.728,2.156 -3.835,3.436l-57.236,-34.656l76.826,-57.268c6.673,-0.871 11.882,-1.542 15.958,-2.067l-18.524,86.662Zm110.899,-76.61l-98.019,81.61c-1.884,-1.585 -3.993,-2.828 -6.233,-3.667l18.997,-88.923c7.355,-0.95 7.365,-0.955 7.365,-0.955c1.522,4.485 4.895,7.953 9.753,9.91c8.163,2.843 17.737,-1.39 20.638,-9.973c0.541,-0.782 0.714,-2.041 0.887,-3.3c0.813,-5.876 -1.422,-11.321 -6.054,-14.957c-0.362,-0.477 -1.201,-0.593 -1.558,-1.075c-0.782,-0.536 -1.978,-1.134 -2.823,-1.249c-0.781,-0.535 -1.201,-0.598 -2.035,-0.708c0.037,-3.987 0.073,-7.812 0.115,-11.505l52.772,-39.336c1.222,0.713 2.617,1.107 4.039,1.133l19.002,41.156c-9.978,4.224 -17.57,13.509 -19.164,24.988c-0.829,5.96 0.089,11.731 2.318,16.851Zm-449.944,45.112c-0.058,0.425 -0.116,0.839 -0.179,1.259c-108.491,11.384 -144.113,15.119 -155.812,16.347c-0.724,-2.272 -2.093,-4.286 -3.934,-5.745l21.913,-78.089l0.477,-0.362l-0.362,-0.477l0.593,-1.202l61.648,-37.227c1.086,1.438 2.65,2.508 4.69,3.221c2.875,0.829 5.462,0.761 8.153,-0.157l64.413,100.087c-0.955,0.724 -1.065,1.558 -1.6,2.345Zm164.305,-12.281c3.169,0.613 6.385,0.325 9.291,-0.745l-13.509,19.426c4.213,-18.666 4.218,-18.681 4.218,-18.681Zm39.147,-22.937c60.714,-7.859 99.573,-12.884 124.429,-16.1l-69.36,51.696l-55.693,-33.723c0.273,-0.603 0.493,-1.233 0.624,-1.873Zm-189.073,33.366l138.39,-32.143c1.248,-2.823 2.911,-5.588 5.304,-7.392l-23.86,-46.959l-54.749,-6.316l-65.085,92.81Zm-9.908,-2.852c-0.001,-0.016 -0.002,-0.032 -0.002,-0.049c0,0.017 0.001,0.033 0.002,0.049l0.002,0.033c0,0.013 0.001,0.026 0.001,0.04l0,-0.017l-0.001,-0.023l-0.001,-0.011l-0.001,-0.022Zm5.643,-0.327c-0.005,0.005 -0.005,0.01 -0.01,0.01c0.005,0 0.005,0 0.01,-0.01Zm0.073,-0.099c0.102,-0.147 0.191,-0.281 0.273,-0.4c-0.082,0.114 -0.172,0.252 -0.273,0.4l-0.047,0.067c0.016,-0.022 0.032,-0.045 0.047,-0.067Zm-5.744,-0.415c0,-0.189 -0.005,-0.362 -0.01,-0.509c0.005,0.141 0.01,0.315 0.01,0.509Zm7.14,-96.83l-0.068,-0.01c0.023,0.004 0.045,0.007 0.068,0.01c0.165,0.024 0.273,0.039 0.343,0.048l0.063,0.01l0.071,0.011l-0.881,95.722c0,0 -0.01,0.016 -0.587,0.86c0.152,-0.215 0.335,-0.488 0.587,-0.86l62.404,-88.897l-61.522,-6.825l-0.001,0l0.001,-0.005c0,0 -0.003,0.002 -0.135,-0.016c-0.118,-0.017 -0.23,-0.032 -0.343,-0.048Zm-7.174,95.422c0,-0.016 0.001,-0.029 0.003,-0.04c-0.002,0.01 -0.003,0.023 -0.003,0.04c0,0.027 0.003,0.059 0.003,0.096c0,-0.036 -0.002,-0.07 -0.003,-0.096Zm-62.973,-98.312c1.432,-1.086 2.508,-2.644 2.739,-4.328c0,0 0.058,-0.42 0.477,-0.357l60.688,6.715l-0.939,96.147l-62.965,-98.177Zm650.895,92.065c1.013,1.17 2.225,2.036 3.526,2.608l0.057,1.532c-1.799,-0.593 -3.41,-1.726 -4.543,-3.416c-1.626,-2.439 -2.046,-5.403 -1.306,-8.037l1.165,0.913c-0.483,2.12 -0.2,4.423 1.101,6.4Zm12.848,2.298l-0.456,-1.217c2.754,-2.665 3.079,-7.014 0.876,-10.366c-0.116,-0.184 -0.268,-0.326 -0.399,-0.493l0.583,-1.212c0.272,0.304 0.54,0.634 0.771,0.986c3.027,3.992 2.166,9.301 -1.375,12.302Zm-439.93,-5.099l0.236,-1.679c5.393,1.175 10.96,-1.904 12.497,-6.825c0.54,-0.782 0.656,-1.621 0.771,-2.461c0.226,-1.678 0.047,-3.415 -0.619,-4.795l2.156,-0.126c0.603,1.795 0.792,3.536 0.561,5.215c-0.115,0.84 -0.713,2.041 -0.828,2.88c-2.136,6.123 -8.599,9.506 -14.774,7.791Zm-8.142,-12.26c0.074,2.581 1.034,4.852 2.487,6.767l-0.714,2.041c-2.287,-2.03 -3.556,-5.204 -3.567,-8.2l1.794,-0.608Zm440.234,1.154c0.798,-0.152 1.6,-0.21 2.393,-0.142l-0.64,1.338c-0.331,0 -0.656,0.042 -0.981,0.079l-0.772,-1.275Zm-409.743,-6.06l-3.258,4.685c0,-1.374 -0.162,-2.775 -0.519,-4.197c1.28,-0.162 2.518,-0.325 3.777,-0.488Zm413.363,3.353c-1.694,-0.315 -3.436,-0.231 -5.104,0.241l-47.588,-78.939c1.547,-1.663 2.623,-3.804 2.958,-6.238c0.263,-1.894 0.048,-3.73 -0.545,-5.409l156.079,-129.953c0.042,0.031 0.079,0.068 0.116,0.099l-105.916,220.199Zm-87.501,-59.35l20.707,-17.25c1.248,0.714 2.639,1.207 4.155,1.422c1.395,0.194 2.759,0.115 4.055,-0.163l44.157,73.268l-73.074,-57.277Zm-353.751,51.428l1.086,1.432l-0.472,0.357l-3.116,0.85c0.587,-1.196 1.542,-1.915 2.502,-2.639Zm15.938,-0.787l-2.633,0.488c-0.42,-0.058 -0.834,-0.115 -1.196,-0.593l-0.42,-0.058l0.656,-1.621l0.419,0.058c1.191,0.598 2.398,1.196 3.174,1.726Zm-8.929,-0.378c0,0 0,-0.005 -0.01,-0.021c0.005,0.016 0.01,0.021 0.01,0.021Zm-0.08,-0.137c-0.014,-0.024 -0.03,-0.054 -0.051,-0.088c0.021,0.034 0.037,0.064 0.051,0.088l0.02,0.034c0.009,0.016 0.016,0.03 0.024,0.04c-0.008,-0.01 -0.015,-0.024 -0.024,-0.04l-0.014,-0.023l-0.006,-0.011Zm13.804,-0.099c-1.867,-1.972 -4.212,-3.583 -6.668,-4.349c1.385,-3.336 2.634,-6.363 3.793,-9.16l8.468,12.785l-5.593,0.724Zm-14.012,-0.278c-0.11,-0.194 -0.257,-0.461 -0.457,-0.829c0.205,0.368 0.352,0.63 0.457,0.829Zm-0.671,-1.219c0.019,0.033 0.035,0.064 0.052,0.097c-0.017,-0.033 -0.033,-0.064 -0.052,-0.097c-0.004,-0.006 -0.008,-0.013 -0.012,-0.019l0.012,0.019Zm-0.059,-0.103c-0.005,-0.01 -0.005,-0.016 -0.005,-0.021c-0.005,0.005 0,0.011 0.005,0.021Zm41.587,-39.609c81.117,9.255 119.86,13.667 138.358,15.776l-6.673,4.973c-77.004,9.936 -116.597,15.046 -136.957,17.669c-0.824,-1.149 -1.926,-2.04 -3.169,-2.623l8.441,-35.795Zm-65.042,-7.313c4.968,0.583 9.317,1.097 13.136,1.543l17.564,26.509c-6.305,15.109 -6.316,15.13 -6.316,15.13c-0.839,-0.116 -1.736,0.188 -2.634,0.493l-21.75,-43.675c0,0 -0.005,0 -0.278,-0.021c0.094,0.005 0.178,0.011 0.278,0.021Zm38.444,27.459c9.165,-22.108 9.17,-22.134 9.17,-22.134c3.631,0.415 7.161,0.813 10.639,1.212l-8.619,36.545c-0.215,0.105 -0.42,0.21 -0.624,0.325l-10.566,-15.948Zm196.643,2.177c1.327,2.749 3.614,4.779 6.075,5.55c5.703,2.073 12.103,-0.886 14.123,-6.174c0.11,-0.84 0.225,-1.679 0.346,-2.513c0.525,-3.778 -1.112,-7.434 -3.756,-9.937c-0.425,-0.057 -0.782,-0.535 -1.621,-0.655c-0.357,-0.478 -0.782,-0.535 -1.564,-1.071l-0.189,-1.741c0.42,0.057 0.42,0.057 0.84,0.115c0.839,0.121 1.621,0.656 1.983,1.133c0.839,0.116 1.201,0.593 1.621,0.651c3.426,3.048 5.362,7.591 4.779,11.793c-0.115,0.84 -0.294,2.099 -0.829,2.88c-2.193,6.542 -9.49,9.811 -16.452,7.555c-3.242,-1.306 -5.891,-3.809 -7.161,-6.983l1.805,-0.603Zm-24.636,-3.347l2.791,-2.083c1.574,0.184 2.806,0.325 3.751,0.436l-0.179,0.828c-2.145,0.279 -4.27,0.551 -6.363,0.819Zm17.827,-0.569c-0.567,-0.051 -1.089,-0.098 -1.585,-0.139c0.792,0.071 1.282,0.114 1.585,0.139l0.487,0.044c-0.028,-0.005 -0.124,-0.013 -0.487,-0.044Zm4.611,-4.945c1.841,-4.024 4.826,-7.035 8.777,-7.769l0.188,1.736c-3.168,1.275 -6.038,3.442 -6.925,6.741l-2.098,-0.288l0.058,-0.42Zm-8.011,-0.561l1.185,-5.556l15.791,-11.778l-0.078,6.291c-5.273,0.981 -10.11,5.015 -12.129,10.298c-0.053,0.42 -0.111,0.839 -0.174,1.264c-1.558,-0.183 -3.069,-0.351 -4.595,-0.519Zm-184.456,-15.461c-2.587,6.207 -4.753,11.395 -6.574,15.76l-11.882,-17.932c18.435,2.172 18.456,2.172 18.456,2.172Zm84.873,-105.894c0.173,-1.222 0.272,-2.429 0.341,-3.641c86.011,2.99 106.314,3.704 111.103,3.861l6.018,4.963l-22.8,106.697l-10.388,7.749c-84.741,-9.548 -124.618,-14.039 -143.357,-16.148l15.345,-65.095c21.751,-0.141 40.658,-16.21 43.738,-38.386Zm-404.545,117.992c-0.026,-0.016 -0.073,-0.031 -0.147,-0.058c0.079,0.027 0.121,0.042 0.147,0.058Zm-0.336,-0.136c-0.157,-0.069 -0.377,-0.158 -0.692,-0.278c0.309,0.12 0.535,0.215 0.692,0.278Zm-1.224,-0.498c0.001,0.004 0.002,0.004 0.002,0.004c0,0 -0.001,0 -0.002,-0.004Zm328.419,-10.892c-0.005,0 -0.011,-0.005 -0.016,0l0.016,0Zm-0.079,-0.01c-0.026,0 -0.063,0 -0.11,-0.006c0.042,0.006 0.079,0.006 0.11,0.006Zm-1.016,-0.078c-0.188,-0.015 -0.409,-0.033 -0.668,-0.054c0.216,0.02 0.438,0.037 0.668,0.054c0.429,0.035 0.688,0.056 0.848,0.067c-0.296,-0.025 -0.578,-0.046 -0.848,-0.067Zm-2.627,-0.208c-0.405,-0.033 -0.855,-0.07 -1.356,-0.108c0.378,0.03 0.827,0.066 1.356,0.108c0.379,0.03 0.719,0.058 1.025,0.081l-1.025,-0.081Zm-2.55,-0.203c0.154,0.013 0.333,0.027 0.543,0.043c-0.21,-0.016 -0.389,-0.03 -0.543,-0.043l-0.211,-0.017l0.211,0.017Zm186.872,-0.23l14.511,-67.907c-0.393,29.767 -0.619,47.321 -0.755,57.651l-13.756,10.256Zm86.206,-42.001l46.009,36.057l-6.175,5.136c-3.914,-2.691 -8.457,-4.575 -13.43,-5.257c-3.321,-0.461 -6.59,-0.362 -9.722,0.205l-16.682,-36.141Zm-251.944,7.207c-3.82,9.084 -8.1,19.26 -12.895,30.665l0.156,0.017c0.464,0.052 2.315,0.26 9.697,1.09l13.183,-55.882l-10.141,24.11Zm-12.984,30.655c-0.021,-0.006 -0.037,0 -0.063,0l0.063,0Zm-0.257,-0.016c-0.157,-0.016 -0.309,-0.026 -0.456,-0.037c0.147,0.005 0.299,0.021 0.456,0.037Zm-3.425,-0.261c-0.13,-0.01 -0.254,-0.019 -0.373,-0.028c0.119,0.009 0.243,0.018 0.373,0.028l0.325,0.024l0.389,0.03l0.206,0.017c0.069,0.005 0.14,0.011 0.212,0.017c-0.072,-0.006 -0.143,-0.012 -0.212,-0.017l-0.206,-0.017l-0.087,-0.006l-0.302,-0.024l-0.325,-0.024Zm-2.661,-0.206c0.111,0.005 0.263,0.021 0.457,0.037c-0.194,-0.016 -0.346,-0.027 -0.457,-0.037Zm-34.523,-108.651c-0.429,0.608 -3.848,5.46 -31.101,44.181l40.747,61.501c6.175,0.739 14.159,1.699 24.526,2.943l0.42,-1.005c1.259,-3.013 6.291,-15.064 26.409,-63.256c-19.243,-5.246 -32.768,-23.204 -32.479,-43.454c-8.111,-0.283 -17.496,-0.614 -28.461,-0.997l-0.061,0.087Zm-12.2,108.37l-0.581,-0.05c0.203,0.018 0.397,0.035 0.581,0.05c0.738,0.063 1.599,0.137 2.603,0.223c-0.53,-0.05 -1.352,-0.116 -2.603,-0.223Zm-3.157,-0.272l-0.32,-0.029c0.097,0.009 0.203,0.019 0.32,0.029l0.13,0.012c0.706,0.064 1.335,0.115 1.9,0.163c-0.819,-0.069 -1.435,-0.121 -1.9,-0.163l-0.1,-0.009l-0.03,-0.003Zm-1.018,-0.082c-0.016,0 -0.032,0 -0.042,-0.005c0.01,0 0.026,0 0.042,0.005Zm-0.269,-0.024c0.023,0.003 0.042,0.003 0.07,0.003c-0.023,0 -0.042,0 -0.068,-0.003l-0.011,-0.002l0.009,0.002Zm-18.883,-57.512c-0.571,0.805 -1.131,1.601 -1.723,2.446c0,-0.003 -0.001,-0.007 -0.002,-0.01l0.002,0.01l25.974,50.243c0,0 0.021,0.005 12.093,1.448l-36.099,-54.482l-0.245,0.345Zm23.994,52.673c0.074,0.005 0.131,0.01 0.21,0.021c-0.073,-0.011 -0.136,-0.016 -0.21,-0.021Zm-1.588,-0.142c-0.487,-0.043 -1.102,-0.096 -1.88,-0.162c0.556,0.048 1.182,0.101 1.88,0.162c0.67,0.058 1.097,0.097 1.368,0.121c-0.483,-0.044 -0.939,-0.084 -1.368,-0.121Zm391.81,-18.068l-21.556,17.948l-52.058,-40.8c0.603,-2.287 0.231,-4.811 -1.16,-6.684l34.683,-52.021l41.707,69.197c-1.353,1.601 -2.298,3.594 -2.607,5.85c-0.325,2.319 0.063,4.554 0.991,6.51Zm-397.944,17.528c0.461,0.042 1.4,0.121 3.242,0.289c-0.897,-0.084 -1.973,-0.179 -3.242,-0.289Zm-0.221,-0.021c-0.11,-0.011 -0.178,-0.016 -0.209,-0.021c0.031,0.005 0.094,0.01 0.209,0.021Zm-48.866,-5.485c0.049,0.008 0.099,0.016 0.156,0.024l48.453,5.44l-21.813,-43.255c0,-0.005 -0.006,-0.01 -0.006,-0.01c0,0 0.006,0.005 0.006,0.01l-26.64,37.815c0,0 -0.011,-0.003 -0.156,-0.024c-0.077,-0.013 -0.149,-0.024 -0.233,-0.034c0.102,0.015 0.178,0.026 0.233,0.034Zm-3.108,4.703c-0.068,-0.005 -0.236,-0.031 -0.64,-0.089c0.205,0.026 0.41,0.058 0.64,0.089Zm-1.441,-0.201c0.137,0.019 0.262,0.035 0.376,0.049c-0.152,-0.018 -0.324,-0.042 -0.518,-0.069l0.142,0.02Zm-2.834,-0.395c-0.142,-0.019 -0.289,-0.038 -0.441,-0.059c0.076,0.01 0.151,0.02 0.224,0.03l0.217,0.029c0.141,0.019 0.278,0.038 0.409,0.056c-0.131,-0.018 -0.268,-0.037 -0.409,-0.056Zm-1.286,-0.176l0.143,0.019c-0.094,-0.013 -0.19,-0.026 -0.289,-0.039l0.146,0.02Zm365.943,-39.314l-48.742,36.335c0.498,-49.324 0.708,-70.488 0.803,-79.558l47.992,39.514c-0.278,1.222 -0.32,2.476 -0.053,3.709Zm-358.587,35.202c0.11,0.016 0.241,0.026 0.356,0.047c-0.115,-0.021 -0.252,-0.031 -0.356,-0.047Zm-2.393,-0.33c0.278,0.036 0.614,0.084 1.002,0.136c-0.388,-0.058 -0.724,-0.1 -1.002,-0.136Zm-0.928,-0.137c0.052,0.011 0.131,0.021 0.189,0.032c-0.058,-0.011 -0.137,-0.016 -0.189,-0.032Zm-0.573,-0.076c-0.012,-0.002 -0.022,-0.002 -0.031,-0.002c0.009,0 0.019,0 0.031,0.002c0.017,0.002 0.039,0.005 0.064,0.008c-0.025,-0.003 -0.047,-0.006 -0.064,-0.008Zm-64.7,-58.618l-0.693,51.25l65.299,7.355l29.384,-42.137l-21.808,-43.25c-2.639,0.488 -5.215,0.561 -8.037,-0.687c-3.242,-1.307 -5.949,-3.395 -8.121,-6.264l-56.024,33.733Zm-1.149,56.323c-0.278,-0.037 -0.703,-0.095 -1.312,-0.184c0.603,0.089 1.034,0.147 1.312,0.184Zm-3.517,-0.489l-0.392,-0.057c0.135,0.02 0.265,0.039 0.392,0.057c0.552,0.079 1.025,0.145 1.439,0.2c-0.41,-0.055 -0.886,-0.121 -1.439,-0.2Zm-0.465,-0.062c-0.75,-0.105 -1.233,-0.168 -1.548,-0.215c0.562,0.079 1.086,0.147 1.548,0.215Zm-2.039,-0.281l0.112,0.016c0.019,0.003 0.038,0.005 0.059,0.008c-0.084,-0.01 -0.147,-0.026 -0.231,-0.031l0.06,0.007Zm-69.64,-1.545c-1.799,0.604 -3.956,0.74 -5.939,-0.393c-1.259,-0.178 -2.46,-0.766 -3.184,-1.726l1.38,-0.666c0.356,0.477 1.563,1.075 2.402,1.196c1.616,0.656 2.881,0.823 4.675,0.22l0.666,1.369Zm76.023,-2.701c-0.016,-0.006 -0.037,0 -0.058,0l0.058,0Zm-0.257,-0.016c-0.111,-0.005 -0.257,-0.021 -0.452,-0.037c0.189,0.016 0.341,0.026 0.452,0.037Zm-71.113,-3.053l1.26,0.173c-0.174,1.259 -1.128,1.983 -1.663,2.764l-0.667,-1.374c0.472,-0.362 0.535,-0.776 1.07,-1.563Zm68.82,2.88c-0.425,-0.032 -0.923,-0.074 -1.506,-0.116c0.583,0.042 1.086,0.079 1.506,0.116Zm-3.788,-0.289c0.11,0.005 0.257,0.021 0.451,0.032c-0.194,-0.016 -0.341,-0.027 -0.451,-0.032Zm-0.204,-0.016c-0.021,-0.005 -0.042,-0.005 -0.058,0l0.058,0Zm-60.846,-9.721c0.305,0.887 0.609,1.794 0.493,2.629l60.206,7.082l0.477,-46.581l-61.176,36.87Zm-20.486,2.718c0.121,-0.84 0.178,-1.254 0.299,-2.099c1.422,-4.076 5.603,-6.494 9.805,-5.907l-0.598,1.201c-3.415,-0.047 -6.699,2.067 -8.011,5.31c-0.058,0.414 -0.173,1.253 -0.236,1.678c-0.115,0.84 -0.226,1.679 0.074,2.576l-1.438,1.086c-0.247,-1.327 -0.068,-2.586 0.105,-3.845Zm18.157,-1.333c-0.058,0.42 0.31,0.903 0.31,0.903l-1.679,-0.236l1.369,-0.667Zm-2.619,-2.556c-0.001,0.002 -0.003,0.005 -0.004,0.007c0.003,-0.004 0.006,-0.009 0.009,-0.015l-0.005,0.008Zm0.426,-0.859c-0.042,0.079 -0.094,0.189 -0.157,0.31c0.063,-0.121 0.115,-0.226 0.157,-0.31Zm64.696,-127.766c0.651,0.226 1.317,0.409 2.004,0.562c-1.018,86.362 -1.023,86.368 -1.023,86.368l-63.982,38.617c0.057,-0.42 0.057,-0.42 -0.362,-0.478c44.781,-88.387 58.909,-116.266 63.363,-125.069Zm536.853,119.818c-1.584,-0.22 -3.132,-0.11 -4.574,0.273l-43.276,-71.794l60.52,-90.786l146.642,27.475c0.036,2.439 0.613,4.863 1.752,7.077l-155.912,129.806c-1.474,-1.059 -3.216,-1.789 -5.152,-2.051Zm-432.205,-9.609c0.006,0.017 0.012,0.031 0.024,0.05c-0.002,-0.006 -0.005,-0.012 -0.008,-0.018l-0.015,-0.032c-0.003,-0.005 -0.006,-0.011 -0.008,-0.018l0.007,0.018Zm-0.204,-0.385c0.037,0.069 0.075,0.139 0.113,0.21c-0.076,-0.142 -0.151,-0.279 -0.224,-0.413l0.111,0.203Zm-1.87,-3.494c-0.215,-0.393 -0.347,-0.65 -0.436,-0.808c0.089,0.158 0.226,0.415 0.436,0.808Zm-0.509,-0.96c-0.016,-0.037 -0.032,-0.058 -0.047,-0.079c0.01,0.021 0.026,0.042 0.047,0.079Zm-0.068,-0.115c-0.006,-0.006 -0.006,-0.011 -0.006,-0.011c0.006,0 0.006,0 0.006,0.011Zm6.951,-1.296c-0.021,-0.042 -0.037,-0.079 -0.058,-0.116c0.021,0.042 0.037,0.074 0.058,0.116Zm-0.71,-1.552c0.184,0.405 0.389,0.86 0.626,1.368c-0.102,-0.231 -0.294,-0.643 -0.626,-1.368c-0.048,-0.105 -0.095,-0.207 -0.14,-0.305l0.14,0.305Zm313.068,-70.379c12.559,-9.522 23.933,-18.152 34.294,-26.01l25.371,42.09l-36.513,54.765c-0.158,-0.032 -0.315,-0.042 -0.478,-0.063l-22.674,-70.782Zm-313.323,69.827c-0.677,-1.485 -0.997,-2.188 -1.144,-2.513c0.483,1.055 0.855,1.873 1.144,2.513Zm280.624,-40.013c1.243,-0.933 2.213,-2.088 2.712,-3.31c0.11,-0.839 0.173,-1.259 0.283,-2.098c0.063,-0.42 0.179,-1.26 0.294,-2.094c8.31,-6.306 16.184,-12.276 23.681,-17.963l20.744,64.754l-47.714,-39.289Zm-281.8,37.427c-0.031,-0.069 -0.057,-0.121 -0.068,-0.152c0.011,0.031 0.037,0.089 0.068,0.152Zm-0.087,-0.259c0.069,-0.096 0.339,-0.481 1.409,-2.008l-10.691,-16.132c1.861,3.652 4.038,7.926 6.586,12.926l2.673,5.247c0,0.005 0.005,0.011 0.011,0.021c0,-0.005 -0.006,-0.01 -0.011,-0.021l0.023,-0.033Zm-105.718,-6.425c0,0.016 0,0.042 0,0.063c-0.005,-0.021 0,-0.047 0,-0.063Zm91.725,-40.836c0.535,-0.787 0.655,-1.621 0.771,-2.461l46.817,1.789c-15.12,21.578 -23.424,33.429 -28.004,39.96l-22.627,-34.147c1.401,-1.448 2.513,-3.179 3.043,-5.141Zm-84.729,36.957c-0.001,0.013 -0.001,0.026 -0.003,0.039c0.002,-0.013 0.002,-0.026 0.003,-0.039l0,-0.018l0,0.018Zm-0.019,-1.483l-0.01,-0.645c0.002,0.203 0.006,0.418 0.01,0.645c0.008,0.624 0.012,0.995 0.016,1.212c-0.003,-0.439 -0.01,-0.842 -0.016,-1.212Zm-6.998,0.058c0,-0.021 0,-0.042 0,-0.063c0,0.021 -0.005,0.042 0,0.063Zm6.945,-3.475c0.005,0.325 0.011,0.821 0.022,1.571c-0.004,-0.458 -0.013,-0.978 -0.022,-1.571c-0.001,-0.116 -0.003,-0.21 -0.004,-0.286l0.004,0.286Zm-0.009,-0.504c-0.001,-0.023 -0.001,-0.041 -0.002,-0.056l0.001,0.016l0.001,0.04Zm0.414,-56.237l47.641,0.069c0.194,0.409 0.383,0.813 0.645,1.201c2.099,2.775 5.299,4.097 8.362,3.52l1.438,2.188c-1.815,1.652 -3.263,3.735 -4.181,6.196c-0.173,1.259 -0.766,2.465 -0.945,3.719c-0.288,2.099 0.263,4.318 0.808,6.532l-54.177,32.704c0.168,-23.949 0.304,-42.2 0.409,-56.129Zm65.41,28.891c1.621,0.656 2.88,0.834 3.719,0.944l1.028,1.858c-1.741,0.188 -3.415,-0.048 -5.036,-0.703c-2.88,-0.829 -4.748,-2.791 -6.196,-4.706l1.433,-1.086c1.453,1.915 3.011,2.985 5.052,3.693Zm14.122,-6.169c0.058,-0.42 0.058,-0.42 0.116,-0.845l2.098,0.299c-0.057,0.42 -0.535,0.782 -0.593,1.201c-0.403,1.286 -1.028,2.419 -1.799,3.426l-1.133,-1.71c0.535,-0.724 1.007,-1.49 1.311,-2.371Zm179.404,-79.061l98.456,81.059c-52.357,-1.705 -83.756,-2.728 -102.584,-3.347c-1.107,-11.877 -7.015,-22.558 -16.001,-29.892c7.643,-18.158 14.317,-33.991 20.129,-47.82Zm67.288,-27.521c43.465,106.188 43.475,106.214 43.475,106.214c-0.813,0.614 -1.322,1.291 -1.82,2.214l-106.194,-87.428c1.831,-4.343 3.568,-8.477 5.22,-12.402l59.319,-8.598Zm-194.23,107.867c0,-0.005 0.006,-0.011 0.006,-0.016c0,0 -0.006,0.011 -0.006,0.016Zm5.991,-0.026c0,-0.006 0.006,-0.011 0.011,-0.016c0,0.005 -0.005,0.01 -0.011,0.016Zm0.048,-0.063c0.015,-0.016 0.031,-0.037 0.047,-0.063c-0.016,0.021 -0.032,0.042 -0.047,0.063Zm-5.971,-0.009c-0.002,0.003 -0.003,0.006 -0.005,0.009c0.002,-0.003 0.003,-0.006 0.005,-0.009l0.006,-0.01l-0.006,0.01Zm6.341,-0.507c0.058,-0.077 0.113,-0.153 0.165,-0.229c-0.054,0.075 -0.109,0.152 -0.165,0.229c-0.042,0.056 -0.085,0.112 -0.129,0.169c0.045,-0.055 0.087,-0.112 0.129,-0.169Zm-6.073,0.133c0.042,-0.063 0.089,-0.126 0.136,-0.189c-0.052,0.063 -0.094,0.126 -0.136,0.189Zm9.294,-4.596l0.511,-0.708c-0.137,0.189 -0.305,0.422 -0.511,0.708l-0.18,0.249l-0.209,0.289c-0.608,0.841 -1.457,2.019 -2.641,3.664c0.455,-0.63 1.253,-1.741 2.641,-3.664l0.389,-0.538Zm-8.504,3.504c-0.139,0.192 -0.284,0.393 -0.433,0.604c0.149,-0.211 0.294,-0.412 0.433,-0.604Zm-71.85,-10.66c-0.897,0.992 -1.642,2.13 -2.088,3.405c-0.535,0.782 -0.65,1.621 -0.766,2.461c-0.115,0.844 0.189,1.741 0.011,3l-1.432,1.086c-0.609,-1.794 -0.436,-3.058 -0.263,-4.317c0.174,-1.259 0.289,-2.104 0.41,-2.943c0.666,-1.747 1.699,-3.232 2.953,-4.465l1.175,1.773Zm310.292,8.447c-0.1,-1.259 -0.184,-2.403 -0.268,-3.431c0.142,1.857 0.22,2.88 0.268,3.431Zm-236.593,-0.357c0.483,-0.661 0.834,-1.149 1.091,-1.506c-0.257,0.357 -0.608,0.845 -1.091,1.506Zm249.241,-2.03c-0.304,0.246 -0.677,0.55 -1.149,0.939c0.472,-0.383 0.845,-0.688 1.149,-0.939Zm-242.054,0.351c0.121,-0.168 0.215,-0.294 0.289,-0.404c-0.074,0.11 -0.163,0.242 -0.289,0.404Zm81.321,-82.612c0.315,0.53 0.646,1.06 1.008,1.574c2.392,3.332 5.534,5.802 9.007,7.329l-9.228,39.121c-2.465,-0.792 -5.036,-1.395 -7.696,-1.763c-23.508,-3.268 -45.542,12.68 -49.513,36.33c-24.29,-0.792 -24.316,-0.792 -24.316,-0.792c18.571,-26.478 34.687,-49.466 48.716,-69.47l32.022,-12.329Zm-87.202,82.481c0.047,-0.073 0.095,-0.136 0.131,-0.194c-0.036,0.063 -0.084,0.121 -0.131,0.194Zm0.378,-0.525c0.01,-0.015 0.021,-0.031 0.031,-0.042c-0.005,0.011 -0.021,0.027 -0.031,0.042Zm6.01,-0.047c0.012,-0.016 0.021,-0.031 0.028,-0.042c-0.007,0.011 -0.016,0.026 -0.028,0.042c-0.005,0.009 -0.012,0.018 -0.019,0.026c0.007,-0.008 0.014,-0.017 0.019,-0.026Zm242.408,-0.357c-0.1,0.079 -0.226,0.184 -0.389,0.32c0.163,-0.136 0.294,-0.241 0.389,-0.32Zm-248.326,0.283c0.001,-0.003 0.002,-0.005 0.002,-0.005c0,0 -0.001,0.002 -0.002,0.005c-0.001,0.001 -0.003,0.003 -0.004,0.004l0.001,-0.001c0.001,-0.001 0.002,-0.002 0.003,-0.003Zm5.983,-0.015c0.005,-0.005 0.011,-0.011 0.011,-0.016c0,0.005 -0.006,0.005 -0.011,0.016Zm-5.975,0l-51.492,-2.015c-1.154,-4.013 -3.625,-7.78 -7.177,-9.983c3.269,-5.97 6.453,-11.804 9.596,-17.538l95.559,-36.792c-46.471,66.307 -46.486,66.328 -46.486,66.328Zm264.324,-27.359l3.856,12.045c-19.479,14.732 -19.495,14.742 -19.495,14.742c5.414,-9.27 10.623,-18.188 15.639,-26.787Zm-29.851,25.88c-0.084,-1.055 -0.184,-2.33 -0.304,-3.877c0.084,1.054 0.183,2.324 0.304,3.877Zm-289.805,-0.641l-2.156,0.132c-0.546,-2.219 -1.994,-4.134 -3.562,-5.205l0.655,-1.615c2.345,1.6 4.155,3.997 5.063,6.688Zm371.283,-40.453c29.547,-22.406 50.133,-38.03 64.455,-48.889l16.788,3.148l-57.147,85.717l-24.096,-39.976Zm-81.845,36.34c-0.095,-1.211 -0.158,-2.04 -0.21,-2.644c-0.021,-0.278 -0.037,-0.498 -0.063,-0.787c0.016,0.195 0.037,0.467 0.063,0.787c0.073,0.929 0.147,1.847 0.21,2.644Zm6.731,-0.241c-3.101,-38.57 -5.792,-72.062 -8.132,-101.052l5.671,-0.824l14.532,45.364l-12.071,56.512Zm-307.774,-4.527l-1.075,1.558c-0.551,0.047 -1.117,0.157 -1.674,0.299l-1.007,-1.522c1.207,-0.288 2.471,-0.414 3.756,-0.335Zm315.517,0.734l8.488,-39.729l5.204,16.252c-6.263,10.739 -10.634,18.241 -13.692,23.477Zm-14.795,-0.072c0,0.001 0,0.002 -0.001,0.002l0,0.001c0,0 -0.001,0 -0.001,-0.001l0,0c0.001,-0.001 0.001,-0.002 0.003,-0.003l-7.817,-96.215l-29.82,4.322c8.213,20.061 18.618,45.471 31.81,77.672l5.827,14.221c-0.002,0.002 -0.003,0.003 -0.003,0.003c0,0.001 0.001,0.001 0.001,0.001l0,-0.001c0.001,0 0.001,-0.001 0.001,-0.002Zm-307.111,-9.859l14.778,-5.687c-6.18,11.337 -6.185,11.337 -6.185,11.337c-2.828,-0.388 -5.566,-0.115 -8.069,0.703l-1.715,-2.586c0.703,-1.144 1.101,-2.45 1.191,-3.767Zm363.66,-51.727l16.505,27.38c-14.133,10.686 -24.836,18.781 -32.93,24.903l-4.995,-15.586c7.597,-13.011 14.726,-25.229 21.42,-36.697Zm-258.852,-125.699c0.95,0.493 1.967,0.871 3.074,1.028c-51.318,94.091 -76.111,139.549 -88.089,161.509l-19.736,7.602l104.751,-170.139Zm71.82,126.444c3.783,0.341 7.655,-0.383 11.206,-2.251c-7.869,18.76 -13.787,32.878 -18.251,43.512c-0.777,-0.451 -1.574,-0.876 -2.387,-1.28l9.432,-39.981Zm-62.975,-121.869l43.869,72.911c-11.825,16.877 -22.003,31.388 -30.738,43.853l-97.505,37.542c36.282,-66.349 63.678,-116.455 84.374,-154.306Zm226.546,151.426l-6.956,-21.709l7.827,-36.624c1.763,0.016 3.531,-0.236 5.215,-0.797l14.437,23.954c-8.226,14.102 -14.977,25.675 -20.523,35.176Zm310.68,-25.402c3.924,5.676 2.812,13.655 -2.865,17.574c-3.032,1.92 -6.505,2.503 -9.726,1.91l0.797,-1.653c2.603,0.362 5.399,-0.199 7.843,-1.689c4.785,-3.614 5.714,-10.335 2.513,-15.056c-1.122,-1.642 -2.555,-2.854 -4.144,-3.652l0.283,-1.988c2.088,0.908 3.951,2.418 5.299,4.554Zm-283.321,-11.573c5.367,-9.208 10.456,-17.916 15.261,-26.153l61.68,11.558c-24.038,18.178 -43.365,32.794 -58.894,44.535l-18.047,-29.94Zm261.428,23.838c-0.587,-1.306 -0.928,-2.67 -1.038,-4.05l2.051,0.383c0.115,0.777 0.331,1.548 0.635,2.298l-1.648,1.369Zm-127.089,-62.875c1.805,-1.354 3.222,-3.222 4.003,-5.462c0.116,-0.839 0.651,-1.621 0.766,-2.46c22.218,-3.651 42.374,-6.967 60.678,-9.973l60.037,66.228c-0.115,0.168 -0.236,0.336 -0.346,0.509l-125.138,-48.842Zm134.203,47.845l-1.264,-1.39c1.285,-0.656 2.639,-1.086 4.024,-1.291l-0.273,1.92c-0.85,0.152 -1.684,0.404 -2.487,0.761Zm-140.975,-43.213l110.406,43.092l-123.684,-23.177l13.278,-19.915Zm144.275,36.807c-2.403,0.2 -4.805,0.945 -7.045,2.277l-57.042,-62.923c29.672,-4.879 54.245,-8.918 74.595,-12.265l-10.508,72.911Zm-450.721,-3.174c-0.289,0.236 -0.572,0.478 -0.876,0.688c-3.059,2.009 -6.61,2.948 -10.073,2.864l0.582,-2.497c2.828,0 5.661,-0.85 8.106,-2.697c0.047,-0.036 0.094,-0.078 0.141,-0.11l2.12,1.752Zm145.76,-22.007l-5.356,25.061l-10.577,-33.02l7.314,-1.06c0.487,1.254 1.122,2.487 1.951,3.652c1.705,2.423 4.045,4.223 6.668,5.367Zm-163.33,24.048c-2.481,-1.154 -4.679,-2.954 -6.285,-5.393c-0.173,-0.241 -0.32,-0.498 -0.477,-0.755l2.282,-0.877c0.037,0.058 0.074,0.126 0.11,0.189c1.375,1.815 3.096,3.227 4.989,4.213l-0.619,2.623Zm-13.519,-10.812l-22.58,8.693c9.422,-13.441 17.816,-25.402 25.292,-36.068l4.129,6.857c-5.918,5.167 -8.394,13.126 -6.841,20.518Zm194.523,-16.085c1.742,-1.611 3.075,-3.499 3.967,-5.53l21.519,4.035c-4.663,7.99 -8.986,15.397 -12.984,22.244l-12.502,-20.749Zm-157.196,12.795c-0.032,0.499 -0.079,0.992 -0.158,1.49c-0.719,1.721 -1.422,3.4 -2.114,5.052l-1.737,-1.432c0.714,-1.485 1.165,-3.085 1.338,-4.716l2.671,-0.394Zm-27.858,-12.853l1.259,2.088c-3.105,2.98 -4.427,7.224 -3.939,11.442l-2.408,0.929c-0.814,-5.33 1.007,-10.818 5.088,-14.459Zm293.965,7.292c23.136,-17.548 25.313,-19.206 25.518,-19.353l2.114,0.824l-14.054,21.079l-13.578,-2.55Zm-269.754,-0.76c-0.257,-0.625 -0.577,-1.223 -0.939,-1.81l1.763,-1.721c0.708,1.002 1.28,2.062 1.721,3.158l-2.545,0.373Zm195.175,-13.215c7.764,-13.315 14.789,-25.345 21.126,-36.199l71.432,27.873c-9.648,7.297 -18.703,14.144 -27.201,20.57l-65.357,-12.244Zm-187.919,12.045c-0.645,-1.957 -1.59,-3.856 -2.854,-5.619c-0.031,-0.042 -0.068,-0.079 -0.1,-0.121l9.071,-8.85c-2.13,5.078 -4.171,9.952 -6.117,14.59Zm44.105,-51.612c6.474,15.822 12.292,30.034 17.522,42.803l-53.6,7.765c4.265,-10.131 7.895,-18.761 10.99,-26.111l25.088,-24.457Zm99.195,47.048l0.43,-2.02c0.357,-0.042 0.703,-0.105 1.054,-0.189l1.086,1.794c-0.85,0.236 -1.71,0.373 -2.57,0.415Zm-156.284,-0.877c-3.479,-2.15 -7.66,-2.701 -11.469,-1.416l-1.201,-1.999c4.863,-1.773 10.162,-1.107 14.427,1.71l-1.757,1.705Zm149.653,-0.54c-1.774,-0.918 -3.358,-2.266 -4.559,-4.013c-0.441,-0.646 -0.814,-1.317 -1.128,-2.015l1.873,-0.273c0.204,0.415 0.43,0.819 0.687,1.207c0.986,1.306 2.208,2.345 3.546,3.106l-0.419,1.988Zm13.954,-4.234c0.494,-0.519 0.918,-1.08 1.275,-1.684l1.789,0.331c-0.54,1.075 -1.227,2.088 -2.062,3.016l-1.002,-1.663Zm-73.352,-73.724c3.699,2.492 8.347,3.368 12.801,2.387l6.285,19.62c1.453,17.874 2.733,33.65 3.866,47.531l-31.928,4.627c-8.908,-21.751 -14.994,-36.608 -19.149,-46.749l28.125,-27.416Zm-59.177,-12.97c-6.028,8.593 -19.943,28.437 -52.058,74.24l5.729,9.522c6.92,-2.613 14.6,-1.621 20.471,2.618l20.601,-20.083c6.023,-14.359 12.691,-30.26 20.099,-47.918l-0.137,-0.333c-0.408,-0.996 -2.037,-4.97 -8.541,-20.831l-4.034,-0.251l-2.13,3.036Zm186.229,46.818c-7.895,13.535 -15.082,25.848 -21.624,37.064l-23.797,-4.459c-0.074,-3.106 -1.086,-6.206 -3.127,-8.908c-4.942,-7.533 -15.382,-9.406 -22.49,-4.401c-4.397,3.111 -6.841,7.774 -7.093,12.627l-8.315,1.202l-14.758,-46.057c-0.787,-9.815 -1.521,-18.886 -2.198,-27.322c0.01,-0.026 0.026,-0.052 0.037,-0.084l103.365,40.338Zm-97.364,34.714c-0.498,-6.201 -0.981,-12.181 -1.448,-17.963l5.561,17.365l-4.113,0.598Zm46.303,-3.163c-0.194,-1.721 -0.766,-3.437 -1.726,-5.016c-3.614,-4.779 -10.272,-6.132 -15.056,-2.513c-2.608,1.784 -4.145,4.36 -4.622,7.083l-1.952,0.283c0.388,-3.457 2.209,-6.731 5.488,-8.803c5.739,-4.339 13.656,-2.812 17.58,2.864c1.353,1.962 2.04,4.192 2.145,6.448l-1.857,-0.346Zm147.303,-1.474l4.066,-6.107c0.451,-0.084 0.461,-0.079 0.461,-0.079c-0.057,0.415 -0.115,0.84 -0.173,1.259c-0.902,2.23 -2.471,3.893 -4.354,4.927Zm-12.135,-6.364l-1.379,0.661c-0.242,-1.317 -0.488,-2.634 -0.315,-3.887c0.058,-0.425 0.173,-1.265 0.65,-1.627c0.829,-2.88 3.279,-5.104 5.971,-6.017l-0.231,1.679c-1.857,1.023 -3.767,2.471 -4.475,4.511c-0.121,0.84 -0.179,1.259 -0.236,1.679c-0.116,0.845 -0.289,2.104 0.015,3.001Zm4.858,-13.446c-3.536,0.792 -6.94,3.746 -8.304,7.408c-0.541,0.776 -0.656,1.621 -0.772,2.46c-0.178,1.275 -0.167,2.56 0.074,3.798l-71.784,-28.014c6.516,-11.149 12.261,-21.001 17.344,-29.71l65.557,5.472c-2.115,38.575 -2.115,38.586 -2.115,38.586Zm-371.635,-66.244l92.774,5.761c-19.705,28.124 -36.634,52.273 -51.171,73.016l-44.362,-73.73c0.934,-1.71 1.852,-3.389 2.759,-5.047Zm388.014,72.392l19.762,-29.641c4.512,1.669 9.664,1.275 14.113,-1.175l19.846,21.893c-35.858,5.949 -48.952,8.126 -53.721,8.923Zm-13.881,-2.444c0.015,-0.032 0.026,-0.063 0.036,-0.095c-0.01,0.032 -0.021,0.058 -0.036,0.095Zm0.346,-0.84c0,-0.021 0.01,-0.036 0.015,-0.057c-0.005,0.015 -0.015,0.036 -0.015,0.057Zm0.215,-0.561c0.037,-0.089 0.052,-0.131 0.063,-0.142c-0.005,0.011 -0.026,0.053 -0.063,0.142Zm7.832,-0.147c6.086,-13.787 11.253,-25.491 15.639,-35.443c0.462,1.353 1.097,2.665 1.947,3.872c0.592,0.839 1.253,1.584 1.946,2.271l-19.532,29.3Zm-6.573,-2.413c0.01,-0.026 0.016,-0.042 0.031,-0.063c-0.01,0.021 -0.021,0.037 -0.031,0.063Zm0.252,-0.53c0,-0.005 0.005,-0.01 0.005,-0.016c-0.005,0 -0.005,0.011 -0.005,0.016Zm0.435,-0.923c0.042,-0.095 0.084,-0.179 0.121,-0.268c-0.037,0.084 -0.079,0.173 -0.121,0.268Zm1.006,-2.134c0.048,-0.101 0.097,-0.205 0.148,-0.311c-0.051,0.106 -0.1,0.21 -0.148,0.311l-0.034,0.071l-0.125,0.265l-0.044,0.092l-0.013,0.027c-0.104,0.22 -0.201,0.425 -0.291,0.614c0.09,-0.189 0.187,-0.394 0.291,-0.614l0.013,-0.027l0.044,-0.092l0.125,-0.265l0.034,-0.071Zm-262.492,-25.766c1.548,3.778 3.048,7.44 4.528,11.054l-15.56,15.167c11.032,-26.21 11.032,-26.221 11.032,-26.221Zm415.614,12.035c-34.609,5.75 -60.982,10.131 -81.08,13.472l-22.795,-25.15c3.778,-5.445 4.108,-13.089 0.174,-18.676c-0.331,-0.472 -0.688,-0.929 -1.055,-1.354l24.589,-32.804c35.312,9.574 63.531,17.228 86.1,23.345l-5.933,41.167Zm-152.475,12.36c-0.042,0.089 -0.084,0.173 -0.126,0.257c0.042,-0.084 0.084,-0.173 0.126,-0.257Zm0.433,-0.928l-0.001,0.001c0.001,-0.001 0.002,-0.001 0.003,-0.001l-0.002,0Zm0.249,-0.535c-0.011,0.026 -0.016,0.041 -0.026,0.068c0.01,-0.021 0.015,-0.042 0.026,-0.068Zm1.631,-31.331l11.794,0.981c-13.41,30.339 -13.415,30.355 -13.415,30.355c0.614,-11.904 1.149,-22.281 1.621,-31.336Zm-94.473,21.814l-96.829,-37.788l113.354,9.464c-5.812,9.962 -11.321,19.4 -16.525,28.324Zm340.472,-17.302c-34.236,5.687 -63.604,10.566 -88.812,14.758l5.508,-38.214c83.394,22.611 83.425,22.617 83.425,22.617c-0.063,0.419 -0.121,0.839 -0.121,0.839Zm28.723,2.702c-0.11,0.844 -0.23,1.684 -0.766,2.465c-2.187,6.542 -9.553,10.225 -16.037,7.618c-3.3,-0.892 -5.949,-3.394 -7.219,-6.563l1.742,-0.189c1.385,2.335 3.252,4.302 6.133,5.131c5.277,2.014 11.683,-0.944 13.76,-6.652c0.058,-0.42 0.598,-1.202 0.714,-2.041c0.231,-1.679 0.047,-3.415 -0.562,-5.21l1.433,-1.091c0.96,2.277 1.091,4.433 0.802,6.532Zm-530.61,7.334c-6.18,-15.078 -6.185,-15.088 -6.185,-15.088c2.969,-7.051 5.739,-13.64 8.341,-19.81l21.588,1.343c0.105,2.734 0.913,5.472 2.471,7.996l-26.215,25.559Zm293.456,-5.309l1.254,1.385c-3.006,1.505 -6.432,1.673 -9.516,0.677l1.007,-1.522c2.403,0.666 4.968,0.478 7.255,-0.54Zm-303.013,-0.855l0,0.002c-0.001,0.002 -0.002,0.005 -0.002,0.008l0.004,-0.013l-0.002,0.003Zm0.04,-0.095c0.042,-0.11 0.079,-0.204 0.111,-0.304c-0.037,0.1 -0.074,0.194 -0.111,0.304Zm285.991,-6.578l1.931,0.162c0.33,1.233 0.881,2.424 1.71,3.515c0.147,0.215 0.31,0.415 0.467,0.619l-1.044,1.564c-0.304,-0.347 -0.587,-0.709 -0.855,-1.097c-1.117,-1.474 -1.841,-3.1 -2.209,-4.763Zm23.251,4.343l-1.369,-1.516c1.863,-3.468 1.836,-7.717 -0.603,-11.085l1.311,-1.747c0.142,0.178 0.284,0.352 0.42,0.546c2.912,4.218 2.812,9.668 0.241,13.802Zm-308.245,-0.409c0.037,-0.11 0.079,-0.215 0.116,-0.315c-0.037,0.105 -0.079,0.205 -0.116,0.315Zm515.843,-0.383c-0.011,0 -0.027,-0.01 -0.042,-0.016c0.015,0.011 0.031,0.016 0.042,0.016Zm-0.656,-0.23l0.087,0.031c-0.055,-0.02 -0.116,-0.041 -0.182,-0.063l0.095,0.032Zm-1.144,-0.399c0.11,0.036 0.289,0.099 0.561,0.194c-0.272,-0.095 -0.451,-0.152 -0.561,-0.194Zm-0.199,-0.069c0.01,0 0.026,0.011 0.047,0.011c-0.016,0 -0.037,-0.005 -0.047,-0.011Zm-512.663,-2.035c0.036,-0.11 0.084,-0.215 0.115,-0.32c-0.037,0.1 -0.079,0.21 -0.115,0.32Zm514.179,-2.891c0.656,-1.621 2.151,-3.126 3.641,-4.627l1.023,1.857c-1.432,1.081 -2.445,2.225 -3.043,3.426l-1.621,-0.656Zm-513.074,-0.05c-0.018,0.06 -0.053,0.153 -0.103,0.281c0.05,-0.128 0.085,-0.221 0.103,-0.281Zm0.044,-0.102c0.005,-0.01 0.005,-0.026 0.005,-0.026c0,0 0,0.01 -0.005,0.026Zm-7.197,-0.283c-0.009,0.019 -0.017,0.034 -0.022,0.046l-0.003,0.009c0.003,-0.009 0.007,-0.018 0.013,-0.03l0.012,-0.025Zm0.078,-0.184l0.01,-0.021c-0.004,0.007 -0.007,0.014 -0.01,0.021c-0.022,0.044 -0.039,0.085 -0.053,0.121c0.014,-0.032 0.031,-0.076 0.053,-0.121Zm432.627,-23.094l17.286,-119.933c10.613,-0.272 10.623,-0.272 10.623,-0.272c-0.005,-0.006 -0.005,-0.011 -0.005,-0.021c0,0.005 0,0.01 0.005,0.021l61.979,136.112c-2.812,1.752 -4.842,4.04 -6.086,6.857c-33.03,-8.971 -60.651,-16.479 -83.802,-22.764Zm103.748,17.832c1.627,0.656 3.185,1.726 4.328,2.739l-1.851,1.028c-0.787,-0.535 -1.564,-1.07 -2.77,-1.663l0.293,-2.104Zm-534.972,1.968c-0.053,0.127 -0.104,0.248 -0.154,0.365l0.076,-0.179c0.025,-0.061 0.051,-0.123 0.078,-0.186Zm524.847,0.052c0,0 0,-0.005 -0.005,-0.063c0.005,0.053 0.005,0.063 0.005,0.063Zm-234.017,-0.666l-1.191,-0.1c0.703,-1.595 1.38,-3.121 2.036,-4.606c0.315,-0.32 0.645,-0.619 0.997,-0.902l0.808,1.747c-1.165,1.117 -2.057,2.444 -2.65,3.861Zm251.277,-0.362c-1.443,-1.91 -3.793,-3.52 -6.248,-4.292l27.862,-123.642c7.193,0.567 13.772,-3.651 16.442,-10.555c0.115,-0.84 0.593,-1.202 0.714,-2.041c86.772,2.23 130.257,3.342 152.05,3.903c0.64,4.218 2.266,8.174 4.669,11.594c-195.463,125.017 -195.489,125.033 -195.489,125.033Zm-12.404,-0.048c0.001,-0.001 0.001,-0.003 0.002,-0.005c-0.001,0.002 -0.001,0.004 -0.002,0.005l-0.001,0.003l-0.001,0.005c0.001,-0.003 0.001,-0.005 0.002,-0.008Zm-241.139,-14.038c-2.24,5.083 -4.26,9.642 -6.075,13.755l-14.348,-1.196c1.631,-31.383 2.334,-44.975 2.638,-50.856l17.785,38.297Zm241.005,11.919c0,0 0.419,0.058 0.839,0.116l-0.65,1.621l-0.189,-1.737Zm-4.9,1.522c0,-0.021 -0.005,-0.037 -0.011,-0.063c0.006,0.021 0.011,0.036 0.011,0.063Zm-470.18,-1.302c-3.111,0.714 -6.358,0.163 -9.06,-1.458l1.438,-1.406c2.187,1.154 4.674,1.558 7.061,1.091l0.561,1.773Zm-53.285,0.111c0.058,-0.142 0.12,-0.284 0.178,-0.415c-0.058,0.131 -0.115,0.273 -0.178,0.415Zm240.055,-62.836c-2.006,4.569 -6.819,7.414 -12.029,6.696c-0.142,-0.021 -0.284,-0.063 -0.431,-0.089c-4.553,7.806 -13.21,22.632 -29.63,50.778l62.141,5.183c0.771,-14.049 1.778,-32.453 3.101,-56.554l0.068,0.016c-0.021,-0.005 -0.048,-0.011 -0.068,-0.016c0,0 -0.006,0 -23.105,-6.122l-0.047,0.108Zm-239.242,60.947c0.089,-0.21 0.147,-0.351 0.184,-0.435c-0.037,0.084 -0.1,0.225 -0.184,0.435Zm-4.082,-11.234c1.152,2.829 2.581,6.32 4.339,10.631c-0.007,0.012 -0.012,0.023 -0.017,0.033l-0.029,0.064c-0.005,0.011 -0.01,0.022 -0.017,0.034c0.026,-0.042 0.037,-0.084 0.063,-0.131c0,0 0,-0.006 4.748,-11.211l-9.564,-0.593l0.477,1.173Zm525.757,10.042c-0.03,-0.113 -0.064,-0.245 -0.104,-0.398c0.034,0.133 0.069,0.265 0.104,0.398c0.07,0.271 0.113,0.435 0.143,0.531c-0.051,-0.184 -0.098,-0.359 -0.143,-0.531Zm25.172,-136.206c0.981,5.267 4.591,10.052 9.874,12.072l-27.863,123.642c-0.839,-0.115 -1.673,-0.236 -2.093,-0.294l-33.14,-134.255l53.222,-1.165Zm-249.986,133.143c2.261,-0.335 4.575,-0.073 6.715,0.803l-1.186,1.569c-1.479,-0.525 -3.079,-0.709 -4.69,-0.551l-0.839,-1.821Zm-105.244,0.226l-125.971,-10.513c-0.441,-1.931 -1.202,-3.809 -2.345,-5.556c-0.069,-0.089 -0.142,-0.168 -0.205,-0.257c-0.026,-0.299 -0.047,-0.593 -0.068,-0.897l57.787,-72.109c58.678,15.927 84.92,23.046 96.634,26.226c-0.592,4.37 1.322,8.462 4.659,10.843c-10.996,18.845 -21.137,36.225 -30.491,52.263Zm-152.386,-5.655c0.115,1.248 0.435,2.492 0.939,3.693l-1.406,1.369c-0.855,-1.626 -1.338,-3.394 -1.469,-5.183l1.936,0.121Zm268.241,-33.085l-0.108,-0.029c0.036,0.009 0.072,0.019 0.108,0.029c0.244,0.065 0.402,0.107 0.507,0.134l0.098,0.025c0.019,0.006 0.036,0.01 0.053,0.014l0.052,0.013l-14.191,32.143l1.312,2.828c3.515,-0.866 7.219,-0.436 10.508,1.175l22.921,-30.575c-6.616,-1.794 -13.446,-3.646 -20.55,-5.571l-0.026,-0.007l-0.026,-0.006l-0.053,-0.014l-0.092,-0.025c-0.175,-0.047 -0.346,-0.09 -0.513,-0.134Zm211.859,32.66c-0.136,-0.525 -0.21,-0.798 -0.241,-0.929c0.089,0.331 0.162,0.624 0.241,0.929Zm-56.638,-125.279l56.365,124.208l-30.59,-124.911l-25.775,0.703Zm-419.171,115.967c-1.201,0.808 -2.151,1.852 -2.859,3.027l-2.077,-0.126c0.876,-1.805 2.177,-3.452 3.903,-4.759c3.987,-2.518 8.745,-2.728 12.659,-0.996l-1.264,1.579c-3.29,-1.254 -7.114,-0.95 -10.362,1.275Zm5.604,-80.006c-1.634,3.882 -8.166,19.399 -34.285,81.433l20.004,1.243c1.17,-2.833 3.153,-5.388 5.902,-7.329c4.423,-3.116 10.12,-3.562 15.01,-1.747c-1.821,-22.396 -3.835,-47.242 -6.086,-74.895l-0.545,1.295Zm289.998,59.85l70.845,-94.505c13.262,-0.341 22.8,-0.593 29.646,-0.771l-16.998,117.96c-40.904,-11.111 -66.93,-18.178 -83.493,-22.684Zm-300.685,-51.145c-15.943,37.615 -25.224,59.523 -30.633,72.292l-15.214,-0.944c-1.594,-3.903 -1.594,-3.909 -1.594,-3.909l47.441,-67.439Zm251.759,72.114c3.342,-7.576 7.119,-16.111 11.385,-25.749l-0.419,-0.112c-1.254,-0.338 -6.262,-1.69 -26.274,-7.096l15.308,32.957Zm-299.82,-3.825c-0.377,0.535 -1.002,1.396 -2.014,2.797c0.53,-0.74 1.196,-1.658 2.014,-2.797Zm-50.274,-97.301c1.327,-0.147 2.608,-0.514 3.767,-1.096c40.107,98.696 40.112,98.707 40.112,98.707c-0.498,0.719 -0.986,1.406 -1.479,2.114l-93.744,-5.828c34.646,-63.348 46.969,-85.886 51.344,-93.897Zm43.984,97.474c-0.01,0.016 -0.021,0.032 -0.031,0.042c0.005,-0.005 0.016,-0.026 0.031,-0.042Zm6.605,-0.608c-0.073,0.105 -0.168,0.231 -0.283,0.399c0.115,-0.163 0.21,-0.294 0.283,-0.399Zm-6.262,0.135c-0.024,0.033 -0.047,0.066 -0.069,0.096l0.034,-0.047c0.023,-0.032 0.046,-0.066 0.07,-0.1l-0.035,0.051Zm1.336,-1.866c-0.477,0.666 -0.829,1.159 -1.086,1.511c0.262,-0.352 0.614,-0.84 1.086,-1.511Zm5.217,1.329c0.002,-0.002 0.003,-0.005 0.003,-0.007c0,0.002 -0.001,0.005 -0.003,0.007c-0.002,0.003 -0.005,0.006 -0.007,0.008c0.002,-0.002 0.005,-0.005 0.007,-0.008Zm-2.924,-4.493c-0.257,0.357 -0.609,0.845 -1.092,1.511c0.483,-0.671 0.835,-1.154 1.092,-1.511Zm0.351,-0.493c-0.037,0.053 -0.089,0.115 -0.136,0.194c0.052,-0.079 0.099,-0.141 0.136,-0.194Zm0.278,-0.378c-0.01,0.011 -0.021,0.027 -0.037,0.042c0.016,-0.015 0.027,-0.031 0.037,-0.042Zm0.058,-0.089c0,0.005 -0.005,0.011 -0.011,0.016c0.006,-0.011 0.011,-0.011 0.011,-0.016Zm73.221,-80.602c19.437,5.277 36.587,9.931 51.706,14.033l-51.444,64.187c-3.672,-45.652 -5.246,-65.22 -5.917,-73.598c2.334,-0.871 4.322,-2.498 5.655,-4.622Zm248.008,61.826c0.156,0.042 0.158,0.042 0.158,0.042c0,0 0.021,0.016 21.95,5.965l69.239,-92.365c-13.97,0.362 -31.43,0.814 -53.28,1.38l-37.909,85.02l-0.158,-0.042c-0.269,-0.071 -0.992,-0.264 -2.943,-0.787c0.789,0.211 1.756,0.475 2.943,0.787Zm-3.473,4.459c0.336,0.095 0.614,0.168 0.829,0.226c-0.215,-0.058 -0.488,-0.131 -0.829,-0.226Zm-0.828,-0.22c-0.216,-0.058 -0.441,-0.115 -0.693,-0.189c0.252,0.074 0.483,0.131 0.693,0.189Zm-2.419,-0.651c-0.262,-0.073 -0.54,-0.146 -0.834,-0.225c0.294,0.084 0.572,0.157 0.834,0.225Zm-1.33,-0.357c0.053,0.015 0.106,0.03 0.158,0.044l0.155,0.042c-0.051,-0.014 -0.103,-0.028 -0.155,-0.042l-0.158,-0.044Zm-0.306,-0.081c0.012,0.003 0.026,0.006 0.041,0.008c-0.015,-0.002 -0.029,-0.005 -0.041,-0.008l-0.037,-0.008l0.037,0.008Zm2.087,-4.824c0.819,0.221 1.532,0.41 2.156,0.572c-1.358,-0.356 -1.93,-0.514 -2.156,-0.572Zm36.604,-83.089c0.001,0 0.004,-0.002 0.004,-0.01c0,0.004 -0.004,0.005 -0.005,0.009l0,0.001c0,0 -0.042,0 -60.095,1.564c-1.275,3.415 -3.987,6.09 -7.303,7.392c-0.246,4.333 -1.007,17.9 -3.373,60.226l2.597,5.577c2.762,0.731 8.192,2.163 18.874,4.979l12.529,3.304c0.021,0 0.037,0.011 0.069,0.016c-0.027,-0.005 -0.042,-0.016 -0.069,-0.016l36.771,-83.042l0.001,0Zm-74.366,78.279c0.053,0.015 0.108,0.031 0.165,0.047l-0.056,-0.016c-0.056,-0.016 -0.11,-0.031 -0.161,-0.047l0.052,0.016Zm-1.222,-0.326c-1.359,-0.362 -1.926,-0.514 -2.156,-0.577c0.813,0.215 1.532,0.41 2.156,0.577Zm-1.504,-5.575c0.035,0.009 0.073,0.019 0.113,0.03l0.126,0.033c-0.044,-0.012 -0.087,-0.023 -0.126,-0.033l-0.113,-0.03Zm-0.458,-1.706c-0.084,1.547 -0.089,1.558 -0.089,1.558c0.026,0.005 0.042,0.005 0.068,0.016c-0.026,-0.006 -0.042,-0.006 -0.068,-0.016c-11.689,-3.232 -18.488,-5.11 -22.459,-6.206c-0.137,-2.487 -1.071,-4.78 -2.582,-6.621c4.339,-7.376 8.001,-13.614 11.112,-18.907l14.018,30.176Zm-85.01,-102.81c11.647,-4.931 21.992,-9.317 31.147,-13.194l37.185,80.083c-6.238,10.77 -10.094,17.423 -12.481,21.53c-0.996,-0.456 -2.082,-0.786 -3.236,-0.944c-4.449,-0.614 -8.609,1.375 -10.981,4.811c-41.655,-11.274 -72.371,-19.589 -94.982,-25.717l53.348,-66.569Zm86.637,46.011c-1.639,2.791 -4.917,8.369 -11.469,19.519l10.629,22.884c0.498,-9.018 1.274,-23.099 2.481,-45.196l-1.641,2.793Zm-225.897,27.593c-0.01,0.016 -0.026,0.026 -0.031,0.037c0.005,-0.011 0.016,-0.021 0.031,-0.037Zm0.184,-0.273c-0.068,0.1 -0.116,0.174 -0.147,0.221c0.031,-0.053 0.079,-0.121 0.147,-0.221Zm0.635,-0.928c-0.299,0.435 -0.499,0.729 -0.63,0.913c0.137,-0.184 0.336,-0.478 0.63,-0.913Zm0.405,-0.587c-0.042,0.061 -0.083,0.12 -0.122,0.177l-0.114,0.164c0.073,-0.105 0.152,-0.219 0.236,-0.341Zm0.962,-1.402c0.067,-0.1 0.136,-0.203 0.207,-0.309c-0.071,0.106 -0.14,0.209 -0.207,0.309c-0.069,0.102 -0.136,0.2 -0.202,0.293c-0.047,0.068 -0.092,0.133 -0.137,0.195c0.045,-0.062 0.09,-0.127 0.137,-0.195c0.066,-0.093 0.133,-0.191 0.202,-0.293Zm23.043,-22.112c40.847,-17.302 73.993,-31.341 100.879,-42.73l-47.341,59.066c-36.01,-9.747 -48.953,-13.251 -53.595,-14.511c0.062,-0.613 0.089,-1.227 0.057,-1.825Zm-14.054,15.329c0,-0.042 -0.006,-0.079 -0.006,-0.11c0,0.031 0,0.068 0.006,0.11Zm-0.183,-2.056c0.016,0.2 0.032,0.41 0.052,0.629c-0.02,-0.219 -0.036,-0.429 -0.052,-0.629Zm-2.569,-0.249c0.115,-0.169 0.234,-0.34 0.354,-0.517c-0.121,0.175 -0.238,0.346 -0.354,0.517c-0.065,0.096 -0.129,0.191 -0.191,0.285c0.063,-0.095 0.127,-0.19 0.191,-0.285Zm2.437,-1.205c-0.005,-0.036 0,-0.073 -0.011,-0.11c0.006,0.037 0.006,0.074 0.011,0.11Zm-1.254,-0.514c-0.11,0.163 -0.22,0.32 -0.33,0.483c0.104,-0.163 0.215,-0.32 0.33,-0.483Zm204.009,-91.1l25.806,0.483c-5.152,28.004 -7.628,41.471 -8.819,47.945c-6.432,-0.378 -12.135,4.207 -13.042,10.707c-0.693,4.995 1.647,9.763 5.624,12.345c-4.386,7.565 -8.184,14.117 -11.447,19.741l-35.092,-75.566c15.891,-6.731 27.899,-11.815 36.97,-15.655Zm13.955,74.166c0.005,-0.21 0.021,-0.53 0.042,-0.934c-0.027,0.404 -0.037,0.729 -0.042,0.934Zm306.802,-15.062l2.156,-0.126c-0.057,0.425 -0.057,0.425 -0.115,0.839c-2.015,5.283 -7.161,8.42 -12.318,8.557l0.299,-2.099c4.727,-0.194 8.493,-2.67 9.978,-7.171Zm-14.962,6.059l-0.294,2.099c-3.599,-1.784 -6.133,-5.136 -7.287,-9.144l2.093,0.293c0.913,2.692 2.66,5.504 5.488,6.752Zm-217.413,-1.92c-0.052,0.121 -0.11,0.231 -0.162,0.357c0.057,-0.126 0.11,-0.236 0.162,-0.357Zm7.651,-0.076c-0.018,0.047 -0.037,0.089 -0.059,0.139c0.022,-0.045 0.041,-0.091 0.059,-0.139c0.003,-0.008 0.006,-0.016 0.009,-0.024l-0.009,0.024Zm0.407,-1.078c-0.204,0.54 -0.325,0.86 -0.398,1.054c0.147,-0.377 0.278,-0.729 0.398,-1.054Zm-7.927,0.873c-0.011,0.028 -0.023,0.055 -0.036,0.082c0.013,-0.027 0.025,-0.054 0.036,-0.082Zm0.41,-0.863c-0.079,0.168 -0.158,0.336 -0.242,0.525c0.079,-0.189 0.158,-0.362 0.242,-0.525Zm8.22,-1.851c-0.115,0.304 -0.251,0.655 -0.403,1.059c0.157,-0.404 0.288,-0.755 0.403,-1.059Zm-7.762,0.856l-0.053,0.113l0.053,-0.113Zm115.598,-0.599c-0.026,-0.053 -0.063,-0.142 -0.126,-0.278c0.058,0.136 0.1,0.225 0.126,0.278Zm5.605,-0.018c0.003,0.01 0.003,0.018 0.003,0.018l0,-0.005c0,-0.006 -0.001,-0.012 -0.005,-0.016l0.002,0.003Zm-0.142,-0.309c0.008,0.016 0.015,0.031 0.022,0.047c0.03,0.064 0.057,0.126 0.086,0.196c-0.029,-0.07 -0.056,-0.132 -0.086,-0.196l-0.006,-0.013l-0.016,-0.034Zm-5.652,-0.098c-0.079,-0.163 -0.178,-0.378 -0.309,-0.667c0.125,0.289 0.23,0.504 0.309,0.667Zm-140.101,-53.518c-9.681,12.759 -21.829,28.784 -37.073,48.885c0.692,1.411 1.128,2.954 1.243,4.57c5.398,-0.137 20.345,-0.53 61.784,-1.616l0.39,-0.879c1.168,-2.637 5.842,-13.182 24.535,-55.35l-46.88,-0.881l-3.999,5.271Zm25.482,52.846c-0.068,0.152 -0.152,0.325 -0.246,0.525c0.094,-0.194 0.178,-0.373 0.246,-0.525Zm119.918,0.001c0.038,0.08 0.075,0.162 0.114,0.246l0.078,0.169c-0.066,-0.143 -0.129,-0.282 -0.192,-0.415Zm26.272,0.383l0.001,0.004c0,0 -0.001,-0.002 -0.001,-0.004Zm5.143,-0.182l0.009,0.046c-0.003,-0.015 -0.015,-0.07 -0.047,-0.222l0.038,0.176Zm-5.326,-0.664c-0.058,-0.276 -0.112,-0.534 -0.163,-0.771c0.065,0.313 0.119,0.567 0.163,0.771l0.121,0.572c-0.024,-0.126 -0.064,-0.309 -0.121,-0.572Zm-138.677,0.366c0.174,-0.447 0.279,-0.725 0.345,-0.895c-0.124,0.32 -0.237,0.617 -0.345,0.895l-0.059,0.149c0.02,-0.049 0.039,-0.099 0.059,-0.149Zm143.955,0.065c-0.048,-0.221 -0.137,-0.625 -0.289,-1.343c0.079,0.393 0.179,0.844 0.289,1.343Zm-151.085,-0.389c-0.021,0.048 -0.048,0.1 -0.074,0.158c0.021,-0.058 0.053,-0.11 0.074,-0.158Zm0.257,-0.556c-0.016,0.037 -0.063,0.126 -0.168,0.352c0.105,-0.221 0.152,-0.315 0.168,-0.352Zm7.281,-0.189c-0.015,0.037 -0.036,0.09 -0.063,0.168c0.032,-0.078 0.053,-0.131 0.063,-0.168Zm-7.271,0.163c0,0.004 0,0.002 0.002,-0.001l0.003,-0.004l-0.005,0.005Zm7.313,-0.252c-0.005,0.006 -0.01,0.016 -0.015,0.037c0,-0.021 0.01,-0.031 0.015,-0.037Zm86.484,-43.092l-31.273,41.718c-55.19,1.353 -55.205,1.359 -55.205,1.359c10.303,-23.189 18.419,-41.435 24.809,-55.825l56.396,1.06c1.905,4.228 3.662,8.115 5.273,11.688Zm24.221,41.209l0.174,0.383c-0.066,-0.144 -0.124,-0.272 -0.174,-0.383Zm26.853,-0.448c-0.039,-0.187 -0.08,-0.382 -0.123,-0.586c0.027,0.129 0.066,0.316 0.123,0.586c0.058,0.272 0.113,0.527 0.165,0.763c-0.067,-0.309 -0.121,-0.559 -0.165,-0.763Zm-32.482,0.417c0.026,0.058 0.052,0.114 0.078,0.169l0.075,0.164c-0.049,-0.108 -0.101,-0.218 -0.153,-0.333Zm-11.237,-24.889l-3.536,24.568c-9.858,0.242 -18.634,0.457 -26.456,0.646l25.821,-34.447c1.537,3.41 2.933,6.479 4.171,9.233Zm49.036,25.093c-0.084,-0.399 -0.178,-0.85 -0.288,-1.343c0.047,0.226 0.131,0.624 0.288,1.343Zm178.041,-178.765c-10.59,18.257 -35.907,61.901 -96.442,166.253c2.23,2.455 3.557,5.209 4.35,8.74c0,0 0.01,0.005 151.872,3.741c0.036,-0.352 0.041,-0.698 0.089,-1.05c1.416,-10.214 8.551,-18.382 17.7,-21.735c-8.905,-21.521 -27.092,-65.495 -64.238,-155.283c-1.837,0.772 -3.855,1.199 -5.971,1.199c-2.664,0 -5.171,-0.676 -7.36,-1.865Zm-216.076,178.035c0.021,0.05 0.042,0.099 0.064,0.147c0.01,0.021 0.02,0.042 0.031,0.064c-0.011,-0.022 -0.021,-0.043 -0.031,-0.064c-0.022,-0.048 -0.043,-0.097 -0.064,-0.147Zm5.645,0.078c0.007,0.015 0.014,0.032 0.021,0.049c-0.007,-0.017 -0.014,-0.034 -0.021,-0.049l-0.02,-0.045l0.02,0.045Zm-5.708,-0.212c0,0.001 0,0.002 0,0.004c0,-0.002 0,-0.003 0,-0.004l-0.001,-0.003l0.001,0.003Zm-10.872,-179.529c-1.01,0.283 -2.046,0.505 -3.103,0.659l12.622,115.746c1.983,0.42 3.788,1.516 4.942,3.274c2.471,3.767 1.773,8.798 -2.052,11.694c-0.729,0.482 -1.516,0.808 -2.324,1.044l-3.609,25.04c3.069,6.778 6.379,14.086 9.957,21.971c0.006,0.01 0.006,0.015 0.006,0.021c0,-0.011 0,-0.016 -0.006,-0.021l27.029,-0.53c0,0 -0.03,-0.131 -43.462,-178.898Zm43.491,179.02c0.007,0.037 0.015,0.072 0.023,0.109c-0.012,-0.055 -0.023,-0.108 -0.035,-0.163l0.012,0.054Zm5.156,-0.139c0.008,0.035 0.016,0.069 0.024,0.106c-0.012,-0.055 -0.023,-0.104 -0.038,-0.161l0.014,0.055Zm-40.63,-182.802c-1.092,0.805 -2.251,1.523 -3.469,2.143c4.777,19.561 16.293,66.73 44.071,180.539l54.119,-1.474c0.173,-1.259 0.347,-2.523 0.887,-3.3c0.834,-2.88 2.377,-4.805 4.349,-6.667c0,0 -0.051,-0.092 -99.957,-171.241Zm98.913,178.795c0.656,-1.621 1.726,-3.19 2.739,-4.328l1.023,1.852c-0.955,0.719 -1.548,1.925 -1.721,3.184c-0.535,0.777 -0.598,1.202 -0.656,1.621l-2.156,0.126c0.535,-0.776 0.656,-1.616 0.771,-2.455Zm21.504,-3.866c1.506,1.495 2.529,3.347 2.66,5.503l-1.684,-0.231c-0.661,-1.375 -0.965,-2.272 -1.689,-3.232l0.713,-2.04Zm-297.322,3.278c0.021,-0.031 0.042,-0.057 0.068,-0.083c-0.021,0.026 -0.042,0.052 -0.068,0.083Zm0.796,-1.032l0.08,-0.101c-0.018,0.023 -0.044,0.055 -0.08,0.101c-0.044,0.057 -0.088,0.114 -0.131,0.169l-0.393,0.507c0.129,-0.164 0.258,-0.332 0.393,-0.507l0.029,-0.037l0.102,-0.132Zm0.127,-0.168c0,-0.001 0,-0.001 0,-0.001c0,0 0.01,-0.01 36.377,-48.003l-27.385,-0.519c-1.737,9.412 -4.528,24.468 -8.992,48.522l0,0.001l-0.001,0.002l0,0.001l-0.001,0l0,0l-0.001,0.001l-0.001,0l-0.001,0c0,0 0,0 0.001,0c0.001,0 0.001,0 0.002,-0.001l0,0l0,0l0.001,0l0,0c0,-0.001 0.001,-0.002 0.001,-0.003Zm289.249,-6.066l-1.076,1.564c-1.264,-0.173 -2.576,0.073 -3.478,0.372l-1.023,-1.852c1.794,-0.603 3.473,-0.367 5.577,-0.084Zm-118.711,-30.044l-1.296,9.007c-0.703,-1.542 -1.385,-3.053 -2.056,-4.532l3.352,-4.475Zm-253.743,-0.305c2.004,1.081 4.239,1.852 6.658,2.235c-4.386,1.857 -8.641,3.651 -12.775,5.393l6.117,-7.628Zm251.01,-9.112c0.141,0.372 0.293,0.75 0.487,1.107l-4.296,5.728c-1.091,-2.413 -2.151,-4.737 -3.164,-6.972l6.973,0.137Zm-221.736,-4.176l13.514,0.251c-5.734,2.424 -11.295,4.774 -16.672,7.051c1.495,-2.14 2.586,-4.606 3.158,-7.302Zm198.067,-129.265c-6.448,8.496 -16.837,22.178 -33.594,44.24c2.949,2.701 4.984,4.569 5.719,5.267c4.349,-3.284 10.088,-4.255 15.382,-2.025c7.323,2.728 11.489,9.726 10.439,17.275c-0.173,1.265 -0.346,2.519 -0.886,3.306c-0.944,3.719 -3.447,6.363 -6.259,8.115c0,0 0.005,0.016 22.795,50.29l10.303,0.195c0.588,-1.26 1.485,-2.361 2.692,-3.153c0.535,-0.352 1.101,-0.63 1.684,-0.85l-12.644,-115.898c-6.038,-0.351 -11.501,-2.858 -15.631,-6.762Zm8.035,126.364l-50.311,-0.95c20.733,-46.67 20.738,-46.675 20.738,-46.675c2.518,0.351 5.094,0.283 7.791,-0.63c8.75,19.379 15.917,35.244 21.782,48.255Zm-73.421,-40.013l-0.451,0.596c-1.354,1.786 -6.771,8.928 -28.439,37.486l44.786,0.85c5.96,-13.441 13.174,-29.73 21.94,-49.514c-1.558,-1.075 -2.644,-2.507 -3.725,-3.94l-34.111,14.522Zm-66.836,28.382c-0.761,0.309 -1.416,0.587 -2.03,0.844c2.019,-0.839 2.03,-0.844 2.03,-0.844c0,0 -0.005,0.021 -1.663,8.96l31.189,0.588c6.961,-9.181 15.077,-19.899 24.573,-32.427l-54.099,22.879Zm-7.464,3.097c0.255,-0.106 0.763,-0.317 1.772,-0.737c-0.543,0.223 -1.123,0.466 -1.772,0.737c-0.256,0.107 -0.258,0.108 -0.258,0.108c0,0 -0.006,0 -12.754,5.398l11.72,0.221c0.336,-1.821 0.677,-3.688 1.034,-5.619l0.258,-0.108Zm6.347,-9.923c-0.52,0.21 -0.971,0.399 -1.385,0.572c0.419,-0.173 0.87,-0.362 1.385,-0.572Zm46.658,-105.51c-3.288,7.644 -10.89,13.001 -19.733,13.001c-2.547,0 -4.991,-0.444 -7.258,-1.26l-2.87,15.616l-14.159,77.057c-0.068,0.026 -0.126,0.052 -0.199,0.084c0.073,-0.026 0.126,-0.053 0.199,-0.084l60.914,-25.775c0,0 0.005,0 0.005,-0.005c0.002,0 0.004,0 0.007,-0.001l0.003,-0.001l0.002,-0.001c0.004,-0.001 0.009,-0.003 0.016,-0.006l0.027,-0.013c0.011,-0.005 0.024,-0.012 0.04,-0.02c-0.016,0.008 -0.029,0.015 -0.04,0.02l-0.027,0.013c-0.007,0.003 -0.012,0.005 -0.016,0.006l-0.002,0.001l-0.003,0.001c-0.003,0.001 -0.005,0.001 -0.007,0.001c0.079,-0.105 1.553,-2.051 28.309,-37.295c-7.97,-7.256 -21.806,-19.881 -45.208,-41.339Zm8.831,89.336c-0.1,0.042 -0.168,0.074 -0.205,0.09c0.037,-0.016 0.11,-0.048 0.205,-0.09Zm2.733,-1.185c-1.333,0.582 -2.078,0.902 -2.487,1.08c0.892,-0.383 1.721,-0.744 2.487,-1.08Zm1.397,-0.598c-0.255,0.11 -0.496,0.213 -0.722,0.311c-0.112,0.048 -0.22,0.094 -0.324,0.14c0.104,-0.046 0.212,-0.092 0.324,-0.14c0.226,-0.098 0.467,-0.201 0.722,-0.311Zm4.977,-2.146c-1.401,0.603 -2.602,1.123 -3.609,1.558c1.505,-0.656 2.686,-1.165 3.609,-1.558Zm0.674,-0.293c1.138,-0.489 1.789,-0.771 2.164,-0.935c-0.771,0.33 -1.488,0.643 -2.164,0.935l-0.328,0.141c0.108,-0.046 0.217,-0.093 0.328,-0.141Zm2.369,-1.024c0.084,-0.037 0.157,-0.068 0.241,-0.105c-0.084,0.037 -0.163,0.068 -0.241,0.105Zm-3.547,-5.697c-0.068,0.037 -0.136,0.068 -0.215,0.1c0.079,-0.032 0.147,-0.063 0.215,-0.1Zm3.077,-1.388c-0.038,0.017 -0.075,0.034 -0.113,0.05c0.038,-0.016 0.075,-0.033 0.113,-0.05l0.112,-0.05l-0.112,0.05Zm5.092,-2.295l0.131,-0.058c-0.043,0.019 -0.087,0.038 -0.131,0.058c-0.495,0.217 -1.038,0.467 -1.679,0.761c0.641,-0.289 1.184,-0.543 1.679,-0.761Zm3.484,-1.578c-0.079,0.036 -0.203,0.091 -0.394,0.177c0.138,-0.059 0.261,-0.115 0.394,-0.177c0.095,-0.043 0.127,-0.058 0.135,-0.064l-0.135,0.064Zm26.377,-22.528c-0.006,-0.006 -1.191,-1.059 -5.288,-4.769c-1.191,1.548 -5.488,7.124 -20.943,27.243l23.157,-9.621c-0.189,-1.737 -0.373,-3.478 -0.079,-5.577c0.115,-0.839 0.708,-2.041 0.881,-3.3c0.546,-1.353 1.39,-2.67 2.277,-3.976l-0.005,0Zm11.048,22.076l1.071,-1.564c0.839,0.121 2.156,-0.12 3.053,-0.43l0.608,1.8c-1.379,0.666 -3.058,0.43 -4.732,0.194Zm12.392,-9.181c-0.029,0.21 -0.059,0.42 -0.089,0.629c-0.646,1.616 -2.198,3.542 -3.631,4.628l1.023,1.857c1.91,-1.448 3.463,-3.374 4.292,-6.254c0.535,-0.781 0.645,-1.616 0.766,-2.46c0.818,-5.876 -2.686,-11.495 -8.389,-13.567c-4.853,-1.962 -9.763,-0.503 -13.231,2.87c-0.209,0.158 -0.337,0.327 -0.456,0.496l-0.101,0.146c-0.118,0.169 -0.247,0.338 -0.455,0.496c-1.018,1.144 -1.611,2.345 -2.204,3.547c-0.115,0.834 -0.231,1.678 -0.351,2.513c-0.173,1.253 -0.341,2.518 -0.042,3.415l1.794,-0.603c-0.304,-0.898 -0.189,-1.737 -0.074,-2.576c0.121,-0.84 0.174,-1.259 0.709,-2.046c0.178,-1.254 0.713,-2.036 1.668,-2.76c0.115,-0.834 0.598,-1.201 1.075,-1.563c2.928,-2.587 6.936,-3.741 11.023,-2.319c4.863,1.962 7.633,6.626 6.94,11.662c-0.03,0.21 -0.06,0.42 -0.089,0.63l-0.178,1.259Zm-18.456,6.631c-0.782,-0.535 -1.086,-1.432 -1.863,-1.967l1.795,-0.609c0.419,0.063 0.776,0.535 0.776,0.535l-0.708,2.041Zm-843.855,570.439c0.001,0.015 0.002,0.026 0.003,0.035l-0.001,-0.015l-0.002,-0.02Zm151.185,-87.362c0,0.006 0,0.012 0,0.017l0,-0.017Zm133.648,-39.375c0.161,-0.222 0.314,-0.432 0.46,-0.635c-0.146,0.203 -0.299,0.413 -0.46,0.635Zm214.573,-293.682c0.007,0.076 0.015,0.154 0.022,0.232l-0.011,-0.117l-0.011,-0.115Zm292.088,-31.722c0.033,-0.072 0.066,-0.143 0.097,-0.211l0.046,-0.102c-0.045,0.1 -0.093,0.204 -0.143,0.313Zm118.919,-5.387c-0.009,-0.019 -0.016,-0.035 -0.021,-0.05c0.011,0.029 0.028,0.066 0.049,0.113l-0.015,-0.034l-0.013,-0.029Zm-5.63,-0.038c-0.002,-0.002 -0.003,-0.004 -0.004,-0.006c0,0 0,-0.016 -5.734,-12.701l-1.857,12.89c2.476,-0.063 4.994,-0.126 7.591,-0.189l0.008,0.012c0,-0.001 0,-0.001 -0.001,-0.002l-0.003,-0.004Zm-100.309,-106.25l-0.22,0.101l0.22,-0.101Z" style="fill:#fff;fill-opacity:0.25;"/></svg>