<?xml version="1.0" encoding="UTF-8" standalone="no"?><!DOCTYPE svg PUBLIC "-//W3C//DTD SVG 1.1//EN" "http://www.w3.org/Graphics/SVG/1.1/DTD/svg11.dtd"><svg width="100%" height="100%" viewBox="0 0 932 720" version="1.1" xmlns="http://www.w3.org/2000/svg" xmlns:xlink="http://www.w3.org/1999/xlink" xml:space="preserve" xmlns:serif="http://www.serif.com/" style="fill-rule:evenodd;clip-rule:evenodd;stroke-linejoin:round;stroke-miterlimit:1.41421;"><rect id="Artboard1" x="0" y="0" width="931.955" height="720" style="fill:none;"/><clipPath id="_clip1"><rect x="0" y="0" width="931.955" height="720"/></clipPath><g clip-path="url(#_clip1)"><g><path d="M920.313,324.68l29.056,-33.616l-65.5,27.579l36.444,6.037Z" style="fill:none;"/><path d="M933.794,422.475c-0.931,1.25 -1.398,2.767 -1.313,4.274l1.009,-0.751c0.046,-1.138 0.457,-2.222 1.156,-3.084l-0.852,-0.439Z" style="fill:none;"/><path d="M883.09,322.285l20.444,21.801l14.224,-16.452l-34.472,-5.705c-0.062,0.118 -0.132,0.237 -0.196,0.356Z" style="fill:none;"/><path d="M952.251,363.567l5.45,-22.673c-1.163,-0.676 -2.18,-1.634 -2.931,-2.849c-0.751,-1.414 -1.048,-2.945 -0.95,-4.439l-32.209,-5.332l-15.778,18.258l21.92,23.381l24.498,-6.346Z" style="fill:none;"/><path d="M951.361,367.242l-21.007,5.445l15.675,16.72l5.332,-22.165Z" style="fill:none;"/><path d="M903.634,349.069l-30.178,34.909l50.617,-13.113l-20.439,-21.796Z" style="fill:none;"/><path d="M792.979,342.481l0.56,-0.865c-0.124,-0.175 -0.248,-0.353 -0.356,-0.544c-1.2,-2.176 -0.813,-4.663 0.658,-6.266l-0.506,-0.903c-1.899,1.915 -2.431,4.965 -1.107,7.584c0.222,0.362 0.48,0.694 0.751,0.994Z" style="fill:none;"/><path d="M796.67,343.516c-0.111,-0.024 -0.225,-0.047 -0.341,-0.073l-0.524,0.818c0.325,0.101 0.65,0.181 0.983,0.233l-0.118,-0.978Z" style="fill:none;"/><path d="M800.91,334.112l0.797,-0.534c-1.502,-1.27 -3.551,-1.778 -5.471,-1.314l0.514,0.919c1.452,-0.294 2.98,0.072 4.16,0.929Z" style="fill:none;"/><path d="M802.899,339.823l0.811,0.555c0.433,-1.291 0.441,-2.726 -0.08,-4.073l-0.764,0.511c0.327,0.989 0.32,2.029 0.033,3.007Z" style="fill:none;"/><path d="M939.092,418.266l6.008,-24.98l-18.426,-19.644l-53.344,13.817l61.445,31.76c1.378,-0.725 2.867,-1.017 4.317,-0.953Z" style="fill:none;"/><path d="M808.835,414.839l55.824,-27.757c-0.013,-0.292 0,-0.575 0.052,-0.857l-61.401,-42.077c-0.439,0.413 -0.922,0.792 -1.466,1.104c-0.493,0.284 -1.002,0.511 -1.515,0.689l8.506,68.898Z" style="fill:none;"/><path d="M800.442,342.997c-0.149,0.075 -0.296,0.139 -0.451,0.196l0.113,0.929c0.271,-0.108 0.547,-0.232 0.806,-0.374c0.327,-0.183 0.629,-0.395 0.91,-0.627l-0.794,-0.54c-0.184,0.145 -0.375,0.287 -0.584,0.416Z" style="fill:none;"/><path d="M809.271,418.352l9.303,75.323c2.075,-0.387 4.276,-0.374 6.498,0.147c0.797,0.191 1.556,0.455 2.289,0.757l38.325,-104.279l-56.415,28.052Z" style="fill:none;"/><path d="M805.668,416.416l-8.655,-70.098c-0.754,-0.077 -1.497,-0.255 -2.202,-0.539l-68.379,105.179c0.839,1.195 1.507,2.49 1.993,3.866l77.243,-38.408Z" style="fill:none;"/><path d="M871.144,390.076c-0.16,0.116 -0.307,0.232 -0.477,0.322c-0.516,0.374 -1.097,0.56 -1.685,0.604l-38.664,105.192c1.564,1.099 2.883,2.475 3.933,4.041l96.694,-72.338c-0.459,-2.136 0.034,-4.394 1.283,-6.234l-61.084,-31.587Z" style="fill:none;"/><path d="M729.186,458.171c0.186,1.677 0.103,3.412 -0.302,5.146c-0.181,0.776 -0.441,1.517 -0.728,2.242l79.566,36.088c1.693,-3.156 4.395,-5.595 7.618,-6.981l-9.238,-74.743l-76.916,38.248Z" style="fill:none;"/><path d="M875.16,314.127c2.413,-1.339 5.574,-0.792 7.411,1.448l66.336,-27.933c-0.163,-2.253 0.869,-4.48 2.988,-5.54c1.21,-0.746 2.583,-0.96 3.886,-0.736l32.976,-77.313l-148.397,107.388l32.315,5.352c0.5,-1.073 1.326,-2.02 2.485,-2.666Z" style="fill:none;"/><path d="M866.548,383.441c0.077,-0.054 0.15,-0.116 0.23,-0.171c0.258,-0.136 0.518,-0.237 0.789,-0.322l8.013,-58.281c-1.107,-0.493 -2.087,-1.337 -2.743,-2.516c-0.361,-0.646 -0.575,-1.35 -0.673,-2.065l-35.636,-5.904l-31.311,21.052c0.805,2.047 0.753,4.248 -0.021,6.158l61.352,42.049Z" style="fill:none;"/><path d="M954.7,330.378c0.679,-1.355 1.732,-2.545 3.112,-3.396c2.46,-1.304 5.273,-1.25 7.613,-0.106l46.109,-44.147l-50.911,5.169c-0.248,1.739 -1.252,3.38 -2.976,4.34c-1.628,1.007 -3.54,1.048 -5.189,0.349l-28.292,32.73l30.534,5.061Z" style="fill:none;"/><path d="M874.037,321.58c0.421,0.762 1.022,1.36 1.729,1.765l0.101,-0.771c-0.527,-0.331 -0.991,-0.767 -1.324,-1.306c-0.15,-0.271 -0.25,-0.56 -0.33,-0.841l-0.715,-0.124c0.108,0.439 0.286,0.869 0.539,1.277Z" style="fill:none;"/><path d="M879.077,323.789c0.212,-0.059 0.418,-0.137 0.638,-0.227l-0.47,-0.498c-0.023,0.008 -0.054,0.01 -0.08,0.016l-0.088,0.709Z" style="fill:none;"/><path d="M901.343,346.618l-20.689,-22.055c-0.563,0.287 -1.154,0.475 -1.773,0.563l-7.768,56.459l30.23,-34.967Z" style="fill:none;"/><path d="M881.296,316.107c-1.393,-1.453 -3.703,-1.776 -5.566,-0.772c-0.743,0.403 -1.334,0.988 -1.745,1.672l0.775,0.124c0.32,-0.516 0.751,-0.97 1.282,-1.295c1.546,-0.823 3.355,-0.491 4.586,0.547l0.668,-0.276Z" style="fill:none;"/><path d="M904.119,660.388c0.017,-1.582 -0.324,-3.192 -1.058,-4.74l28.894,-21.638l0,-5.56l-31.604,23.665c-0.1,-0.086 -0.21,-0.182 -0.31,-0.262l31.914,-63.495l0,-9.924l-29.866,59.415l22.762,-79.478l7.104,5.773l0,-5.735l-5.774,-4.684l2.499,-8.731c1.22,1.972 2.306,3.716 3.275,5.277l0,-8.655c-0.517,-0.837 -1.069,-1.726 -1.576,-2.547l1.576,-5.501l0,-16.182l-4.743,16.568c-10.413,-16.844 -18.792,-30.379 -25.513,-41.261l20.694,-9.964c3.299,2.361 6.466,4.632 9.562,6.852l0,-4.043c-2.137,-1.53 -4.212,-3.016 -6.194,-4.44l6.194,-2.984l0,-4.943l-10.32,4.97c-8.717,-6.249 -15.872,-11.378 -21.749,-15.583l14.625,-3.219l17.444,5.47l0,-4.663l-8.693,-2.73l8.693,-1.913l0,-4.563l-17.241,3.787l-36.225,-11.363c19.798,0.265 37.545,0.503 53.466,0.713l0,-4.453c-50.464,-0.634 -50.502,-0.634 -50.502,-0.634c20.239,-6.16 36.842,-11.206 50.502,-15.356l0,-4.494c-60.405,18.343 -60.446,18.357 -60.446,18.357c-0.358,-0.565 -0.769,-0.941 -1.341,-1.327l61.787,-62.155l0,-22.548c-0.424,0.554 -0.814,1.127 -1.148,1.726l-25.023,-8.441c0.672,-1.565 1.223,-3.209 1.626,-4.922c3.582,-15.183 -5.494,-30.576 -20.725,-34.619c2.013,-15.844 2.013,-15.858 2.013,-15.858c16.179,13.776 30.231,25.73 42.45,36.135l0.807,2.865l0,-16.493l-14.852,-52.859c5.101,3.447 10.05,6.79 14.852,10.033l0,-5.239c-7.135,-4.808 -12.574,-8.472 -16.665,-11.226l-3.757,-13.377l20.422,15.38l0,-5.57l-19.03,-14.332c0.386,-1.334 0.307,-2.792 -0.362,-4.06c-0.586,-0.944 -1.365,-1.634 -2.247,-2.096l2.95,-31.02c5.281,0.537 9.431,0.955 12.712,1.289c0.141,4.239 2.426,8.213 5.977,10.488l0,-21.587c-0.855,0.538 -1.655,1.169 -2.368,1.889c-78.134,-49.181 -78.141,-49.192 -78.141,-49.192c1.161,-3.733 -0.504,-7.558 -4.112,-9.265c-0.538,-0.131 -1.014,-0.527 -1.562,-0.654c-1.079,-0.256 -2.564,-0.031 -3.715,-0.018l-20.357,-42.277l0.128,0.527c-0.021,-0.076 -0.059,-0.231 -0.128,-0.527l-0.089,-2.031l0.337,-0.206l-0.275,-0.062l-0.7,-18.082c6.518,0.517 12.405,-3.636 13.904,-9.992c1.661,-7.042 -2.63,-14.345 -9.944,-16.072c-7.052,-1.668 -14.145,2.957 -15.806,10.002c-1.465,6.201 1.733,12.388 7.32,14.914l0.807,17.334l-47.796,-18.295c0.503,-3.83 -2.161,-7.504 -5.987,-8.41c-4.071,-0.955 -8.089,1.526 -9.048,5.597c-0.951,4.057 1.524,8.079 5.594,9.044c0.014,0 0.042,0.004 0.059,0.007c1.12,102.975 1.117,102.982 1.117,102.982c-0.6,0.141 -1.269,0.551 -2.01,1.237c-50.408,-27.915 -74.666,-41.347 -86.334,-47.809c1.245,-7.749 -3.619,-15.166 -11.388,-17c-8.131,-1.916 -16.165,3.054 -18.081,11.185c-1.296,5.494 0.558,10.943 4.408,14.493c-21.866,33.572 -34.578,53.084 -41.957,64.403c-1.306,-0.624 -2.702,-1.127 -4.167,-1.472c-11.119,-2.619 -22.445,4.15 -25.061,15.266c-0.655,2.809 -0.7,5.635 -0.218,8.337l-89.853,17.51c-1.499,-2.248 -4.432,-3.068 -6.931,-1.52c-2.113,1.12 -3.164,3.422 -2.633,5.677l-203.837,147.506l-14.277,-9.309c1.627,-7.039 -2.712,-14.039 -10.012,-15.759c-7.052,-1.658 -14.087,2.682 -15.745,9.734c-1.727,7.321 2.623,14.355 9.675,16.01c5.797,1.365 11.405,-1.082 14.345,-5.801l12.036,7.855l-39.868,26.809c-2.858,-2.547 -6.845,-3.495 -10.561,-2.416l-4.567,-8.135c2.561,-1.833 4.488,-4.553 5.249,-7.8c1.662,-7.048 -2.623,-14.348 -9.94,-16.072c-7.052,-1.665 -14.414,2.889 -16.079,9.944c-1.661,7.038 2.895,14.411 9.944,16.079c2.357,0.545 4.684,0.438 6.814,-0.189l4.677,8.32c-3.595,3.264 -4.687,8.903 -2.223,13.215c0.49,0.841 1.062,1.599 1.71,2.251l-90.705,139.52c-2.55,-2.316 -5.701,-4.039 -9.265,-4.88c-11.115,-2.62 -22.169,4.222 -24.782,15.327c-2.623,11.116 4.15,22.439 15.266,25.061c8.558,2.013 17.268,-1.723 22.025,-8.609l106.725,48.402c-0.097,0.317 -0.2,0.627 -0.283,0.948c-2.623,11.116 4.219,22.162 15.603,24.848c11.113,2.619 22.17,-4.223 24.786,-15.328c1.01,-4.309 0.603,-8.638 -0.917,-12.488l128.974,-96.488c3.277,4.343 9.089,5.649 13.707,2.789c1.992,-1.058 3.481,-2.654 4.402,-4.512l104.701,67.749c-1.13,2.923 -1.037,6.28 0.538,9.258c3.109,5.022 9.548,6.825 14.507,3.991c3.799,-2.182 5.787,-6.104 5.498,-10.106l188.533,-50.88c2.285,3.708 6.939,5.001 10.516,2.781c0.566,-0.31 1.072,-0.679 1.524,-1.089l137.583,82.842c-0.992,2.82 -0.782,6.046 0.907,8.772c2.778,5.233 9.485,7.104 14.511,3.992c2.033,-1.079 3.543,-2.706 4.456,-4.612l28.836,6.959l0,-4.588l-27.836,-6.717Zm-23.111,-221.409c-0.365,-0.007 -1.044,-0.013 -2.261,-0.038c0.679,0.014 1.434,0.025 2.261,0.038Zm13.095,210.579c-1.6,-0.128 -3.22,0.107 -4.736,0.713l-75.332,-109.957c0.786,-0.904 1.368,-2 1.658,-3.244c0.244,-1.024 0.268,-2.04 0.106,-3.002l49.616,-23.907l55.669,45.167l-26.981,94.23Zm-0.652,2.282l-0.379,1.313c-0.517,0.027 -1.031,0.121 -1.537,0.276l-0.793,-1.158c0.882,-0.311 1.799,-0.452 2.709,-0.431Zm-92.531,-115.559l-50.64,24.389l41.958,-44.284l10.009,14.601c-0.541,0.775 -0.948,1.651 -1.186,2.626c-0.214,0.903 -0.245,1.799 -0.141,2.668Zm-46.307,-36.804l-158.319,55.813l107.869,-149.951c3.76,1.837 8.238,1.999 12.146,0.217l46.886,68.442c-4.618,2.747 -8.162,7.297 -9.499,12.967c-1.013,4.322 -0.603,8.655 0.917,12.512Zm-428.134,-99.511c-0.71,0.434 -1.285,1.041 -1.713,1.73l-1.034,-0.166c0.548,-0.916 1.338,-1.695 2.33,-2.233c2.492,-1.341 5.574,-0.913 7.435,1.031l-0.893,0.368c-1.644,-1.389 -4.06,-1.833 -6.125,-0.73Zm4.909,10.316c-0.293,0.12 -0.569,0.22 -0.852,0.303l0.117,-0.948c0.038,-0.007 0.076,-0.01 0.107,-0.02l0.628,0.665Zm-7.349,-4.188c0.107,0.376 0.241,0.762 0.441,1.124c0.445,0.72 1.065,1.302 1.768,1.744l-0.134,1.03c-0.944,-0.537 -1.747,-1.341 -2.309,-2.357c-0.338,-0.545 -0.576,-1.121 -0.721,-1.706l0.955,0.165Zm6.239,6.276c0.823,-0.117 1.616,-0.365 2.368,-0.751l27.632,29.456l-40.372,46.703l10.372,-75.408Zm106.425,-49.446l0.91,-0.094c-0.335,1.655 -1.317,3.147 -2.906,4.009c-1.572,0.975 -3.34,1.11 -4.891,0.614l0.634,-0.741c1.255,0.265 2.613,0.106 3.84,-0.542c1.203,-0.748 2.051,-1.94 2.413,-3.246Zm-0.845,-4.395l0.431,-1.003c0.231,0.276 0.441,0.569 0.621,0.9l-1.052,0.103Zm-3.932,-2.123c-0.979,-0.045 -2.003,0.189 -2.954,0.782c-1.465,0.907 -2.403,2.385 -2.547,4.012l-0.838,0.348c-0.007,-2.144 1.044,-4.225 3.037,-5.301c1.161,-0.624 2.45,-0.861 3.684,-0.744l-0.382,0.903Zm-3.378,12.501c2.202,0.934 4.756,0.879 6.931,-0.465c2.303,-1.282 3.647,-3.475 3.974,-5.798l67.998,-6.903l-61.583,58.963c-3.127,-1.527 -6.884,-1.599 -10.168,0.141c-1.844,1.138 -3.251,2.727 -4.157,4.536l-40.778,-6.759l37.783,-43.715Zm334.758,-79.513l-11.871,-10.03c11.95,3.898 11.96,3.902 11.96,3.902c-0.596,2.033 -0.606,4.153 -0.089,6.128Zm9.216,13.608c-0.362,0.903 -0.5,1.882 -0.365,2.85l-25.33,34.158l-47.224,-77.566c18.24,5.96 31.269,10.209 40.572,13.246l32.347,27.312Zm-1.975,-10.034c0.479,0.4 1.02,0.528 1.558,0.652c1.086,0.252 2.234,0.245 3.175,-0.107l-0.049,1.413c-1.21,0.286 -2.364,0.304 -3.443,0.052c-0.545,-0.131 -1.289,-0.593 -1.834,-0.72c-3.87,-1.772 -5.69,-6.208 -4.187,-10.141l1.078,0.255c-1.092,3.461 0.579,7.287 3.702,8.596Zm51.949,-60.135l-7.5,35.422c0,0.018 -0.003,0.035 -0.01,0.052c0.007,-0.017 0.01,-0.034 0.01,-0.052l-32.182,12.722c-1.034,-1.668 -2.74,-2.933 -4.508,-3.922l-12.526,-92.497l56.716,48.275Zm-54.382,-50.877c0.003,0.003 0.003,0.007 0.01,0.003c-0.007,0.004 -0.007,0 -0.01,-0.003Zm0.313,0.265c-0.079,-0.065 -0.182,-0.151 -0.289,-0.241c0.107,0.09 0.21,0.176 0.289,0.241Zm-0.237,-3.97c0.034,0 0.062,0 0.096,0.003c-0.038,-0.003 -0.062,-0.003 -0.096,-0.003Zm0.882,4.504l62.562,6.46c0.031,-0.131 0.058,-0.242 0.082,-0.359c-0.079,0.348 -0.082,0.359 -0.082,0.359l-8.248,39.816l-54.314,-46.276c-0.228,-0.189 -0.396,-0.327 -0.524,-0.441c0.517,0.435 0.524,0.441 0.524,0.441Zm-0.262,-4.466c0.121,0.006 0.238,0.013 0.331,0.02c-0.093,-0.003 -0.21,-0.01 -0.331,-0.02Zm0.855,0.055c0.045,0 0.072,0.003 0.093,0.003c-0.021,0 -0.052,0 -0.093,-0.003Zm98.828,14.697l18.623,38.717c-2.013,1.244 -3.54,2.881 -4.598,4.925c-0.989,1.772 -1.096,3.457 -0.941,5.219l-29.635,11.605c-0.003,0.003 -0.003,0.003 -0.01,0.003c0.007,0 0.007,0 0.01,-0.003l-25.754,-21.804l8.827,-42.264c0,-0.011 -0.003,-0.014 0,-0.021c-0.003,0.007 0,0.01 0,0.021l33.478,3.602Zm-2.23,-4.826l0.007,0l-0.007,0Zm0.124,0.007c0.014,0 0.028,0.003 0.042,0.003c-0.014,0 -0.028,0 -0.042,-0.003Zm2.123,4.819c0.035,0.006 0.062,0.003 0.09,0.01c-0.028,-0.007 -0.055,-0.004 -0.09,-0.01Zm1.417,0.113c-0.352,-0.031 -0.755,-0.058 -1.217,-0.096c0.193,0.01 0.548,0.041 1.217,0.096Zm-0.028,-4.615c0.014,0 0.032,0.004 0.045,0c-0.017,0.004 -0.031,0.004 -0.045,0Zm0.159,0.014c0.003,0.003 0.007,0.003 0.007,0.003c0,0 -0.004,0 -0.007,-0.003Zm0.662,4.66c0.341,0.031 0.748,0.058 1.217,0.096c-0.194,-0.01 -0.552,-0.041 -1.217,-0.096Zm1.32,0.103c0.055,0.007 0.076,0.011 0.093,0.014c-0.017,-0.003 -0.041,-0.007 -0.093,-0.014Zm30.535,45.346l1.806,-0.959c0.696,0.521 1.533,0.866 2.385,1.003l2.809,10.017c-7.035,-4.736 -7.035,-4.74 -7.035,-4.74c0.434,-1.819 0.424,-3.636 0.035,-5.321Zm3.284,-10.458c-0.272,0.1 -0.555,0.2 -0.823,0.348c-1.944,1.207 -3.006,3.216 -2.813,5.253l-1.52,0.81c-0.969,-1.289 -2.24,-2.371 -3.791,-3.116c-0.817,-0.196 -1.569,-0.658 -2.379,-0.851c-1.354,-0.321 -2.84,-0.093 -4.318,0.131l-18.068,-37.452c15.658,1.589 27.587,2.795 36.694,3.715l-2.982,31.162Zm-5.501,14.115l-0.948,-0.797c-0.006,-0.365 -0.041,-0.737 -0.089,-1.113l1.051,-0.569c0.117,0.814 0.124,1.648 -0.014,2.479Zm-2.998,-5.918c-0.593,-0.648 -1.293,-1.2 -2.096,-1.579c-0.482,-0.396 -1.024,-0.52 -1.558,-0.648c-0.544,-0.131 -1.155,0.014 -1.968,-0.179l-0.62,-1c1.206,-0.289 2.026,-0.103 2.833,0.09c0.813,0.189 1.365,0.324 1.902,0.448c1.097,0.544 2.01,1.313 2.737,2.206l-1.23,0.662Zm1.165,10.067c-1.2,1.434 -2.875,2.472 -4.688,2.903l0.045,-1.424c1.489,-0.22 2.826,-1.051 3.626,-2.006l1.017,0.527Zm-13.505,35.436c-13.187,-11.212 -20.432,-17.378 -24.42,-20.77l23.728,-12.708c0.861,1.007 1.93,1.837 3.174,2.306c0.483,0.396 1.024,0.527 1.565,0.655l-4.047,30.517Zm1.51,1.324c-0.276,-0.241 -0.579,-0.507 -0.924,-0.803c0.345,0.296 0.648,0.562 0.924,0.803Zm-1.103,-0.969c-0.045,-0.034 -0.076,-0.068 -0.117,-0.096c0.041,0.028 0.076,0.062 0.117,0.096Zm-0.265,4.006c-0.073,-0.069 -0.159,-0.142 -0.235,-0.218c0.076,0.076 0.162,0.149 0.235,0.218Zm-0.142,-4.357c0.004,0 0.014,0.007 0.014,0.007c0,0 -0.01,-0.004 -0.014,-0.007Zm0.055,0.052c0.007,0.003 0.018,0.006 0.032,0.02c-0.014,-0.014 -0.025,-0.017 -0.032,-0.02Zm-0.327,3.939c-0.014,-0.007 -0.031,-0.024 -0.038,-0.034c0.007,0.014 0.024,0.027 0.038,0.034Zm-0.065,-0.058c-0.004,-0.004 -0.007,0 -0.007,-0.004c0,0.004 0.003,0 0.007,0.004Zm-86.128,8.506l12.46,-6.669c-2.554,11.925 -2.554,11.936 -2.554,11.936c-3.901,-2.075 -7.162,-3.809 -9.906,-5.267Zm9.848,5.615c-0.021,0.134 -0.055,0.331 -0.104,0.603c0.049,-0.272 0.083,-0.469 0.104,-0.603Zm-0.183,1.02c-0.107,0.631 -0.203,1.138 -0.265,1.551c0.11,-0.648 0.196,-1.154 0.265,-1.551Zm-0.376,2.154c-0.089,0.555 -0.144,0.838 -0.172,0.986c0.069,-0.355 0.121,-0.679 0.172,-0.986Zm-0.175,1.024c-0.007,0.031 -0.011,0.055 -0.018,0.072c0.007,-0.017 0.011,-0.041 0.018,-0.072Zm-0.021,0.114c0.003,0.003 0,0.007 0,0.01c0,-0.003 0.003,-0.007 0,-0.01Zm21.352,166.987c-0.782,-0.255 -1.599,-0.358 -2.416,-0.261l-20.777,-34.113c32.234,3.35 46.059,4.788 51.988,5.412l-28.795,28.962Zm3.523,6.105l47.699,-10.489c5.453,8.8 10.406,16.769 14.904,24.034l-29.094,14.011l-33.578,-27.246c0.028,-0.107 0.038,-0.207 0.069,-0.31Zm-29.625,-45.273l-5.866,-9.627l43.525,13.666c-19.45,-2.095 -30.913,-3.319 -37.659,-4.039Zm-5.587,-0.6l-4.105,-0.438c-0.317,-3.509 -2.657,-6.924 -5.994,-8.565c-0.269,-0.065 -0.538,-0.124 -0.813,-0.193c0.217,-1.003 0.417,-1.985 0.627,-2.974l3.561,1.12l6.724,11.05Zm-75.025,-45.483c-0.555,-1.014 -1.241,-1.917 -2.013,-2.72l26.185,-35.312l32.741,53.773c0.162,4.415 0.282,7.866 0.372,10.564l-55.551,-17.44c0.413,-2.975 -0.118,-6.091 -1.734,-8.865Zm-8.362,-1.637c-2.54,-1.038 -5.573,-0.955 -8.265,0.575c-2.93,1.658 -4.612,4.808 -4.626,8.093l-1.692,0.438c-0.203,-4.019 1.816,-7.997 5.56,-10.14c3.177,-1.682 6.907,-1.645 9.974,-0.249l-0.951,1.283Zm0.603,18.578c-2.726,1.168 -5.838,1.047 -8.551,-0.121l0.927,-1.286c2.106,0.796 4.457,0.824 6.614,-0.072l1.01,1.479Zm-11.302,-3.919l-0.927,1.285c-0.179,-0.182 -0.351,-0.375 -0.51,-0.572l1.427,-0.724c0,0.004 0,0.004 0.01,0.011Zm-260.218,18.405c-1.806,-0.517 -3.809,-0.358 -5.522,0.7c-0.858,0.465 -1.582,1.11 -2.147,1.871l-1.365,-0.227c0.72,-1.148 1.723,-2.161 2.954,-2.93c2.247,-1.251 4.87,-1.313 7.11,-0.403l-1.03,0.989Zm1.606,12.956c0.083,-0.044 0.165,-0.103 0.248,-0.158l0.907,0.82c-0.173,0.121 -0.352,0.235 -0.528,0.345c-1.558,0.955 -3.253,1.323 -4.911,1.182l0.296,-1.248c1.32,0.073 2.689,-0.22 3.988,-0.941Zm-9.699,-2.564c0.396,0.724 0.931,1.344 1.537,1.858l-0.331,1.344c-0.965,-0.686 -1.809,-1.578 -2.485,-2.647c-0.755,-1.358 -1.075,-2.84 -1.013,-4.305l1.337,0.217c0.024,1.172 0.331,2.385 0.955,3.533Zm4.87,7.045c2.206,0.29 4.519,-0.072 6.635,-1.196c0.434,-0.265 0.845,-0.575 1.234,-0.903l22.145,20.174l-36.645,9.499l6.631,-27.574Zm8.176,-12.329l1.127,-0.431c0.541,1.886 0.358,3.847 -0.424,5.553l-0.972,-0.882c0.51,-1.338 0.624,-2.82 0.269,-4.24Zm2.516,6.766c1.286,-2.45 1.641,-5.325 0.903,-8.076l70.686,-27.101c1.437,5.06 5.501,9.185 11.022,10.492c0.624,0.144 1.252,0.234 1.875,0.303l9.8,28.601l-69.814,18.092l-24.472,-22.311Zm89.115,-24.596c5.55,-1.137 10.186,-5.366 11.581,-11.274c0.828,-3.526 0.359,-7.042 -1.096,-10.051l106.518,-40.84c0.549,0.7 1.197,1.292 1.913,1.771l-21.366,65.282l-88.061,22.807l-9.489,-27.695Zm118.555,-68.759l-1.103,0.107c0.43,-1.437 1.447,-2.744 2.933,-3.66c0.472,-0.252 0.965,-0.438 1.468,-0.573l-0.003,1.069c-0.38,0.114 -0.759,0.252 -1.114,0.438c-1.003,0.63 -1.747,1.568 -2.181,2.619Zm1.247,5.653l-0.282,0.858c-0.228,-0.196 -0.445,-0.407 -0.635,-0.634l0.814,-0.317c0.034,0.031 0.076,0.062 0.103,0.093Zm-18.774,71.685l50.202,-13.001l-55.031,27.764l4.829,-14.763Zm-5.119,1.331l-5.325,16.272l-69.583,35.115l-10.064,-29.373l84.972,-22.014Zm-1.671,19.408l65.229,-32.913c0.455,0.597 0.938,1.145 1.469,1.655l-103.599,143.987l36.901,-112.729Zm69.676,-53.31c-5.091,2.809 -7.673,8.223 -7.139,13.531l-54.103,14.008l20.48,-62.569c1.393,0.038 2.806,-0.289 4.078,-1.079c3.884,-1.947 5.046,-6.831 3.102,-10.715c-0.972,-1.576 -2.409,-2.73 -4.019,-3.371l0.376,-78.962c9.913,3.233 18.819,6.146 26.802,8.758l50.88,83.549l-27.26,36.746c-4.008,-2.075 -9.013,-2.189 -13.197,0.104Zm-41.513,-164.358c-0.62,-0.173 -1.22,-0.424 -1.778,-0.731l0.878,-0.841c0.29,0.148 0.59,0.265 0.907,0.369l-0.007,1.203Zm5.584,118.978c-0.417,-0.779 -1.01,-1.372 -1.689,-1.817l0.003,-1.22c0.996,0.514 1.848,1.3 2.42,2.354c1.589,2.954 0.696,6.742 -2.32,8.614c-0.854,0.458 -1.775,0.686 -2.688,0.703l0.334,-1.014c0.683,-0.082 1.365,-0.293 2.006,-0.637c2.347,-1.448 3.381,-4.636 1.934,-6.983Zm51.997,58.136c0.104,-1.744 -0.279,-3.564 -1.24,-5.256c-0.242,-0.431 -0.528,-0.824 -0.831,-1.196l0.968,-1.303c0.455,0.506 0.855,1.068 1.2,1.671c1.196,2.068 1.623,4.354 1.396,6.549l-1.493,-0.465Zm0.155,4.725c-0.434,0.776 -0.944,1.507 -1.561,2.175l-0.951,-1.385c0.365,-0.397 0.703,-0.814 0.992,-1.272l1.52,0.482Zm55.079,-88.443c0.376,0.217 0.776,0.4 1.183,0.52c1.413,40.2 2.319,65.923 2.898,82.381l-29.559,-48.547l25.478,-34.354Zm-2.044,-12.391c0.893,0.079 1.824,0.065 2.772,-0.083c0.031,0.848 0.062,1.668 0.089,2.503l-2.861,-2.42Zm6.563,-14.924l-0.21,-0.335l-0.366,-2.082c0.752,0.462 1.165,1.127 1.576,1.803l-1,0.614Zm0.841,7.355l0.055,-0.276l1.024,0.531l-0.066,0.265c-0.458,0.755 -0.927,1.5 -1.323,1.979l-0.155,-1.755c0.062,-0.268 0.127,-0.541 0.465,-0.744Zm0.493,-3.323c0,0 0.003,0 0.01,-0.007c-0.007,0.007 -0.01,0.007 -0.01,0.007Zm0.045,-0.017c0.024,-0.014 0.051,-0.021 0.11,-0.052c-0.062,0.031 -0.086,0.038 -0.11,0.052Zm2.516,4.915c2.099,1.11 4.005,2.113 5.759,3.044l-8.878,4.753l-0.135,-3.702c1.406,-1.1 2.606,-2.53 3.254,-4.095Zm-1.441,-5.387c0.041,-0.011 0.072,-0.028 0.114,-0.048c-0.042,0.02 -0.073,0.034 -0.114,0.048Zm0.145,-0.062c0.007,0 0.007,-0.004 0.014,0c-0.007,-0.004 -0.007,0 -0.014,0Zm11.891,5.908c-9.496,-5.053 -9.506,-5.071 -9.506,-5.071c0.128,-0.534 -0.021,-1.141 -0.162,-1.751l29.904,-11.543c0,0 0,-0.003 0.031,-0.179c-0.007,0.059 -0.017,0.117 -0.031,0.179c-0.686,3.213 -1.289,6.029 -1.816,8.503l-18.42,9.862Zm17.63,9.695c0,0.007 -0.003,0.024 0,0.035c-0.003,-0.014 0,-0.028 0,-0.035Zm-0.027,0.162c-0.007,0.073 -0.031,0.166 -0.052,0.29c0.021,-0.121 0.045,-0.217 0.052,-0.29Zm-30.404,-15.365c0.134,-0.066 0.317,-0.142 0.569,-0.252c-0.255,0.114 -0.435,0.19 -0.569,0.252Zm-0.786,139.093c-1.885,0.7 -3.354,2.071 -4.005,3.636c-1.706,3.599 -0.159,7.972 3.168,9.617c0.541,0.124 1.082,0.251 1.63,0.379c2.44,0.572 4.925,-0.273 6.728,-1.844c0.065,-0.269 0.396,-0.479 0.531,-1.017c0.331,-0.207 0.393,-0.483 0.789,-0.962l1.151,-0.014c-0.072,0.269 -0.072,0.269 -0.131,0.545c-0.127,0.538 -0.524,1.017 -0.858,1.224c-0.131,0.537 -0.465,0.751 -0.527,1.02c-2.203,2.051 -5.291,3.04 -8.004,2.399c-0.541,-0.124 -1.358,-0.324 -1.833,-0.717c-4.143,-1.837 -5.836,-6.811 -3.933,-11.219c1.055,-2.051 2.854,-3.623 5.008,-4.257l0.286,1.21Zm2.923,-3.895c0.007,-0.034 0.038,-0.217 0.241,-1.341c-0.069,0.41 -0.155,0.841 -0.241,1.341Zm0.417,-2.302c0.003,-0.004 0.01,-0.014 0.003,-0.011c0.007,-0.003 0,0.007 -0.003,0.011Zm0.358,-9.71l1.193,1.951c-0.217,1.017 -0.383,1.816 -0.514,2.43l-0.523,-0.172c-0.059,-1.414 -0.107,-2.827 -0.156,-4.209Zm5.626,21.249c-0.642,-2.15 -1.886,-4.156 -3.981,-4.946l0.317,-1.354l0.268,0.065c2.52,1.455 4.309,3.592 4.543,6.222l-1.147,0.013Zm-3.092,-25.668l-2.847,-4.666c-1.765,-50.981 -2.678,-77.194 -3.144,-90.67c0.8,-0.469 1.448,-1.134 1.913,-1.913l22.897,7.724c-11.043,52.49 -16.307,77.555 -18.819,89.525Zm-3.64,-101.803c-0.055,-0.144 -0.11,-0.286 -0.176,-0.43l11.085,-5.939c13.901,7.355 13.914,7.362 13.914,7.362c-0.492,2.354 -0.972,4.633 -1.444,6.887l-23.379,-7.88Zm28.349,-0.113c-0.055,0.275 -0.103,0.603 -0.179,0.975c0.073,-0.372 0.124,-0.7 0.179,-0.975Zm-0.375,2.168c-0.014,0.096 -0.031,0.196 -0.055,0.296c0.024,-0.1 0.041,-0.2 0.055,-0.296Zm-0.073,0.431c0,0.006 0,0.024 -0.003,0.037c0.003,-0.013 0.003,-0.027 0.003,-0.037Zm-0.017,0.075c0.007,0.007 0.004,0.014 0.004,0.018c14.328,7.669 25.571,13.694 34.415,18.433l-35.749,-12.057c1.33,-6.373 1.334,-6.376 1.334,-6.376c0,-0.004 0.003,-0.011 -0.004,-0.018Zm0.755,-4.374c0,0 0,-0.006 -0.003,-0.013c1.454,-6.704 2.571,-11.864 3.433,-15.862l42.729,-22.876c27.033,23.089 27.046,23.1 27.046,23.1c-0.923,7.152 -1.716,13.277 -2.402,18.561c-13.225,-1.434 -25.802,6.311 -30.418,18.571c-40.378,-21.491 -40.388,-21.494 -40.388,-21.494c0.003,0.007 0.003,0.013 0.003,0.013Zm2.709,-28.645c0.152,-0.824 0.276,-1.51 0.376,-2.065c-0.183,1.031 -0.303,1.672 -0.376,2.065Zm0.441,-2.417c0.128,-0.723 0.217,-1.206 0.273,-1.52c-0.107,0.573 -0.197,1.076 -0.273,1.52Zm0.355,-1.978c0.004,-0.01 0,-0.017 0.004,-0.028c-0.004,0.011 0,0.018 -0.004,0.028Zm37.311,-10.271c0.011,0 0.014,-0.004 0.018,-0.007c-0.004,0.003 -0.007,0.01 -0.018,0.007c0.59,0.5 1.141,0.972 1.703,1.458l-37.849,20.26c1.682,-7.811 1.689,-7.818 1.689,-7.818l34.457,-13.9Zm-34.453,13.873c0.007,-0.052 0.02,-0.09 0.027,-0.145c-0.007,0.055 -0.02,0.093 -0.027,0.145Zm0.051,-0.279c0.155,-0.824 0.28,-1.527 0.383,-2.113c-0.21,1.203 -0.327,1.813 -0.383,2.113Zm0.504,-2.761c0.11,-0.583 0.234,-1.286 0.389,-2.106c-0.052,0.307 -0.165,0.91 -0.389,2.106Zm0.413,-2.247c0.014,-0.073 0.021,-0.121 0.031,-0.145c-0.01,0.024 -0.017,0.072 -0.031,0.145Zm6.57,-31.531c0.02,-0.09 0.041,-0.159 0.062,-0.248c-0.055,0.237 -0.062,0.248 -0.062,0.248l23.096,19.753c0.004,0 0.007,-0.003 0.011,-0.003c-0.004,0 -0.007,0.003 -0.011,0.003l-29.635,11.616l6.539,-31.369Zm-2.865,-2.42c0.035,-0.148 0.066,-0.282 0.104,-0.413c-0.066,0.258 -0.093,0.368 -0.104,0.413Zm0.169,-0.689c0.042,-0.2 0.1,-0.445 0.18,-0.762c-0.08,0.321 -0.142,0.565 -0.18,0.762Zm0.424,-1.806c0.038,-0.166 0.08,-0.348 0.128,-0.552c-0.048,0.204 -0.093,0.383 -0.128,0.552Zm0.193,-0.824c0.028,-0.117 0.055,-0.238 0.08,-0.365c-0.025,0.127 -0.052,0.248 -0.08,0.365Zm2.248,5.022c0.024,-0.073 0.044,-0.162 0.058,-0.231c-0.017,0.069 -0.038,0.158 -0.058,0.231Zm0.268,-1.131c0.059,-0.248 0.107,-0.468 0.152,-0.644c-0.045,0.176 -0.096,0.396 -0.152,0.644Zm0.259,-1.12c0.01,-0.038 0.024,-0.086 0.038,-0.12c-0.014,0.031 -0.028,0.079 -0.038,0.12Zm0.11,-0.448c0.007,-0.024 0.011,-0.048 0.011,-0.062c0,0.01 -0.004,0.034 -0.011,0.062Zm22.328,23.152c0.021,-0.011 0.031,-0.011 0.052,-0.021c-0.024,0.01 -0.031,0.01 -0.052,0.021Zm0.159,-0.066c0.196,-0.079 0.382,-0.162 0.551,-0.237c-0.169,0.075 -0.358,0.158 -0.551,0.237Zm2.543,-1.072c0.273,-0.11 0.445,-0.186 0.552,-0.227c-0.107,0.045 -0.279,0.121 -0.552,0.227Zm0.655,-0.275c0.028,-0.007 0.045,-0.014 0.062,-0.021c-0.017,0.007 -0.034,0.014 -0.062,0.021Zm0.507,4.591c0.028,-0.011 0.048,-0.011 0.072,-0.024c-0.027,0.013 -0.044,0.013 -0.072,0.024Zm0.121,-0.042c0.444,-0.158 0.817,-0.282 1.147,-0.396c-0.627,0.217 -0.968,0.334 -1.147,0.396Zm1.309,-0.451c0.631,-0.221 1.041,-0.366 1.324,-0.465c0.131,-0.049 0.245,-0.087 0.389,-0.142c-0.079,0.031 -0.217,0.079 -0.389,0.142c-0.52,0.186 -0.975,0.344 -1.324,0.465Zm1.765,-0.617c0.042,-0.014 0.079,-0.028 0.1,-0.035c-0.017,0.007 -0.058,0.018 -0.1,0.035Zm0.141,-0.048c0.004,-0.004 0.004,-0.011 0.014,-0.007c5.022,-1.996 9.12,-3.619 12.453,-4.946l-11.208,6.004l-1.245,-1.058c-0.01,-0.004 -0.01,0.003 -0.014,0.007Zm28.098,-15.983c-0.017,-1.151 0.245,-2.233 0.769,-3.254c0.72,-1.83 2.12,-2.933 3.46,-3.763l0.624,1.009c-1.344,0.828 -2.13,1.786 -2.723,3.075c-0.524,1.017 -0.72,1.837 -0.844,2.371l-1.286,0.562Zm4.767,7.704c-0.82,-0.342 -1.516,-0.821 -2.126,-1.386l1.185,-0.638c0.438,0.397 0.914,0.748 1.472,1c0.269,0.062 0.269,0.062 0.541,0.131l-0.324,1.358c-0.276,-0.069 -0.479,-0.4 -0.748,-0.465Zm-56.84,-59.867c0.045,-0.179 0.107,-0.462 0.203,-0.848c-0.093,0.386 -0.158,0.669 -0.203,0.848Zm0.32,-1.341c0.073,-0.327 0.166,-0.717 0.28,-1.182c-0.114,0.465 -0.204,0.851 -0.28,1.182Zm0.293,-1.234c0.066,-0.296 0.145,-0.637 0.228,-1.003c-0.045,0.207 -0.117,0.524 -0.228,1.003Zm0.28,-1.206c0.013,-0.055 0.024,-0.09 0.038,-0.148c-0.014,0.058 -0.025,0.093 -0.038,0.148Zm2.409,4.326c0,-0.011 0.003,-0.024 0.003,-0.035c0,0.011 -0.003,0.024 -0.003,0.035Zm0.027,-0.169c0.011,-0.073 0.032,-0.166 0.052,-0.29c-0.02,0.124 -0.041,0.221 -0.052,0.29Zm0.252,-1.482c0.052,-0.279 0.104,-0.6 0.172,-0.979c-0.065,0.379 -0.12,0.7 -0.172,0.979Zm0.379,-2.172c0.014,-0.127 0.038,-0.217 0.045,-0.289c-0.007,0.072 -0.031,0.162 -0.045,0.289Zm0.066,-0.424c0.007,-0.017 0.007,-0.027 0.007,-0.034c0,0.007 0,0.017 -0.007,0.034Zm-3.092,-0.255l-62.831,-6.518l68.087,-35.16c0.617,1 1.575,1.799 2.658,2.055c0,0 0.275,0.065 0.21,0.334l-8.124,39.289Zm-58.371,94.668c-1.692,-0.11 -3.233,0.376 -4.577,1.214l-1.292,-0.593c1.471,-1.372 3.629,-2.006 5.58,-1.83l0.289,1.209Zm-78.185,-22.845l-22.821,-37.486l58.101,49.054c-13.018,-4.271 -24.733,-8.114 -35.28,-11.568Zm-6.518,-2.133c-8.555,-2.809 -16.3,-5.343 -23.283,-7.635l0.138,-28.218c0.376,-0.086 0.755,-0.197 1.124,-0.324l22.021,36.177Zm-18.065,-42.674l-0.982,-0.834c0.734,-1.851 0.693,-3.999 -0.314,-5.839c-1.795,-3.281 -6.142,-4.305 -9.416,-2.506c-1.934,1.058 -3.168,2.968 -3.44,5.036l-1.165,0.227c0.183,-2.54 1.551,-4.908 3.981,-6.266c3.954,-2.22 8.831,-1.061 11.047,2.888c1.327,2.372 1.341,5.05 0.289,7.294Zm-14.279,0.424l-0.114,0.11c-0.014,-0.024 -0.035,-0.048 -0.042,-0.079l0.156,-0.031Zm1.33,4.891c1.051,0.706 2.202,1.199 3.412,1.482l-0.127,26.781c-9.575,-3.14 -17.63,-5.78 -24.434,-8.007l21.149,-20.256Zm-25.944,18.674c-7.582,-2.482 -13.349,-4.374 -17.726,-5.808c0.924,-1.651 1.647,-3.443 2.092,-5.359c0.365,-1.565 0.531,-3.123 0.538,-4.664l37.328,-7.272c0.148,0.32 0.307,0.637 0.479,0.944c0.059,0.086 0.11,0.169 0.162,0.248l-22.873,21.911Zm1.145,5.074c10.126,3.309 19.453,6.356 28.067,9.165l-0.383,80.026c-0.793,0.172 -1.568,0.469 -2.302,0.924c-2.134,1.061 -3.43,3.009 -3.868,5.18l-128.911,13.091c0.362,-1.744 0.11,-3.464 -0.634,-4.936l108.031,-103.45Zm12.839,100.655l-99.159,38.017c-1.944,-2.043 -4.488,-3.57 -7.466,-4.27c-3.543,-0.838 -7.062,-0.362 -10.068,1.106l-7.517,-21.931c0.231,-0.111 0.451,-0.238 0.658,-0.373l123.552,-12.549Zm-120.488,37.514c-2.023,1.944 -3.519,4.467 -4.222,7.411c-0.238,1.023 -0.372,2.04 -0.407,3.047l-71.637,27.47l64.792,-62.041l1.716,-0.176c0.3,0.114 0.614,0.214 0.931,0.286c0.217,0.055 0.431,0.093 0.648,0.121l8.179,23.882Zm-140.506,32.651l-48.675,-8.065l87.482,-36.836l-38.807,44.901Zm-3.413,3.947l-18.998,21.973l-27.305,-29.118c0.086,-0.159 0.179,-0.317 0.258,-0.476l46.045,7.621Zm-18.864,28.628l27.299,29.115l-67.601,17.509l40.302,-46.624Zm2.934,-3.388l21.073,-24.385l43.019,7.12c-0.131,1.996 0.265,4.04 1.268,5.929c1.003,1.627 2.361,2.905 3.916,3.805l-7.28,30.283l-32.72,8.476l-29.276,-31.228Zm60.81,27.66l-7.121,29.601l-20.932,-22.332l28.053,-7.269Zm-4.722,38.676l18.123,19.316l-24.054,12.136c-0.452,-0.324 -0.924,-0.614 -1.42,-0.862l7.351,-30.59Zm1.245,-5.184l8.365,-34.757l41.764,-10.819l37.656,34.295l-66.76,33.695l-21.025,-22.414Zm55.282,-46.91l67.315,-17.451l10.378,30.276l-40.934,20.653l-36.759,-33.478Zm79.151,17.082l27.384,79.965l-66.253,-60.353l38.869,-19.612Zm4.005,-2.027l66.177,-33.385l-37.924,115.859l-28.253,-82.474Zm157.919,-67.252c1.152,-1.145 2.096,-2.441 2.782,-3.854l57.002,17.885c0.169,4.871 0.169,4.878 0.169,4.878c-3.03,0.716 -5.504,2.709 -7.083,5.766c-2.361,5.167 -0.179,11.691 5.253,14.121c0.486,0.397 1.292,0.586 2.109,0.779c3.795,0.889 7.493,-0.238 10.147,-3.047c0.342,-0.2 0.466,-0.748 0.8,-0.948c0.4,-0.486 0.865,-1.223 0.993,-1.771c0.396,-0.479 0.462,-0.748 0.586,-1.289c2.609,0.265 5.101,0.53 7.52,0.782l22.49,36.928c-0.544,0.762 -0.885,1.655 -0.985,2.579l-28.091,9.902c-2.148,-6.787 -7.755,-12.319 -15.169,-14.076c-3.84,-0.897 -7.676,-0.652 -11.158,0.486l-47.365,-69.121Zm74.126,93.489c0.507,-2.14 0.641,-4.281 0.462,-6.363l24.658,-8.696l-26.406,27.878l-2.981,-4.357c1.996,-2.399 3.509,-5.246 4.267,-8.462Zm1.289,16.579l29.887,-31.548c1.461,0.531 3.126,0.438 4.443,-0.352l31.899,25.878l-47.834,23.032c-0.961,-0.976 -2.209,-1.724 -3.664,-2.062c-1.495,-0.358 -2.984,-0.234 -4.311,0.249l-10.42,-15.197Zm130.135,26.805l-3.088,10.792l-52.559,-42.653l27.632,-13.295c12.839,20.702 21.794,35.119 28.015,45.156Zm-7.245,-60.114l-18.922,9.116c-6.122,-9.895 -10.758,-17.395 -14.27,-23.069l10.502,-2.302c8.052,5.759 15.597,11.171 22.69,16.255Zm-12.305,-23.111l-10.95,2.416c-6.645,-4.76 -11.278,-8.082 -14.514,-10.409l25.464,7.993Zm-15.248,3.357l-8.117,1.786c-8.438,-13.646 -8.441,-13.656 -8.441,-13.656c5.725,4.108 11.243,8.062 16.558,11.87Zm-12.539,-21.073c-0.7,-0.014 -1.534,-0.028 -2.558,-0.045c0.693,0.01 1.541,0.028 2.558,0.045Zm-3.133,-0.052c-0.438,-0.007 -0.783,-0.01 -1.086,-0.017c-0.39,-0.003 -0.741,-0.01 -1.172,-0.017c0.231,0 0.617,0.007 1.172,0.017c0.358,0.007 0.758,0.014 1.086,0.017Zm-1.069,8.993c-0.048,-0.069 -0.107,-0.162 -0.183,-0.269c0.076,0.107 0.138,0.203 0.183,0.269Zm-0.41,-0.607c-0.145,-0.214 -0.321,-0.479 -0.541,-0.81c0.22,0.335 0.396,0.6 0.541,0.81Zm-1.224,-8.431l0,0Zm5.394,24.017l-43.632,9.6l28.629,-28.801c0.534,0.868 1.227,1.571 1.999,1.978c0.541,0.121 0.806,0.19 1.358,0.31c0.269,0.069 0.806,0.197 1.355,0.321c3.612,5.828 7.034,11.346 10.291,16.592Zm-12.211,-28.335l-3.612,3.636l-68.391,-21.47l-4.429,-7.269c11.45,-54.841 16.841,-80.65 19.367,-92.779l41.641,14.038c-1.245,14.228 8.106,27.588 22.424,30.962c0.782,0.186 1.565,0.328 2.358,0.448c-7.245,56.075 -8.952,69.311 -9.358,72.434Zm38.169,-85.772l25.578,8.63c-0.458,2.447 -0.22,5.026 0.789,7.462c-11.791,-6.297 -20.659,-11.029 -27.349,-14.61c0.351,-0.483 0.672,-0.972 0.982,-1.482Zm-3.957,5.025c11.416,6.118 21.363,11.457 30.052,16.107l-59.074,59.421c4.333,-34.14 6.928,-54.62 8.49,-66.894c7.834,0.007 15.19,-3.202 20.532,-8.634Zm-13.677,-66.732c-0.379,-0.331 -0.675,-0.586 -0.872,-0.762c0.328,0.286 0.604,0.527 0.872,0.762c0.507,0.441 1.183,1.027 2.124,1.857c-0.369,-0.324 -1.031,-0.903 -2.124,-1.857Zm2.144,1.871c0.107,0.093 0.176,0.159 0.245,0.214c-0.069,-0.055 -0.138,-0.121 -0.245,-0.214Zm-0.655,-4.801c0.404,0.355 0.703,0.613 0.924,0.799c-0.221,-0.182 -0.52,-0.444 -0.924,-0.799Zm1.072,5.163c0.011,0.014 0.031,0.031 0.042,0.038c-0.011,-0.007 -0.031,-0.021 -0.042,-0.038Zm0.073,0.066c0.003,0 0.003,0.003 0.01,0.003c-0.007,-0.003 -0.007,-0.003 -0.01,-0.003Zm-0.045,-4.268c0.052,0.038 0.086,0.073 0.121,0.097c-0.035,-0.028 -0.069,-0.062 -0.121,-0.097Zm0.327,0.283c0.004,0.007 0.018,0.017 0.024,0.021c-0.006,-0.004 -0.02,-0.014 -0.024,-0.021Zm0.066,0.059c-0.004,0.007 0.007,0.01 0.01,0.01c-0.003,0 -0.014,-0.003 -0.01,-0.01Zm22.352,-30.273l18.192,64.771c-40.517,-34.471 -40.53,-34.478 -40.53,-34.478l4.484,-33.564c2.692,-0.51 5.308,-1.896 6.969,-4.081c3.705,2.509 7.324,4.946 10.885,7.352Zm15.669,-61.883c-0.19,0.41 -0.352,0.841 -0.5,1.275c-56.427,-5.969 -56.433,-5.969 -56.433,-5.969l-21.329,-44.229c0.269,0.062 0.269,0.062 0.331,-0.214c55.072,34.73 72.444,45.68 77.931,49.137Zm-81.733,-60.907c0.545,0.134 0.814,0.196 1.358,0.324c2.582,1.185 3.909,4.067 3.264,6.78l-0.748,-0.466c0.235,-2.226 -0.941,-4.512 -2.981,-5.566c-0.269,-0.059 -0.81,-0.193 -1.079,-0.255c-0.541,-0.128 -1.086,-0.252 -1.689,-0.111l-0.624,-1.006c0.872,-0.083 1.682,0.114 2.499,0.3Zm2.31,10.847l-0.094,-0.055l0.094,0.055Zm-0.187,-0.107c-0.048,-0.031 -0.113,-0.073 -0.189,-0.124c0.076,0.048 0.141,0.093 0.189,0.124Zm-0.472,-0.293c-0.031,-0.024 -0.055,-0.035 -0.069,-0.048c0.018,0.013 0.038,0.027 0.069,0.048Zm-0.086,-0.059l-0.003,-0.003l0.003,0.003Zm-1.806,1.572c-0.272,-0.062 -0.614,0.148 -0.614,0.148l0.255,-1.086l0.359,0.938Zm-0.989,1.772c0.537,0.131 1.148,-0.014 1.751,-0.162l20.353,42.281l-30.438,-3.164c0.003,0 0.003,0 0.006,0.007c-0.003,-0.007 -0.003,-0.007 -0.006,-0.007l8.334,-38.955Zm-2.678,-3.206l-0.19,0.814c-0.82,-0.193 -1.234,-0.862 -1.713,-1.262l0.941,-0.352c0.21,0.342 0.476,0.404 0.962,0.8Zm-1.196,-8.289c-0.335,0.207 -0.797,0.954 -0.931,1.499c-0.527,1.02 -0.713,1.827 -0.427,3.04l-0.934,0.352c-0.29,-1.207 -0.242,-2.634 0.616,-3.857c0.194,-0.817 0.655,-1.565 1.327,-1.975l0.349,0.941Zm-19.485,-45.801c-0.038,-0.003 -0.041,0 -0.041,0c0,0 0.003,-0.006 0.041,0Zm-0.217,0.328c-0.093,0.203 -0.172,0.345 -0.221,0.438c0.052,-0.093 0.128,-0.235 0.221,-0.438Zm-0.289,0.562c-0.018,0.051 -0.032,0.072 -0.049,0.089c0.021,-0.017 0.035,-0.041 0.049,-0.089Zm-52.712,-19.985l49.737,19.14l0.207,0.331l0.334,-0.207l0.751,0.462l20.564,42.612c-1.003,0.621 -1.799,1.582 -2.389,2.871c-0.727,1.834 -0.831,3.526 -0.403,5.343l-69.428,35.98c-0.41,-0.672 -0.948,-0.799 -1.434,-1.192c-0.268,-0.066 -0.541,-0.135 -0.806,-0.197c-0.786,-71.664 -1.038,-95.195 -1.127,-102.923c1.53,-0.324 2.923,-1.099 3.994,-2.22Zm-116.437,69.597c1.082,0.562 2.24,1.01 3.484,1.3c7.304,1.723 14.528,-2.131 17.306,-8.838c85.786,47.158 85.793,47.165 85.793,47.165c-0.12,0.545 -0.31,1.358 -0.176,1.961c0.214,0.338 0.149,0.611 0.355,0.935c0.562,1.282 1.452,2.35 2.686,3.208c0.261,0.069 0.53,0.135 0.806,0.193l12.357,90.753c-2.83,-0.093 -5.722,1.22 -7.983,3.547c-8.076,-2.644 -15.738,-5.16 -23.038,-7.549l-69.328,-58.529c1.575,-2.974 1.637,-6.635 -0.176,-9.809c-2.829,-4.956 -9.002,-6.701 -13.962,-3.867c-3.268,1.868 -5.126,5.18 -5.215,8.648l-36.929,7.2c-1.041,-4.808 -3.77,-9.106 -7.703,-12.071c22.187,-34.16 34.691,-53.41 41.723,-64.247Zm-163.576,106.098l90.146,-17.565c2.496,6.049 7.721,10.895 14.487,12.491c7.576,1.789 15.152,-0.958 20.036,-6.404c5.811,1.892 11.415,3.726 16.789,5.477l-106.342,101.82c-0.583,-0.31 -1.207,-0.565 -1.872,-0.717c-1.075,-0.255 -2.154,-0.265 -3.185,-0.086l-31.655,-92.376c0.81,-0.717 1.362,-1.637 1.596,-2.64Zm-5.504,4.973l31.541,92.046c-1.017,0.951 -1.775,2.174 -2.113,3.605c-0.396,1.671 -0.152,3.329 0.531,4.784l-73.143,7.435c-0.08,-0.166 -0.152,-0.335 -0.245,-0.493c-0.438,-0.714 -0.972,-1.341 -1.568,-1.868l44.997,-105.509Zm-4.974,0.297l-44.042,103.261c-1.741,-0.3 -3.575,-0.014 -5.191,0.982c-2.83,1.417 -4.209,4.391 -3.991,7.4l-88.599,37.308c-2.454,-2.989 -6.68,-3.719 -9.899,-1.934c-1.544,0.862 -2.65,2.127 -3.316,3.557l-43.16,-7.148l198.198,-143.426Zm-245.139,175.211l41.819,-28.118l47.596,7.886c0.131,0.951 0.417,1.896 0.9,2.757c0.879,1.576 2.189,2.699 3.664,3.361l-10.702,77.841c-0.359,0.114 -0.71,0.248 -1.055,0.431c-0.107,0.072 -0.203,0.155 -0.307,0.227l-81.939,-56.161c1.031,-2.547 1.099,-5.49 0.024,-8.224Zm-2.12,1.427c0.697,1.8 0.686,3.716 0.107,5.439l-1.082,-0.741c0.382,-1.306 0.393,-2.692 -0.045,-4.015l1.02,-0.683Zm-0.427,10.478l82.008,56.2c-0.069,0.375 -0.082,0.754 -0.069,1.144l-74.56,37.073l-11.364,-92.021c0.686,-0.234 1.365,-0.538 2.024,-0.92c0.727,-0.417 1.375,-0.921 1.961,-1.476Zm-3.209,-0.53c-0.345,0.189 -0.71,0.355 -1.075,0.499l-0.152,-1.24c0.207,-0.076 0.403,-0.162 0.603,-0.262c0.279,-0.173 0.534,-0.362 0.779,-0.552l1.062,0.72c-0.376,0.307 -0.779,0.59 -1.217,0.835Zm1.068,-13.587l-1.065,0.713c-1.575,-1.144 -3.615,-1.634 -5.556,-1.237l-0.686,-1.227c2.565,-0.628 5.301,0.055 7.307,1.751Zm-7.183,13.176c0.156,0.038 0.307,0.069 0.455,0.097l0.159,1.306c-0.445,-0.069 -0.879,-0.176 -1.313,-0.31l0.699,-1.093Zm-3.998,-12.739l0.676,1.207c-1.965,2.14 -2.482,5.463 -0.879,8.368c0.145,0.255 0.31,0.493 0.476,0.728l-0.748,1.154c-0.359,-0.4 -0.707,-0.844 -1.003,-1.323c-1.772,-3.502 -1.062,-7.576 1.478,-10.134Zm-89.353,156.338l91.328,-140.479c0.938,0.379 1.934,0.617 2.94,0.72l11.561,93.624l-103.165,51.298c-0.651,-1.837 -1.544,-3.568 -2.664,-5.163Zm108.569,67.704l-106.27,-48.199c0.383,-0.969 0.731,-1.958 0.972,-2.996c0.541,-2.316 0.651,-4.632 0.403,-6.872l102.73,-51.081l12.34,99.828c-4.305,1.847 -7.914,5.105 -10.175,9.32Zm23.172,-10.458c-2.964,-0.692 -5.907,-0.713 -8.679,-0.196l-12.425,-100.603l75.346,-37.47l-51.188,139.276c-0.975,-0.4 -1.989,-0.748 -3.054,-1.007Zm141.406,-88.043l-129.146,96.616c-1.402,-2.093 -3.164,-3.933 -5.252,-5.398l51.639,-140.496c0.789,-0.062 1.561,-0.31 2.25,-0.807c0.224,-0.12 0.424,-0.275 0.638,-0.43l81.584,42.188c-1.668,2.454 -2.326,5.47 -1.713,8.327Zm-76.948,-54.01l71.247,-18.454l24.61,26.236l-8.024,33.365c-1.94,-0.086 -3.926,0.303 -5.766,1.272l-82.067,-42.419Zm87.278,43.404l-0.32,1.327c-0.121,0.007 -0.249,0.014 -0.373,0.028l-1.844,-0.955c0.824,-0.265 1.689,-0.4 2.537,-0.4Zm-8.275,9.069c-0.114,-2.013 0.506,-4.04 1.754,-5.708l1.137,0.586c-0.934,1.151 -1.485,2.599 -1.544,4.119l-1.347,1.003Zm12.594,6.504c-3.964,2.24 -8.365,1.192 -10.978,-2.148l1.065,-0.799c1.975,2.812 5.918,3.822 9.293,1.944c1.399,-0.862 2.423,-2.106 3.012,-3.495l1.006,0.648c-0.658,1.582 -1.799,2.96 -3.398,3.85Zm2.406,-9.803c-0.124,-0.303 -0.273,-0.6 -0.455,-0.896c-0.021,-0.034 -0.055,-0.072 -0.086,-0.121l1.072,-0.53c0.013,0.006 0.017,0.02 0.024,0.034c0.441,0.789 0.741,1.617 0.917,2.464l-1.472,-0.951Zm4.029,2.613c-0.01,-1.751 -0.458,-3.54 -1.392,-5.225l24.151,-12.185l76.652,81.733l-99.411,-64.323Zm26.905,-19.502l67.115,-33.868l69.876,63.658c-0.376,1.393 -0.252,2.947 0.448,4.281c0.024,0.035 0.052,0.073 0.079,0.114l-45.779,52.18c-3.095,-1.675 -6.997,-1.816 -10.403,-0.021c-0.075,0.056 -0.141,0.107 -0.217,0.162l-81.119,-86.506Zm93.703,91.373l-0.565,0.155l0.39,-0.437c0.055,0.086 0.113,0.186 0.175,0.282Zm-3.539,-3.212l-0.89,1.01c-1.747,-0.721 -3.733,-0.741 -5.525,0.134l-0.982,-1.037c2.382,-1.245 5.108,-1.196 7.397,-0.107Zm0.716,14.748c-4.012,2.479 -9.102,0.99 -11.587,-3.029c-1.183,-2.099 -1.296,-4.526 -0.552,-6.718l1.11,0.727c-0.448,1.717 -0.262,3.657 0.717,5.439c1.802,3.285 6.076,4.578 9.696,2.578c2.147,-1.185 3.457,-3.526 3.539,-5.952l1.245,-0.331c0.072,2.933 -1.472,5.773 -4.168,7.286Zm5.174,-12.17c-0.072,-0.134 -0.131,-0.262 -0.21,-0.396c-0.217,-0.376 -0.466,-0.734 -0.721,-1.079l46.118,-52.563c1.241,0.217 2.578,0.034 3.726,-0.579c0.789,-0.486 1.392,-1.117 1.844,-1.823l131.734,7.19l-182.491,49.25Zm199.518,-45.421c-2.802,1.723 -6.218,0.841 -7.965,-1.661l0.827,-0.221c1.572,1.958 4.394,2.444 6.724,1.213c0.128,-0.069 0.221,-0.155 0.349,-0.234l0.758,0.458c-0.221,0.162 -0.448,0.31 -0.693,0.445Zm-8.6,-7.835c0.497,-1.137 1.341,-2.119 2.517,-2.76c1.692,-0.917 3.657,-1.003 5.332,-0.362l-0.666,0.706c-1.358,-0.444 -2.884,-0.403 -4.253,0.331c-0.827,0.593 -1.472,1.334 -1.923,2.147l-1.007,-0.062Zm9.041,-4.377c-2.292,-1.124 -5.046,-1.151 -7.355,0.283c-1.61,0.889 -2.792,2.343 -3.412,3.998l-131.421,-7.169l155.083,-54.662c2.781,4.153 7.027,7.324 12.26,8.555c6.335,1.496 12.756,-0.169 17.602,-3.926l3.088,4.525l-45.845,48.396Zm2.627,7.993l-0.841,-0.5c0.02,-0.217 0.01,-0.431 0.007,-0.651l0.885,-0.424c0.052,0.531 0.038,1.055 -0.051,1.575Zm1.596,0.962c0.31,-1.083 0.368,-2.234 0.155,-3.361l54.562,-26.267c0.992,1.109 2.326,1.943 3.901,2.316c1.22,0.282 2.437,0.262 3.568,-0.021l75.421,110.082c-0.02,0.021 -0.051,0.041 -0.072,0.062l-137.535,-82.811Zm149.381,97.37c-3.95,2.21 -9.109,0.996 -11.319,-2.954c-1.072,-2.106 -1.241,-4.415 -0.651,-6.476l1.034,0.62c-0.4,1.675 -0.207,3.54 0.624,5.232c2.071,3.354 6.411,4.378 9.692,2.572c1.148,-0.635 2.023,-1.496 2.647,-2.485l1.282,0.31c-0.731,1.303 -1.83,2.426 -3.309,3.181Zm3.058,-7.831c-0.052,-0.565 -0.159,-1.123 -0.345,-1.668l0.993,-0.741c0.344,0.882 0.541,1.792 0.592,2.706l-1.24,-0.297Z" style="fill:#f5f5f5;fill-opacity:0.4;fill-rule:nonzero;"/></g></g></svg>